<svg width="505" height="200" viewBox="0 0 77 35" fill="none" xmlns="http://www.w3.org/2000/svg">
<path fill-rule="evenodd" clip-rule="evenodd" d="M0 11.01L0.48 10.69L2.28 11C4.08 10.13 5.76 8.86 7.36 7.31L8.59 7.3L11.96 4.97L17.51 9.07L19.65 8.5L22.1 10.31L26.77 6.14L30.08 5.98L38.86 0L50.68 8.72L53.73 6.03L55.6 5.97L60.38 2.71L68.32 8.55L71.4 7.73L76.39 11.45L76.47 12.63L73.4 10.19L75.87 13L71.37 9.39L70.38 9.82C70.17 9.92 70.26 10.05 70.44 10.22L71.73 11.27L65.51 7.92L67.99 10.98L63.49 7.32L64.57 11.99L60.29 5.8L59.54 7.56L58.87 6.62L55.71 9.32L57.1 6.89L52.69 10.27L53.2 10.71L59 9.24L74.18 20.53H76.39V21.88L73.53 21.35L68.84 18.7L62.56 13.72L67.25 18.89L59.05 12.18L57.1 12.95L57.08 13.7L59.6 15.69L48.3 9.53L52.87 15.04L44.52 8.28L46.55 17.06L38.75 5.69L37.47 8.93L36.15 7.25L30.23 12.18L33.04 7.59L21.52 16.32L27.2 9.99L10.86 20.46L12.31 18.36L10.07 17.11L4.67 21.38L5.58 19.22L0 21.78V20.27L8.48 14.9L13.27 15.64C15.87 14.73 18.5 13.12 21.26 10.97L19.66 9.66C19.14 9.77 18.78 9.93 18.92 10.26L19.84 10.98L15.63 8.72L17.29 10.74L14.11 8.21L14.88 11.51L11.92 7.2L11.4 8.46L10.92 7.77L8.67 9.66L9.77 7.89L5.37 11.23L7.48 8.84L1.31 12.83L1.77 12.01L0.94 11.51L0 12.42V11.01Z" fill="#007CC2"/>
</svg>
