<svg width="341" height="506" viewBox="0 0 341 506" fill="none" xmlns="http://www.w3.org/2000/svg">
<path d="M310.241 452.19C318.417 439.582 323.673 427.546 327.761 417.23C365.137 320.946 307.905 233.259 305.569 230.394C302.649 318.654 241.329 341.005 237.825 342.152C240.161 339.286 287.465 281.401 282.793 168.497C278.121 59.6043 180.009 5.73118 168.913 0C178.257 5.73118 182.345 26.9366 182.345 26.9366C199.281 102.015 108.761 172.509 108.761 172.509C-128.343 390.294 95.3291 503.198 100.585 506.063C98.2491 502.052 26.4171 361.638 149.057 283.694C148.473 285.986 135.041 323.812 192.857 392.586C192.857 392.586 220.889 428.119 208.625 481.992C210.377 480.846 246.585 458.495 241.913 405.768C244.249 408.06 282.209 456.775 259.433 505.49C262.353 503.771 298.561 473.969 310.241 452.19Z" fill="white"/>
</svg>
