<svg width="77" height="82" viewBox="0 0 77 82" fill="none" xmlns="http://www.w3.org/2000/svg">
<path opacity="0.35" d="M46.4072 3.2303C46.1248 3.31845 45.8627 3.46173 45.636 3.65185C45.4092 3.84197 45.2225 4.07516 45.0865 4.33792C44.9505 4.60068 44.8679 4.8878 44.8436 5.18267C44.8193 5.47754 44.8537 5.77431 44.9448 6.05581L51.0692 26.4134C53.762 35.3643 48.9109 44.589 40.1896 47.2127C31.4684 49.8364 22.3328 44.8195 19.64 35.8686L14.1602 17.6539L40.5893 9.70294C40.8745 9.62153 41.1407 9.48426 41.3723 9.29909C41.604 9.11393 41.7965 8.88457 41.9387 8.62435C42.081 8.36413 42.1701 8.07823 42.2009 7.78327C42.2317 7.48831 42.2035 7.19018 42.1181 6.90619C42.0327 6.6222 41.8916 6.35803 41.7032 6.12901C41.5148 5.9 41.2827 5.71072 41.0205 5.57218C40.7583 5.43363 40.4712 5.34857 40.1758 5.32196C39.8805 5.29535 39.5827 5.3277 39.3 5.41714L10.728 14.0128C10.1597 14.1838 9.6826 14.5736 9.40164 15.0963C9.12068 15.6191 9.05885 16.232 9.22977 16.8004L10.3042 20.3719L3.87553 22.3059C3.8 22.3244 3.7255 22.3468 3.65231 22.373C3.14019 22.5875 2.7261 22.9848 2.49047 23.4875C2.25484 23.9903 2.21451 24.5626 2.3773 25.0935L5.81556 36.5223C7.66334 42.6643 13.7907 46.3563 19.9643 45.3618C19.9691 45.3671 19.9663 45.3788 19.9711 45.3841C23.5649 49.3678 28.5629 51.8832 33.8884 52.3215L30.7984 66.8097C30.7173 67.1842 30.7338 67.5732 30.8461 67.9394L32.995 75.0824C33.0764 75.3676 33.2137 75.6338 33.3989 75.8654C33.584 76.0971 33.8134 76.2896 34.0736 76.4318C34.3339 76.5741 34.6197 76.6632 34.9147 76.694C35.2097 76.7248 35.5078 76.6966 35.7918 76.6112C36.0758 76.5258 36.34 76.3847 36.569 76.1963C36.798 76.0079 36.9873 75.7758 37.1258 75.5136C37.2644 75.2514 37.3494 74.9643 37.376 74.6689C37.4026 74.3736 37.3703 74.0758 37.2808 73.7931L35.7766 68.793L55.777 62.776L56.6366 65.6332L41.6363 70.146C41.3511 70.2274 41.085 70.3646 40.8533 70.5498C40.6216 70.735 40.4291 70.9643 40.2869 71.2246C40.1446 71.4848 40.0555 71.7707 40.0247 72.0656C39.9939 72.3606 40.0221 72.6587 40.1075 72.9427C40.193 73.2267 40.334 73.4909 40.5224 73.7199C40.7108 73.9489 40.9429 74.1382 41.2051 74.2767C41.4673 74.4153 41.7544 74.5003 42.0498 74.5269C42.3452 74.5536 42.6429 74.5212 42.9256 74.4318L60.0688 69.2744C60.6371 69.1033 61.1142 68.7136 61.3952 68.1908C61.6761 67.6681 61.738 67.0551 61.567 66.4868L59.4181 59.3438C59.3097 58.9763 59.1088 58.6428 58.8346 58.3753L48.2637 47.9969C52.4633 44.6929 55.2439 39.8374 56.0432 34.5321C56.0439 34.5318 56.0358 34.5101 56.0365 34.5098C61.7341 31.9329 64.8073 25.473 62.9596 19.331L59.5213 7.90216C59.3503 7.33387 58.9605 6.85677 58.4378 6.57581C57.915 6.29484 57.3021 6.23302 56.7337 6.40394L50.305 8.33796L49.2306 4.76646C49.1502 4.47764 49.0126 4.20791 48.826 3.97329C48.6393 3.73867 48.4075 3.54394 48.1441 3.40066C47.8808 3.25738 47.5913 3.16846 47.293 3.1392C46.9946 3.10993 46.6934 3.14092 46.4072 3.2303ZM7.30777 25.947L11.5936 24.6577L15.3542 37.1579C15.7616 38.5124 16.2944 39.8102 16.929 41.0171C13.805 40.644 11.0783 38.4804 10.1014 35.2329L7.30777 25.947ZM51.5944 12.6238L55.8802 11.3344L58.6738 20.6203C59.6508 23.8678 58.5704 27.1767 56.1708 29.2115C56.0342 27.8548 55.7625 26.4785 55.355 25.124L51.5944 12.6238ZM38.5167 52.1706C39.5037 52.0259 40.4955 51.7944 41.479 51.4985C42.4624 51.2026 43.4173 50.8485 44.3204 50.4246L53.0144 58.9335L35.9605 64.064L38.5167 52.1706Z" fill="black"/>
</svg>
