<svg width="47" height="47" viewBox="0 0 47 47" fill="none" xmlns="http://www.w3.org/2000/svg">
<path d="M43.0579 42.1941C42.7983 42.1941 42.5494 42.0931 42.3659 41.9132C42.1824 41.7334 42.0793 41.4895 42.0793 41.2352C42.0793 40.9808 42.1824 40.7369 42.3659 40.5571C42.5494 40.3772 42.7983 40.2762 43.0579 40.2762C43.577 40.2762 44.0748 40.0741 44.4418 39.7145C44.8089 39.3548 45.0151 38.8669 45.0151 38.3583V3.83583C45.0151 3.32717 44.8089 2.83934 44.4418 2.47966C44.0748 2.11998 43.577 1.91791 43.0579 1.91791H3.91435C3.39528 1.91791 2.89746 2.11998 2.53042 2.47966C2.16338 2.83934 1.95718 3.32717 1.95718 3.83583V38.3583C1.95718 38.8669 2.16338 39.3548 2.53042 39.7145C2.89746 40.0741 3.39528 40.2762 3.91435 40.2762C4.17389 40.2762 4.4228 40.3772 4.60632 40.5571C4.78984 40.7369 4.89294 40.9808 4.89294 41.2352C4.89294 41.4895 4.78984 41.7334 4.60632 41.9132C4.4228 42.0931 4.17389 42.1941 3.91435 42.1941C2.8762 42.1941 1.88057 41.79 1.14649 41.0706C0.412404 40.3513 0 39.3756 0 38.3583V3.83583C0 2.8185 0.412404 1.84285 1.14649 1.12349C1.88057 0.404131 2.8762 0 3.91435 0L43.0579 0C44.096 0 45.0917 0.404131 45.8257 1.12349C46.5598 1.84285 46.9722 2.8185 46.9722 3.83583V38.3583C46.9722 39.3756 46.5598 40.3513 45.8257 41.0706C45.0917 41.79 44.096 42.1941 43.0579 42.1941Z" fill="white"/>
<path d="M6.84975 5.75334H5.87116C5.61163 5.75334 5.36272 5.65234 5.1792 5.47254C4.99568 5.29275 4.89258 5.0489 4.89258 4.79464C4.89258 4.54038 4.99568 4.29653 5.1792 4.11674C5.36272 3.93694 5.61163 3.83594 5.87116 3.83594H6.84975C7.10929 3.83594 7.3582 3.93694 7.54172 4.11674C7.72524 4.29653 7.82834 4.54038 7.82834 4.79464C7.82834 5.0489 7.72524 5.29275 7.54172 5.47254C7.3582 5.65234 7.10929 5.75334 6.84975 5.75334Z" fill="white"/>
<path d="M11.7433 5.75334H10.7647C10.5052 5.75334 10.2563 5.65234 10.0728 5.47254C9.88923 5.29275 9.78613 5.0489 9.78613 4.79464C9.78613 4.54038 9.88923 4.29653 10.0728 4.11674C10.2563 3.93694 10.5052 3.83594 10.7647 3.83594H11.7433C12.0028 3.83594 12.2518 3.93694 12.4353 4.11674C12.6188 4.29653 12.7219 4.54038 12.7219 4.79464C12.7219 5.0489 12.6188 5.29275 12.4353 5.47254C12.2518 5.65234 12.0028 5.75334 11.7433 5.75334Z" fill="white"/>
<path d="M41.1007 5.75334H40.1221C39.8626 5.75334 39.6137 5.65234 39.4302 5.47254C39.2467 5.29275 39.1436 5.0489 39.1436 4.79464C39.1436 4.54038 39.2467 4.29653 39.4302 4.11674C39.6137 3.93694 39.8626 3.83594 40.1221 3.83594H41.1007C41.3603 3.83594 41.6092 3.93694 41.7927 4.11674C41.9762 4.29653 42.0793 4.54038 42.0793 4.79464C42.0793 5.0489 41.9762 5.29275 41.7927 5.47254C41.6092 5.65234 41.3603 5.75334 41.1007 5.75334Z" fill="white"/>
<path d="M42.079 9.58945H4.89265C4.63311 9.58945 4.38421 9.48842 4.20068 9.30859C4.01716 9.12876 3.91406 8.88486 3.91406 8.63054C3.91406 8.37622 4.01716 8.13232 4.20068 7.95249C4.38421 7.77266 4.63311 7.67163 4.89265 7.67163H42.079C42.3385 7.67163 42.5874 7.77266 42.771 7.95249C42.9545 8.13232 43.0576 8.37622 43.0576 8.63054C43.0576 8.88486 42.9545 9.12876 42.771 9.30859C42.5874 9.48842 42.3385 9.58945 42.079 9.58945Z" fill="white"/>
<path d="M6.85045 21.0973C6.65693 21.0973 6.46777 21.041 6.30688 20.9356C6.146 20.8303 6.0206 20.6805 5.94655 20.5053C5.8725 20.3301 5.85312 20.1373 5.89086 19.9513C5.9286 19.7653 6.02177 19.5945 6.15859 19.4603L8.40249 17.2614L6.15859 15.0625C5.98033 14.8816 5.88169 14.6393 5.88392 14.3879C5.88615 14.1365 5.98907 13.8959 6.17051 13.7181C6.35195 13.5403 6.59739 13.4395 6.85397 13.4373C7.11055 13.4351 7.35775 13.5318 7.54231 13.7065L10.4781 16.5834C10.6615 16.7632 10.7646 17.0071 10.7646 17.2614C10.7646 17.5157 10.6615 17.7596 10.4781 17.9394L7.54231 20.8164C7.35883 20.9962 7.10997 21.0973 6.85045 21.0973Z" fill="white"/>
<path d="M16.6361 21.0973H12.7218C12.4622 21.0973 12.2133 20.9962 12.0298 20.8164C11.8463 20.6366 11.7432 20.3927 11.7432 20.1384C11.7432 19.884 11.8463 19.6401 12.0298 19.4603C12.2133 19.2805 12.4622 19.1794 12.7218 19.1794H16.6361C16.8957 19.1794 17.1446 19.2805 17.3281 19.4603C17.5116 19.6401 17.6147 19.884 17.6147 20.1384C17.6147 20.3927 17.5116 20.6366 17.3281 20.8164C17.1446 20.9962 16.8957 21.0973 16.6361 21.0973Z" fill="white"/>
<path d="M37.1858 46.0297H9.78537C9.00676 46.0297 8.26004 45.7267 7.70947 45.1871C7.15891 44.6476 6.84961 43.9159 6.84961 43.1529V27.8099C6.84961 27.0469 7.15891 26.3152 7.70947 25.7757C8.26004 25.2362 9.00676 24.9331 9.78537 24.9331H22.507V20.1384C22.507 19.8841 22.6101 19.6401 22.7936 19.4603C22.9771 19.2805 23.2261 19.1794 23.4856 19.1794C23.7451 19.1794 23.994 19.2805 24.1776 19.4603C24.3611 19.6401 24.4642 19.8841 24.4642 20.1384V25.892C24.4642 26.1463 24.3611 26.3903 24.1776 26.5701C23.994 26.7499 23.7451 26.851 23.4856 26.851H9.78537C9.52583 26.851 9.27693 26.952 9.09341 27.1318C8.90989 27.3117 8.80678 27.5556 8.80678 27.8099V43.1529C8.80678 43.4073 8.90989 43.6512 9.09341 43.831C9.27693 44.0108 9.52583 44.1119 9.78537 44.1119H37.1858C37.4454 44.1119 37.6943 44.0108 37.8778 43.831C38.0613 43.6512 38.1644 43.4073 38.1644 43.1529V27.8099C38.1644 27.5556 38.0613 27.3117 37.8778 27.1318C37.6943 26.952 37.4454 26.851 37.1858 26.851H27.3999C27.1404 26.851 26.8915 26.7499 26.708 26.5701C26.5245 26.3903 26.4214 26.1463 26.4214 25.892C26.4214 25.6377 26.5245 25.3938 26.708 25.2139C26.8915 25.0341 27.1404 24.9331 27.3999 24.9331H37.1858C37.9644 24.9331 38.7112 25.2362 39.2617 25.7757C39.8123 26.3152 40.1216 27.0469 40.1216 27.8099V43.1529C40.1216 43.9159 39.8123 44.6476 39.2617 45.1871C38.7112 45.7267 37.9644 46.0297 37.1858 46.0297Z" fill="white"/>
<path d="M13.7004 41.2348H11.7432C11.4837 41.2348 11.2348 41.1338 11.0513 40.954C10.8677 40.7742 10.7646 40.5303 10.7646 40.2761C10.7646 40.0218 10.8677 39.778 11.0513 39.5982C11.2348 39.4184 11.4837 39.3174 11.7432 39.3174H13.7004C13.96 39.3174 14.2089 39.4184 14.3924 39.5982C14.5759 39.778 14.679 40.0218 14.679 40.2761C14.679 40.5303 14.5759 40.7742 14.3924 40.954C14.2089 41.1338 13.96 41.2348 13.7004 41.2348Z" fill="white"/>
<path d="M15.6574 36.4403H13.7003C13.4407 36.4403 13.1918 36.3393 13.0083 36.1594C12.8248 35.9796 12.7217 35.7357 12.7217 35.4814C12.7217 35.2271 12.8248 34.9831 13.0083 34.8033C13.1918 34.6235 13.4407 34.5225 13.7003 34.5225H15.6574C15.917 34.5225 16.1659 34.6235 16.3494 34.8033C16.5329 34.9831 16.636 35.2271 16.636 35.4814C16.636 35.7357 16.5329 35.9796 16.3494 36.1594C16.1659 36.3393 15.917 36.4403 15.6574 36.4403Z" fill="white"/>
<path d="M21.5285 36.4403H19.5714C19.3118 36.4403 19.0629 36.3393 18.8794 36.1594C18.6959 35.9796 18.5928 35.7357 18.5928 35.4814C18.5928 35.2271 18.6959 34.9831 18.8794 34.8033C19.0629 34.6235 19.3118 34.5225 19.5714 34.5225H21.5285C21.7881 34.5225 22.037 34.6235 22.2205 34.8033C22.404 34.9831 22.5071 35.2271 22.5071 35.4814C22.5071 35.7357 22.404 35.9796 22.2205 36.1594C22.037 36.3393 21.7881 36.4403 21.5285 36.4403Z" fill="white"/>
<path d="M27.4006 36.4403H25.4434C25.1839 36.4403 24.935 36.3393 24.7515 36.1594C24.5679 35.9796 24.4648 35.7357 24.4648 35.4814C24.4648 35.2271 24.5679 34.9831 24.7515 34.8033C24.935 34.6235 25.1839 34.5225 25.4434 34.5225H27.4006C27.6602 34.5225 27.9091 34.6235 28.0926 34.8033C28.2761 34.9831 28.3792 35.2271 28.3792 35.4814C28.3792 35.7357 28.2761 35.9796 28.0926 36.1594C27.9091 36.3393 27.6602 36.4403 27.4006 36.4403Z" fill="white"/>
<path d="M33.2717 36.4403H31.3145C31.055 36.4403 30.8061 36.3393 30.6226 36.1594C30.439 35.9796 30.3359 35.7357 30.3359 35.4814C30.3359 35.2271 30.439 34.9831 30.6226 34.8033C30.8061 34.6235 31.055 34.5225 31.3145 34.5225H33.2717C33.5313 34.5225 33.7802 34.6235 33.9637 34.8033C34.1472 34.9831 34.2503 35.2271 34.2503 35.4814C34.2503 35.7357 34.1472 35.9796 33.9637 36.1594C33.7802 36.3393 33.5313 36.4403 33.2717 36.4403Z" fill="white"/>
<path d="M15.6574 31.6454H13.7003C13.4407 31.6454 13.1918 31.5443 13.0083 31.3645C12.8248 31.1847 12.7217 30.9408 12.7217 30.6864C12.7217 30.4321 12.8248 30.1882 13.0083 30.0084C13.1918 29.8286 13.4407 29.7275 13.7003 29.7275H15.6574C15.917 29.7275 16.1659 29.8286 16.3494 30.0084C16.5329 30.1882 16.636 30.4321 16.636 30.6864C16.636 30.9408 16.5329 31.1847 16.3494 31.3645C16.1659 31.5443 15.917 31.6454 15.6574 31.6454Z" fill="white"/>
<path d="M21.5285 31.6454H19.5714C19.3118 31.6454 19.0629 31.5443 18.8794 31.3645C18.6959 31.1847 18.5928 30.9408 18.5928 30.6864C18.5928 30.4321 18.6959 30.1882 18.8794 30.0084C19.0629 29.8286 19.3118 29.7275 19.5714 29.7275H21.5285C21.7881 29.7275 22.037 29.8286 22.2205 30.0084C22.404 30.1882 22.5071 30.4321 22.5071 30.6864C22.5071 30.9408 22.404 31.1847 22.2205 31.3645C22.037 31.5443 21.7881 31.6454 21.5285 31.6454Z" fill="white"/>
<path d="M27.4006 31.6454H25.4434C25.1839 31.6454 24.935 31.5443 24.7515 31.3645C24.5679 31.1847 24.4648 30.9408 24.4648 30.6864C24.4648 30.4321 24.5679 30.1882 24.7515 30.0084C24.935 29.8286 25.1839 29.7275 25.4434 29.7275H27.4006C27.6602 29.7275 27.9091 29.8286 28.0926 30.0084C28.2761 30.1882 28.3792 30.4321 28.3792 30.6864C28.3792 30.9408 28.2761 31.1847 28.0926 31.3645C27.9091 31.5443 27.6602 31.6454 27.4006 31.6454Z" fill="white"/>
<path d="M33.2717 31.6454H31.3145C31.055 31.6454 30.8061 31.5443 30.6226 31.3645C30.439 31.1847 30.3359 30.9408 30.3359 30.6864C30.3359 30.4321 30.439 30.1882 30.6226 30.0084C30.8061 29.8286 31.055 29.7275 31.3145 29.7275H33.2717C33.5313 29.7275 33.7802 29.8286 33.9637 30.0084C34.1472 30.1882 34.2503 30.4321 34.2503 30.6864C34.2503 30.9408 34.1472 31.1847 33.9637 31.3645C33.7802 31.5443 33.5313 31.6454 33.2717 31.6454Z" fill="white"/>
<path d="M35.2287 41.2348H33.2716C33.012 41.2348 32.7631 41.1338 32.5796 40.954C32.3961 40.7742 32.293 40.5303 32.293 40.2761C32.293 40.0218 32.3961 39.778 32.5796 39.5982C32.7631 39.4184 33.012 39.3174 33.2716 39.3174H35.2287C35.4883 39.3174 35.7372 39.4184 35.9207 39.5982C36.1042 39.778 36.2073 40.0218 36.2073 40.2761C36.2073 40.5303 36.1042 40.7742 35.9207 40.954C35.7372 41.1338 35.4883 41.2348 35.2287 41.2348Z" fill="white"/>
<path d="M29.3574 41.2348H17.6143C17.3548 41.2348 17.1059 41.1338 16.9224 40.954C16.7388 40.7742 16.6357 40.5303 16.6357 40.2761C16.6357 40.0218 16.7388 39.778 16.9224 39.5982C17.1059 39.4184 17.3548 39.3174 17.6143 39.3174H29.3574C29.6169 39.3174 29.8658 39.4184 30.0493 39.5982C30.2329 39.778 30.336 40.0218 30.336 40.2761C30.336 40.5303 30.2329 40.7742 30.0493 40.954C29.8658 41.1338 29.6169 41.2348 29.3574 41.2348Z" fill="white"/>
</svg>
