<svg width="57" height="56" viewBox="0 0 57 56" fill="transparent" xmlns="http://www.w3.org/2000/svg">
<path d="M37.3615 36.3662C44.1462 29.6714 44.1462 18.8169 37.3615 12.1221C30.5767 5.42728 19.5765 5.42728 12.7917 12.1221C6.00697 18.8169 6.00697 29.6714 12.7917 36.3662C19.5765 43.061 30.5767 43.061 37.3615 36.3662Z" stroke="white" stroke-width="3" stroke-miterlimit="10"  fill="transparent"/>
<path d="M37.1362 42.5973L43.5746 36.2442C43.9834 35.8408 44.5966 35.8408 45.0054 36.2442L52.9768 44.11C55.123 46.2277 55.123 49.7572 52.9768 51.9757C50.8307 54.0934 47.2537 54.0934 45.0054 51.9757L37.034 44.11C36.7274 43.6057 36.7274 42.8998 37.1362 42.5973Z" stroke="white" stroke-width="3" stroke-miterlimit="10"  fill="transparent" stroke-linejoin="round"/>
<path d="M41.94 37.757L38.874 34.7317" stroke="white" stroke-width="3" stroke-miterlimit="10"  fill="transparent"/>
<path d="M38.771 40.8832L35.7051 37.8579" stroke="white" stroke-width="3" stroke-miterlimit="10"  fill="transparent"/>
<path d="M44.3926 43.3035L49.0937 47.942" stroke="white" stroke-width="3" stroke-miterlimit="10"  fill="transparent" stroke-linejoin="round" stroke-dasharray="2 2"/>
<path d="M25.0771 34.6308C30.8907 34.6308 35.6035 29.9804 35.6035 24.244C35.6035 18.5075 30.8907 13.8572 25.0771 13.8572C19.2636 13.8572 14.5508 18.5075 14.5508 24.244C14.5508 29.9804 19.2636 34.6308 25.0771 34.6308Z" stroke="white" stroke-width="3" stroke-miterlimit="10"  fill="transparent"/>
<path d="M25.0771 10.126V16.2774" stroke="white" stroke-width="3" stroke-miterlimit="10"  fill="transparent"/>
<path d="M25.0771 32.2107V38.3622" stroke="white" stroke-width="3" stroke-miterlimit="10"  fill="transparent"/>
<path d="M39.3845 24.2444H33.1504" stroke="white" stroke-width="3" stroke-miterlimit="10"  fill="transparent"/>
<path d="M17.0036 24.2444H10.7695" stroke="white" stroke-width="3" stroke-miterlimit="10"  fill="transparent"/>
</svg>
