<svg width="54" height="53" viewBox="0 0 54 53" fill="none" xmlns="http://www.w3.org/2000/svg">
<path fill-rule="evenodd" clip-rule="evenodd" d="M48.3081 7.37119L38.2574 7.91292L13.9681 9.22211L3.07986 9.80898L2.2423 9.85413L2.1508 8.20121L24.7649 6.98232C25.2272 6.9574 25.582 6.56775 25.5567 6.11071C25.5314 5.65368 25.1357 5.30448 24.6734 5.3294L2.05929 6.5483L1.96779 4.89539L48.8711 2.3673L48.9626 4.02021L41.4246 4.42651C40.9623 4.45143 40.6075 4.84109 40.6328 5.29812C40.6581 5.75515 41.0538 6.10435 41.5161 6.07943L49.0541 5.67313L49.1456 7.32604L48.3081 7.37119ZM4.52984 51.177L4.43834 49.524L11.9764 49.1177C12.4387 49.0928 12.7935 48.7032 12.7682 48.2461C12.7429 47.7891 12.3472 47.4399 11.8849 47.4648L4.34684 47.8711L4.25534 46.2182L5.0929 46.1731L15.1436 45.6313L40.2704 44.277L50.3211 43.7353L51.1587 43.6901L51.2502 45.343L28.6361 46.5619C28.1737 46.5869 27.819 46.9765 27.8443 47.4335C27.8696 47.8906 28.2652 48.2398 28.7276 48.2149L51.3417 46.996L51.4332 48.6489L4.52984 51.177ZM23.4084 36.8966L31.0905 36.4826L38.157 42.7331L17.074 43.8695L23.4084 36.8966ZM29.3239 34.92L24.9921 35.1534L27.0397 32.8995L29.3239 34.92ZM13.5889 37.1839L13.5905 37.1821L21.7398 28.2116L25.7907 31.7947L22.3922 35.5356L22.3907 35.5374L14.7054 43.9971L7.02326 44.4112L13.5889 37.1839ZM5.47295 37.8634L10.9891 37.566L5.77426 43.3064L5.47295 37.8634ZM4.32918 17.2019L4.07361 12.5854L9.00778 16.9498L4.32918 17.2019ZM4.87819 27.1194L4.42068 18.8549L10.7744 18.5124L19.6075 26.3255L4.87819 27.1194ZM12.5727 35.8228L5.38145 36.2105L4.96969 28.7723L19.699 27.9784L12.5727 35.8228ZM21.2238 17.7063L21.2246 17.7063L31.5495 27.0637C31.5681 27.0809 31.5858 27.0982 31.606 27.1137L48.2412 42.1895L40.5256 42.6054L31.9522 35.022L31.9505 35.0204L27.5348 31.1146L22.2358 26.4276L22.2341 26.426L11.6361 17.0518L11.6343 17.0502L5.19323 11.3529L13.707 10.894L21.2238 17.7063ZM30.7843 15.776L22.0905 16.2446L16.0472 10.7679L36.327 9.67481L30.7843 15.776ZM40.6038 15.4888L40.6023 15.4905L31.8686 25.1043L27.8613 21.4741L38.6956 9.54714L46.3777 9.13308L40.6038 15.4888ZM47.8823 14.8544L43.2037 15.1066L47.6267 10.2379L47.8823 14.8544ZM48.5228 26.4248L48.9345 33.8629L41.9485 34.2395L34.1779 27.198L48.5228 26.4248ZM23.8177 17.8094L29.2007 17.5192L26.6258 20.3537L23.8177 17.8094ZM41.62 16.8498L47.9738 16.5074L48.4313 24.7719L33.702 25.5658L41.62 16.8498ZM43.6749 35.8043L49.026 35.5159L49.3255 40.925L43.6749 35.8043ZM49.6172 0.669244L1.03873 3.28762C0.576399 3.31254 0.221623 3.70219 0.246923 4.15922L0.61293 10.7709C0.63823 11.2279 1.03391 11.5771 1.49624 11.5522L2.3338 11.507L4.16384 44.5653L3.32628 44.6105C2.86394 44.6354 2.50917 45.025 2.53447 45.4821L2.90047 52.0937C2.92577 52.5507 3.32145 52.8999 3.78378 52.875L52.3622 50.2566C52.8246 50.2317 53.1793 49.8421 53.154 49.385L52.788 42.7734C52.7627 42.3164 52.3671 41.9672 51.9047 41.9921L51.0672 42.0372L49.2371 8.97895L50.0747 8.93381C50.537 8.90889 50.8918 8.51924 50.8665 8.06221L50.5005 1.45056C50.4752 0.993526 50.0795 0.644324 49.6172 0.669244Z" fill="white"/>
<path fill-rule="evenodd" clip-rule="evenodd" d="M11.0695 13.2721L42.0312 41.4447C42.2045 41.6019 42.4269 41.6745 42.6456 41.6627C42.8558 41.6514 43.0625 41.5623 43.2164 41.3974C43.5304 41.0613 43.509 40.5378 43.1684 40.227L12.2068 12.0545C11.8663 11.7462 11.3356 11.7657 11.0216 12.1026C10.7075 12.4387 10.729 12.9622 11.0695 13.2721Z" fill="white"/>
<path fill-rule="evenodd" clip-rule="evenodd" d="M30.8949 22.2062C31.0671 22.3577 31.2851 22.4264 31.4995 22.4148C31.7139 22.4033 31.9246 22.3099 32.079 22.1391L41.5781 11.6338C41.8869 11.2939 41.8562 10.77 41.5109 10.4654C41.1656 10.1615 40.6356 10.1918 40.3268 10.5325L30.8276 21.0378C30.5189 21.3785 30.5495 21.9015 30.8949 22.2062Z" fill="white"/>
<path fill-rule="evenodd" clip-rule="evenodd" d="M22.5097 31.3858C22.1643 31.0803 21.635 31.1088 21.3254 31.4496L11.8237 41.9089C11.5141 42.2497 11.543 42.772 11.8884 43.0775C12.0606 43.2299 12.2795 43.2993 12.4939 43.2878C12.7083 43.2762 12.9183 43.1837 13.0727 43.0137L22.5744 32.5544C22.884 32.2136 22.8551 31.6913 22.5097 31.3858Z" fill="white"/>
</svg>
