<svg width="51" height="62" viewBox="0 0 51 62" fill="none" xmlns="http://www.w3.org/2000/svg">
<path d="M24.1244 19.6836C24.1565 19.437 24.0879 19.1879 23.9339 18.9912C23.7799 18.7944 23.5529 18.6661 23.303 18.6345L18.5917 18.038C18.3418 18.0064 18.0894 18.074 17.89 18.226C17.6906 18.378 17.5606 18.6019 17.5285 18.8485L16.9241 23.4977C16.892 23.7443 16.9605 23.9934 17.1146 24.1901C17.2686 24.3869 17.4955 24.5152 17.7454 24.5468L22.4568 25.1433C22.7067 25.1749 22.9591 25.1073 23.1585 24.9553C23.3579 24.8033 23.4879 24.5794 23.5199 24.3328L24.1244 19.6836ZM21.7563 23.1643L18.9295 22.8064L19.2922 20.017L22.119 20.3748L21.7563 23.1643Z" fill="white"/>
<path d="M42.1486 21.0207L27.0722 19.112C26.8223 19.0803 26.5698 19.148 26.3705 19.3C26.1711 19.452 26.0411 19.6759 26.009 19.9225C25.9769 20.1691 26.0455 20.4182 26.1995 20.6149C26.3535 20.8117 26.5805 20.94 26.8304 20.9716L41.9068 22.8804C42.1567 22.912 42.4091 22.8444 42.6085 22.6924C42.8079 22.5404 42.9379 22.3165 42.97 22.0699C43.002 21.8232 42.9335 21.5742 42.7795 21.3774C42.6254 21.1807 42.3985 21.0524 42.1486 21.0207Z" fill="white"/>
<path d="M26.2259 25.6203L33.7641 26.5746C34.014 26.6062 34.2664 26.5386 34.4658 26.3866C34.6652 26.2346 34.7952 26.0107 34.8273 25.7641C34.8593 25.5176 34.7908 25.2685 34.6368 25.0718C34.4827 24.8751 34.2558 24.7468 34.0059 24.7151L26.4677 23.7609C26.2178 23.7292 25.9654 23.7969 25.766 23.9488C25.5666 24.1008 25.4366 24.3247 25.4045 24.5713C25.3724 24.8179 25.441 25.0669 25.595 25.2637C25.749 25.4604 25.976 25.5887 26.2259 25.6203Z" fill="white"/>
<path d="M22.6742 30.8415C22.7063 30.5949 22.6378 30.3458 22.4837 30.1491C22.3297 29.9523 22.1027 29.824 21.8528 29.7924L17.1415 29.196C16.8916 29.1643 16.6392 29.2319 16.4398 29.3839C16.2404 29.5359 16.1104 29.7598 16.0783 30.0064L15.4739 34.6553C15.4418 34.9019 15.5103 35.151 15.6644 35.3477C15.8184 35.5445 16.0453 35.6728 16.2952 35.7044L21.0066 36.3009C21.2565 36.3325 21.5089 36.2649 21.7083 36.1129C21.9077 35.9609 22.0377 35.737 22.0697 35.4904L22.6742 30.8415ZM20.3061 34.322L17.4793 33.9641L17.842 31.1748L20.6688 31.5327L20.3061 34.322Z" fill="white"/>
<path d="M40.6984 32.178L25.622 30.2692C25.3721 30.2376 25.1196 30.3052 24.9203 30.4572C24.7209 30.6092 24.5909 30.8331 24.5588 31.0797C24.5267 31.3263 24.5953 31.5754 24.7493 31.7722C24.9033 31.9689 25.1303 32.0972 25.3802 32.1289L40.4566 34.0376C40.7065 34.0693 40.9589 34.0016 41.1583 33.8496C41.3577 33.6976 41.4877 33.4737 41.5198 33.2271C41.5518 32.9805 41.4833 32.7314 41.3293 32.5346C41.1752 32.3379 40.9483 32.2096 40.6984 32.178Z" fill="white"/>
<path d="M20.4017 40.9496L15.6903 40.3532C15.4404 40.3215 15.188 40.3892 14.9886 40.5412C14.7892 40.6931 14.6592 40.9171 14.6272 41.1637L14.0227 45.8126C13.9906 46.0591 14.0591 46.3082 14.2132 46.5049C14.3672 46.7017 14.5942 46.83 14.8441 46.8616L19.5554 47.4581C19.8053 47.4897 20.0577 47.4221 20.2571 47.2701C20.4565 47.1181 20.5865 46.8942 20.6186 46.6476L21.223 41.9987C21.2551 41.7521 21.1866 41.503 21.0325 41.3063C20.8785 41.1096 20.6516 40.9813 20.4017 40.9496ZM18.8549 45.4792L16.0281 45.1214L16.3908 42.332L19.2176 42.6899L18.8549 45.4792Z" fill="white"/>
<path d="M40.0686 44.3847C40.1007 44.1381 40.0321 43.8891 39.8781 43.6924C39.7241 43.4956 39.4971 43.3673 39.2472 43.3357L24.1708 41.4271C23.9209 41.3955 23.6685 41.4631 23.4691 41.6151C23.2697 41.7671 23.1397 41.991 23.1076 42.2376C23.0756 42.4842 23.1441 42.7332 23.2981 42.93C23.4522 43.1267 23.6791 43.255 23.929 43.2866L39.0054 45.1952C39.2553 45.2268 39.5077 45.1592 39.7071 45.0072C39.9065 44.8552 40.0365 44.6313 40.0686 44.3847Z" fill="white"/>
<path d="M25.9376 5.73729L25.8167 6.66708L21.1053 6.07062C20.8554 6.03898 20.603 6.1066 20.4036 6.2586C20.2042 6.4106 20.0742 6.63452 20.0421 6.88112L19.8003 8.7407L13.2044 7.90567C12.9545 7.87403 12.7021 7.94164 12.5027 8.09364C12.3033 8.24564 12.1733 8.46957 12.1412 8.71617L7.06365 47.7674C7.03159 48.014 7.10011 48.2631 7.25415 48.4598C7.40819 48.6566 7.63512 48.7849 7.88503 48.8165C8.13494 48.8481 8.38735 48.7805 8.58673 48.6285C8.78611 48.4765 8.91614 48.2526 8.9482 48.006L13.9049 9.88454L19.5585 10.6003L19.3167 12.4599C19.2847 12.7065 19.3532 12.9555 19.5072 13.1523C19.6613 13.349 19.8882 13.4773 20.1381 13.509L33.33 15.179C33.5799 15.2107 33.8323 15.1431 34.0317 14.9911C34.231 14.8391 34.3611 14.6151 34.3931 14.3685C34.4252 14.1219 34.3567 13.8729 34.2026 13.6761C34.0486 13.4794 33.8217 13.3511 33.5718 13.3194L21.3222 11.7687L21.8058 8.0495L26.5171 8.64595C26.767 8.67759 27.0195 8.60997 27.2188 8.45797C27.4182 8.30598 27.5482 8.08205 27.5803 7.83545L27.8221 5.97587C27.8542 5.72927 27.9842 5.50534 28.1836 5.35335C28.383 5.20135 28.6354 5.13373 28.8853 5.16537L34.5389 5.88112C34.7888 5.91275 35.0158 6.04106 35.1698 6.2378C35.3238 6.43454 35.3924 6.6836 35.3603 6.9302L35.1185 8.78978C35.0864 9.03638 35.155 9.28544 35.309 9.48218C35.463 9.67892 35.69 9.80723 35.9399 9.83886L40.6513 10.4353L40.1677 14.1545L37.3409 13.7966C37.0909 13.765 36.8385 13.8326 36.6392 13.9846C36.4398 14.1366 36.3097 14.3605 36.2777 14.6071C36.2456 14.8537 36.3141 15.1028 36.4682 15.2995C36.6222 15.4963 36.8492 15.6246 37.0991 15.6562L40.8682 16.1334C41.1181 16.165 41.3705 16.0974 41.5699 15.9454C41.7692 15.7934 41.8993 15.5695 41.9313 15.3229L42.6567 9.74411C42.6888 9.49752 42.6202 9.24845 42.4662 9.05171C42.3122 8.85497 42.0852 8.72667 41.8353 8.69503L37.1239 8.09857L37.2448 7.16878C37.341 6.42899 37.1355 5.6818 36.6733 5.09158C36.2112 4.50135 35.5304 4.11645 34.7807 4.02153L29.1271 3.30578C28.3773 3.21087 27.6201 3.41372 27.022 3.86972C26.4238 4.32571 26.0337 4.9975 25.9376 5.73729Z" fill="white"/>
<path d="M49.0111 12.4384L44.2997 11.842C44.0498 11.8103 43.7974 11.8779 43.598 12.0299C43.3986 12.1819 43.2686 12.4059 43.2365 12.6525C43.2045 12.8991 43.273 13.1481 43.427 13.3449C43.5811 13.5416 43.808 13.6699 44.0579 13.7016L47.827 14.1788L46.6181 23.4769C46.586 23.7235 46.6546 23.9726 46.8086 24.1693C46.9626 24.3661 47.1896 24.4944 47.4395 24.526C47.6894 24.5577 47.9418 24.4901 48.1412 24.338C48.3406 24.186 48.4706 23.9621 48.5027 23.7155L49.8325 13.4875C49.8646 13.2409 49.796 12.9919 49.642 12.7951C49.488 12.5984 49.261 12.4701 49.0111 12.4384Z" fill="white"/>
<path d="M47.1981 26.3854C46.9482 26.3538 46.6958 26.4214 46.4964 26.5734C46.2971 26.7254 46.167 26.9493 46.135 27.1958L46.0141 28.1256C45.982 28.3722 46.0505 28.6212 46.2046 28.8179C46.3586 29.0147 46.5855 29.143 46.8354 29.1746C47.0853 29.2062 47.3377 29.1386 47.5371 28.9866C47.7365 28.8346 47.8665 28.6107 47.8986 28.3641L48.0195 27.4344C48.0515 27.1878 47.983 26.9388 47.829 26.7421C47.675 26.5453 47.448 26.417 47.1981 26.3854Z" fill="white"/>
<path d="M46.5939 31.0342C46.3439 31.0025 46.0915 31.0701 45.8922 31.2221C45.6928 31.3741 45.5627 31.5981 45.5307 31.8447L42.1456 57.8788C42.0815 58.372 41.8215 58.8198 41.4227 59.1238C41.0239 59.4278 40.5191 59.5631 40.0193 59.4998C39.5195 59.4365 39.0656 59.1799 38.7575 58.7864C38.4495 58.3929 38.3124 57.8948 38.3765 57.4016L38.6183 55.542C38.6504 55.2955 38.5819 55.0464 38.4278 54.8496C38.2738 54.6529 38.0469 54.5246 37.7969 54.493L1.99043 49.9599C1.74053 49.9282 1.48812 49.9958 1.28874 50.1478C1.08935 50.2998 0.959327 50.5238 0.927264 50.7704L0.685476 52.6299C0.557223 53.6163 0.831325 54.6126 1.44748 55.3995C2.06364 56.1865 2.97138 56.6997 3.97101 56.8263L35.0661 60.7629C35.316 60.7946 35.5685 60.7269 35.7678 60.5749C35.9672 60.4229 36.0972 60.199 36.1293 59.9524C36.1614 59.7058 36.0928 59.4568 35.9388 59.26C35.7848 59.0633 35.5578 58.935 35.3079 58.9033L4.21279 54.9667C3.71298 54.9034 3.25911 54.6468 2.95103 54.2533C2.64295 53.8598 2.5059 53.3617 2.57003 52.8685L2.69092 51.9387L36.6129 56.2333L36.492 57.163C36.3637 58.1494 36.6378 59.1457 37.254 59.9326C37.8702 60.7196 38.7779 61.2328 39.7775 61.3594C40.7771 61.4859 41.7868 61.2155 42.5843 60.6075C43.3818 59.9995 43.9019 59.1038 44.0302 58.1174L47.4152 32.0832C47.4473 31.8367 47.3788 31.5876 47.2247 31.3908C47.0707 31.1941 46.8438 31.0658 46.5939 31.0342Z" fill="white"/>
<path d="M38.4758 27.1712C38.7257 27.2028 38.9782 27.1352 39.1776 26.9833C39.3769 26.8313 39.507 26.6074 39.539 26.3609C39.5711 26.1143 39.5026 25.8653 39.3485 25.6686C39.1945 25.4719 38.9675 25.3437 38.7176 25.312L37.7753 25.1928C37.5254 25.1611 37.273 25.2287 37.0736 25.3807C36.8742 25.5327 36.7442 25.7565 36.7121 26.0031C36.68 26.2496 36.7486 26.4986 36.9026 26.6953C37.0567 26.892 37.2836 27.0203 37.5335 27.0519L38.4758 27.1712Z" fill="white"/>
<path d="M24.7757 36.778L32.3139 37.7324C32.5638 37.7641 32.8162 37.6965 33.0156 37.5444C33.215 37.3924 33.345 37.1685 33.3771 36.9219C33.4091 36.6753 33.3406 36.4262 33.1866 36.2295C33.0325 36.0327 32.8056 35.9044 32.5557 35.8728L25.0175 34.9184C24.7676 34.8867 24.5152 34.9544 24.3158 35.1064C24.1164 35.2584 23.9864 35.4823 23.9543 35.7289C23.9222 35.9755 23.9908 36.2246 24.1448 36.4213C24.2988 36.6181 24.5258 36.7464 24.7757 36.778Z" fill="white"/>
<path d="M37.0247 38.3287C37.2746 38.3604 37.527 38.2927 37.7264 38.1407C37.9258 37.9887 38.0558 37.7647 38.0879 37.5181C38.1199 37.2715 38.0514 37.0224 37.8974 36.8256C37.7433 36.6288 37.5164 36.5005 37.2665 36.4688L36.3241 36.3495C36.0742 36.3179 35.8218 36.3855 35.6224 36.5375C35.423 36.6896 35.293 36.9135 35.2609 37.1602C35.2289 37.4068 35.2974 37.6559 35.4514 37.8527C35.6055 38.0495 35.8324 38.1778 36.0823 38.2094L37.0247 38.3287Z" fill="white"/>
<path d="M23.5663 46.0756C23.3164 46.044 23.064 46.1116 22.8646 46.2636C22.6652 46.4156 22.5352 46.6395 22.5031 46.8861C22.4711 47.1327 22.5396 47.3818 22.6936 47.5786C22.8477 47.7753 23.0746 47.9036 23.3245 47.9353L30.8627 48.8897C31.1126 48.9213 31.365 48.8537 31.5644 48.7017C31.7638 48.5497 31.8938 48.3257 31.9259 48.0791C31.958 47.8325 31.8894 47.5834 31.7354 47.3867C31.5814 47.1899 31.3544 47.0616 31.1045 47.03L23.5663 46.0756Z" fill="white"/>
<path d="M34.874 47.5075C34.624 47.4758 34.3716 47.5434 34.1722 47.6954C33.9728 47.8474 33.8428 48.0712 33.8107 48.3178C33.7787 48.5643 33.8472 48.8133 34.0012 49.01C34.1553 49.2067 34.3822 49.335 34.6322 49.3666L35.5745 49.4859C35.8244 49.5175 36.0768 49.4499 36.2762 49.298C36.4756 49.146 36.6056 48.9221 36.6377 48.6756C36.6697 48.429 36.6012 48.18 36.4472 47.9833C36.2931 47.7866 36.0662 47.6583 35.8163 47.6267L34.874 47.5075Z" fill="white"/>
</svg>
