<svg width="56" height="48" viewBox="0 0 56 48" fill="none" xmlns="http://www.w3.org/2000/svg">
<path d="M52.5768 24.3367L55.0294 16.9304C55.3038 16.0999 55.2241 15.1986 54.8076 14.4245C54.391 13.6504 53.6718 13.0669 52.8079 12.802L48.2974 11.4312L45.5629 3.13101C45.2872 2.30083 44.6799 1.60973 43.8744 1.20949C43.0688 0.809251 42.1309 0.732594 41.2666 0.996357L27.7012 5.13563L14.1357 0.990939C13.2714 0.727176 12.3335 0.803833 11.528 1.20407C10.7224 1.60431 10.1151 2.29541 9.83947 3.12559L7.09368 11.4258L2.58315 12.7965C1.71922 13.0615 1.00002 13.645 0.583512 14.4191C0.167 15.1932 0.0872269 16.0944 0.361713 16.925L2.82559 24.3367L0.378628 31.7429C0.104141 32.5735 0.183914 33.4748 0.600426 34.2488C1.01694 35.0229 1.73613 35.6065 2.60006 35.8714L7.1106 37.2421L9.85638 45.5423C9.9916 45.9542 10.2102 46.3364 10.4996 46.6668C10.789 46.9973 11.1435 47.2695 11.5427 47.4678C11.942 47.6662 12.3781 47.7868 12.826 47.8227C13.2739 47.8586 13.7247 47.8091 14.1527 47.677L27.7012 43.5377L41.2666 47.6824C42.1309 47.9462 43.0688 47.8695 43.8744 47.4693C44.6799 47.069 45.2872 46.3779 45.5629 45.5478L48.3087 37.2475L52.8192 35.8768C53.6831 35.6119 54.4023 35.0283 54.8188 34.2542C55.2353 33.4802 55.3151 32.5789 55.0406 31.7484L52.5768 24.3367ZM51.9453 15.3809C52.0967 15.4281 52.2225 15.5309 52.2954 15.6669C52.3683 15.8029 52.3823 15.961 52.3343 16.1069L51.0939 19.8615L49.3517 14.5845L51.9453 15.3809ZM12.5289 3.94911C12.578 3.80363 12.685 3.6827 12.8265 3.61268C12.968 3.54265 13.1326 3.52921 13.2844 3.57528L23.0497 6.55512L10.3864 10.4235L12.5289 3.94911ZM3.45707 33.2925C3.30567 33.2452 3.17982 33.1424 3.10695 33.0065C3.03408 32.8705 3.02009 32.7123 3.06803 32.5665L4.30843 28.8119L6.05062 34.0889L3.45707 33.2925ZM42.8791 44.7242C42.83 44.8697 42.723 44.9906 42.5815 45.0607C42.44 45.1307 42.2754 45.1441 42.1236 45.0981L32.3583 42.1182L45.0216 38.2498L42.8791 44.7242ZM51.9453 33.2925L13.2844 45.0981C13.1326 45.1441 12.968 45.1307 12.8265 45.0607C12.685 44.9906 12.578 44.8697 12.5289 44.7242L3.06239 16.1069C3.0147 15.9603 3.02947 15.8015 3.10346 15.6654C3.17745 15.5293 3.30463 15.427 3.45707 15.3809L42.1236 3.56986C42.182 3.55209 42.2428 3.54295 42.304 3.54277C42.4002 3.54318 42.4948 3.56546 42.5803 3.60779C42.6513 3.64265 42.7143 3.69081 42.7656 3.74943C42.8169 3.80805 42.8555 3.87594 42.8791 3.94911L52.34 32.5665C52.3876 32.713 52.3729 32.8718 52.2989 33.0079C52.2249 33.144 52.0977 33.2464 51.9453 33.2925ZM32.2681 16.6703C32.7608 21.2068 31.3839 25.7482 28.4326 29.3205C25.4814 32.8928 21.1908 35.2115 16.4812 35.7793H16.3064C15.9326 35.8008 15.5652 35.6788 15.285 35.44C15.0048 35.2013 14.8348 34.8653 14.8123 34.5061C14.7899 34.1468 14.9169 33.7938 15.1654 33.5245C15.4139 33.2553 15.7635 33.0919 16.1373 33.0703C20.0969 32.5906 23.7056 30.6454 26.1957 27.6484C28.6859 24.6515 29.8612 20.8392 29.4716 17.0225L27.4024 19.5689C27.2883 19.7091 27.1467 19.8263 26.9855 19.9139C26.8244 20.0014 26.6468 20.0576 26.4631 20.0793C26.0919 20.1229 25.7179 20.0232 25.4234 19.8019C25.1288 19.5806 24.9377 19.2559 24.8923 18.8993C24.8468 18.5427 24.9506 18.1833 25.1809 17.9002L29.3475 12.764C29.4615 12.6238 29.6031 12.5066 29.7643 12.419C29.9255 12.3314 30.103 12.2752 30.2868 12.2536C30.4706 12.232 30.657 12.2453 30.8354 12.2929C31.0138 12.3405 31.1807 12.4215 31.3265 12.5311L36.6715 16.5349C36.8174 16.6445 36.9393 16.7806 37.0305 16.9354C37.1216 17.0903 37.1801 17.2609 37.2026 17.4375C37.2251 17.6141 37.2112 17.7932 37.1617 17.9646C37.1121 18.136 37.028 18.2964 36.9139 18.4366C36.7999 18.5767 36.6583 18.694 36.4971 18.7815C36.3359 18.8691 36.1584 18.9253 35.9746 18.9469C35.7909 18.9685 35.6045 18.9552 35.4261 18.9076C35.2477 18.86 35.0808 18.7791 34.9349 18.6695L32.2681 16.6703ZM14.9646 26.1788L15.861 23.9466L13.5381 23.0906C13.3641 23.0272 13.2048 22.9316 13.0693 22.8091C12.9337 22.6866 12.8246 22.5397 12.7482 22.3767C12.6717 22.2137 12.6295 22.0378 12.6238 21.8591C12.6181 21.6804 12.649 21.5024 12.7149 21.3352C12.7808 21.168 12.8804 21.0149 13.0078 20.8846C13.1353 20.7544 13.2882 20.6495 13.4578 20.5761C13.6275 20.5026 13.8105 20.462 13.9965 20.4565C14.1824 20.451 14.3677 20.4808 14.5417 20.5441L16.8646 21.4002L17.7554 19.168C17.9107 18.8618 18.1803 18.6231 18.5105 18.4993C18.8407 18.3756 19.2073 18.376 19.5373 18.5003C19.8673 18.6247 20.1363 18.8639 20.291 19.1704C20.4456 19.4769 20.4743 19.8281 20.3716 20.1541L19.4976 22.3862L21.8262 23.2531C21.9991 23.3168 22.1572 23.4125 22.2916 23.535C22.426 23.6574 22.5339 23.804 22.6093 23.9665C22.6847 24.129 22.7261 24.3042 22.731 24.482C22.7359 24.6599 22.7044 24.8369 22.6381 25.0031C22.5718 25.1692 22.4722 25.3212 22.3448 25.4503C22.2174 25.5794 22.0648 25.6831 21.8957 25.7556C21.7266 25.828 21.5443 25.8678 21.3592 25.8725C21.1741 25.8773 20.9899 25.8469 20.817 25.7832L18.494 24.9272L17.6032 27.1594C17.537 27.3255 17.4373 27.4775 17.3099 27.6066C17.1825 27.7357 17.0299 27.8395 16.8608 27.9119C16.6917 27.9844 16.5094 28.0241 16.3243 28.0288C16.1392 28.0336 15.955 28.0033 15.7821 27.9396C15.6092 27.8759 15.4511 27.7801 15.3167 27.6577C15.1823 27.5353 15.0744 27.3887 14.999 27.2262C14.9236 27.0637 14.8822 26.8885 14.8773 26.7106C14.8724 26.5328 14.9039 26.3557 14.9702 26.1896L14.9646 26.1788ZM43.7587 29.7112C43.6924 29.8774 43.5928 30.0294 43.4654 30.1585C43.338 30.2877 43.1854 30.3914 43.0163 30.4639C42.8472 30.5363 42.6649 30.5761 42.4798 30.5808C42.2947 30.5855 42.1104 30.5551 41.9375 30.4914L39.6146 29.6354L38.7181 31.8676C38.5843 32.2031 38.3173 32.4738 37.9757 32.6201C37.6342 32.7664 37.2462 32.7763 36.897 32.6477C36.5479 32.5191 36.2662 32.2625 36.1139 31.9343C35.9616 31.6061 35.9513 31.2333 36.0851 30.8977L36.976 28.671L34.653 27.8041C34.4801 27.7404 34.322 27.6447 34.1876 27.5223C34.0533 27.3999 33.9453 27.2532 33.8699 27.0907C33.7945 26.9282 33.7532 26.753 33.7482 26.5752C33.7433 26.3973 33.7749 26.2203 33.8411 26.0541C33.975 25.7186 34.242 25.4479 34.5835 25.3016C34.7527 25.2292 34.935 25.1894 35.12 25.1847C35.3051 25.18 35.4894 25.2103 35.6623 25.274L37.9852 26.13L38.876 23.8978C38.943 23.7313 39.0435 23.5792 39.1717 23.45C39.2999 23.3208 39.4534 23.2172 39.6232 23.145C39.7931 23.0728 39.9762 23.0334 40.1619 23.0292C40.3476 23.025 40.5323 23.056 40.7056 23.1204C40.8789 23.1847 41.0372 23.2813 41.1716 23.4045C41.3061 23.5277 41.4139 23.6751 41.4891 23.8384C41.5642 24.0016 41.6051 24.1775 41.6095 24.356C41.6139 24.5344 41.5817 24.712 41.5147 24.8785L40.6238 27.1106L42.9242 27.9612C43.0991 28.0228 43.2597 28.117 43.3965 28.2385C43.5333 28.3599 43.6437 28.5063 43.7212 28.669C43.7988 28.8317 43.8421 29.0076 43.8485 29.1865C43.8549 29.3654 43.8244 29.5437 43.7587 29.7112Z" fill="white"/>
</svg>
