<svg width="53" height="53" viewBox="0 0 53 53" fill="none" xmlns="http://www.w3.org/2000/svg">
<path d="M26.2421 19.0073C24.7899 19.0085 23.3707 19.4344 22.1638 20.2313C20.9569 21.0282 20.0166 22.1603 19.4616 23.4844C18.9067 24.8085 18.7621 26.2653 19.0461 27.6705C19.3301 29.0757 20.03 30.3662 21.0573 31.379C22.0846 32.3918 23.3931 33.0813 24.8175 33.3605C26.2418 33.6396 27.7181 33.4957 29.0596 32.9471C30.4012 32.3985 31.5478 31.4698 32.3544 30.2783C33.1611 29.0869 33.5917 27.6862 33.5917 26.2533C33.5886 24.3315 32.8131 22.4893 31.4353 21.131C30.0575 19.7726 28.1899 19.0089 26.2421 19.0073ZM26.2421 31.1861C25.2536 31.185 24.2876 30.8947 23.4662 30.352C22.6449 29.8093 22.005 29.0385 21.6275 28.137C21.25 27.2355 21.1519 26.2439 21.3454 25.2874C21.539 24.3309 22.0156 23.4525 22.715 22.7632C23.4144 22.0739 24.3052 21.6047 25.2748 21.4148C26.2444 21.225 27.2493 21.323 28.1625 21.6965C29.0757 22.07 29.8561 22.7023 30.4052 23.5134C30.9543 24.3244 31.2473 25.2779 31.2473 26.2533C31.2458 27.5621 30.7178 28.8168 29.7793 29.7417C28.8408 30.6666 27.5686 31.1861 26.2421 31.1861Z" fill="white"/>
<path d="M52.6675 17.6341L47.4794 8.88911C47.1848 8.38283 46.7139 7.99591 46.1519 7.79832C45.5898 7.60073 44.9737 7.60552 44.415 7.81183L38.5465 10.1162C37.4516 9.34579 36.2804 8.68385 35.0503 8.1402L34.157 2.07402C34.0778 1.49732 33.7854 0.968529 33.3346 0.586744C32.8837 0.204959 32.3053 -0.00361281 31.7079 0.000115936H21.2961C20.7018 -0.00558751 20.1257 0.199317 19.6751 0.57664C19.2245 0.953964 18.9302 1.47796 18.847 2.05098L17.9537 8.13444C16.7278 8.68241 15.5589 9.34412 14.4634 10.1104L8.58306 7.80607C8.03084 7.59553 7.41912 7.58625 6.86044 7.77995C6.30176 7.97365 5.83369 8.35729 5.54235 8.8603L0.336456 17.6283C0.0364826 18.1309 -0.067626 18.7219 0.0431781 19.2932C0.153982 19.8644 0.472291 20.3777 0.939867 20.7392L5.90913 24.5241C5.7559 25.8352 5.7559 27.1591 5.90913 28.4702L0.933951 32.2609C0.472841 32.6258 0.160115 33.1386 0.0517281 33.7075C-0.0566585 34.2764 0.0463676 34.8643 0.342372 35.366L5.53643 44.1109C5.83118 44.6185 6.30307 45.0064 6.86643 45.204C7.42979 45.4017 8.04726 45.3961 8.60673 45.1882L14.4752 42.8839C15.5702 43.6541 16.7414 44.316 17.9714 44.8599L18.847 50.926C18.9261 51.5027 19.2185 52.0315 19.6694 52.4133C20.1203 52.7951 20.6986 53.0037 21.2961 52.9999H31.7079C32.3011 53.0042 32.8758 52.7987 33.3252 52.4215C33.7745 52.0443 34.068 51.5211 34.1511 50.9491L35.0444 44.8714C36.2703 44.3234 37.4391 43.6617 38.5347 42.8954L44.415 45.1997C44.9671 45.4115 45.5793 45.4214 46.1383 45.2276C46.6973 45.0338 47.1653 44.6494 47.4557 44.1455L52.6734 35.3487C52.965 34.8474 53.0639 34.2614 52.9522 33.6956C52.8406 33.1298 52.5257 32.6212 52.0641 32.2609L47.0948 28.476C47.2464 27.1647 47.2464 25.8411 47.0948 24.5298L52.07 20.7392C52.5331 20.3758 52.8477 19.8633 52.9573 19.294C53.0668 18.7248 52.9641 18.1361 52.6675 17.6341ZM50.6029 18.9245L45.1131 23.1069C44.9525 23.2296 44.8273 23.3906 44.7496 23.5743C44.6718 23.758 44.6442 23.9582 44.6694 24.1554C44.8999 25.7085 44.8999 27.2858 44.6694 28.8389C44.6442 29.0361 44.6718 29.2363 44.7496 29.42C44.8273 29.6037 44.9525 29.7647 45.1131 29.8874L50.6029 34.064C50.6179 34.0852 50.626 34.1103 50.626 34.136C50.626 34.1618 50.6179 34.1869 50.6029 34.208L45.4266 43.0106C45.4166 43.0285 45.4004 43.0423 45.3809 43.0497C45.3614 43.0571 45.3399 43.0575 45.3201 43.0509L38.8127 40.5162C38.6235 40.4422 38.4179 40.4171 38.2157 40.4434C38.0136 40.4696 37.8219 40.5463 37.6592 40.666C36.3876 41.6154 34.9958 42.4015 33.5181 43.0049C33.3273 43.0812 33.1603 43.2049 33.0337 43.3636C32.907 43.5222 32.8253 43.7104 32.7964 43.9093L31.8203 50.638C31.8117 50.6566 31.7975 50.6721 31.7794 50.6824C31.7614 50.6928 31.7405 50.6974 31.7197 50.6956H21.2961C21.2718 50.699 21.2472 50.693 21.2273 50.6791C21.2075 50.6651 21.194 50.6442 21.1896 50.6207L20.2017 43.9035C20.1728 43.7046 20.091 43.5165 19.9644 43.3578C19.8378 43.1991 19.6708 43.0755 19.4799 42.9991C18.0004 42.4139 16.6078 41.6389 15.3389 40.6948C15.1735 40.569 14.9768 40.4883 14.7689 40.461C14.561 40.4337 14.3494 40.4607 14.1557 40.5392L7.74894 43.0337C7.7202 43.0437 7.68882 43.0441 7.65985 43.0347C7.63088 43.0253 7.606 43.0067 7.58921 42.9818L2.39515 34.2368C2.37782 34.2133 2.36849 34.1851 2.36849 34.1562C2.36849 34.1273 2.37782 34.099 2.39515 34.0755L7.885 29.8932C8.04552 29.7705 8.17073 29.6095 8.24848 29.4258C8.32622 29.242 8.35385 29.0419 8.32869 28.8447C8.2213 28.0674 8.164 27.2843 8.15713 26.5C8.16424 25.7177 8.22154 24.9365 8.32869 24.1611C8.35385 23.9639 8.32622 23.7638 8.24848 23.58C8.17073 23.3963 8.04552 23.2353 7.885 23.1126L2.40107 18.9303C2.38191 18.9109 2.3712 18.8851 2.3712 18.8583C2.3712 18.8314 2.38191 18.8056 2.40107 18.7862L7.61879 9.98943C7.62882 9.97157 7.645 9.95774 7.66448 9.95036C7.68396 9.94298 7.70549 9.94254 7.72528 9.9491L14.2326 12.4839C14.4219 12.5578 14.6275 12.5829 14.8296 12.5567C15.0318 12.5304 15.2235 12.4537 15.3862 12.3341C16.6579 11.3849 18.0497 10.5988 19.5273 9.99519C19.7181 9.91881 19.8851 9.79515 20.0117 9.63649C20.1383 9.47783 20.2201 9.28969 20.249 9.09074L21.1719 2.36206C21.1719 2.36206 21.2133 2.30446 21.2724 2.30446H31.6842C31.7085 2.3011 31.7331 2.30702 31.753 2.32099C31.7728 2.33495 31.7864 2.35587 31.7907 2.37935L32.7786 9.0965C32.8075 9.29545 32.8893 9.48359 33.0159 9.64225C33.1425 9.80091 33.3095 9.92457 33.5004 10.001C34.9799 10.5861 36.3726 11.3611 37.6414 12.3053C37.8068 12.431 38.0035 12.5117 38.2114 12.539C38.4193 12.5664 38.6309 12.5394 38.8246 12.4608L45.255 9.96639C45.2839 9.9573 45.3149 9.95744 45.3436 9.96677C45.3724 9.97609 45.3973 9.99413 45.4148 10.0182L50.6088 18.7632C50.6253 18.7873 50.6336 18.8158 50.6325 18.8448C50.6315 18.8737 50.6211 18.9016 50.6029 18.9245Z" fill="white"/>
<path d="M26.2423 10.5925C23.1035 10.5937 20.0356 11.5131 17.4263 13.2347C14.8171 14.9562 12.7838 17.4025 11.5834 20.2642C10.383 23.126 10.0696 26.2746 10.6826 29.3122C11.2957 32.3497 12.8077 35.1396 15.0276 37.3292C17.2475 39.5189 20.0755 41.0098 23.154 41.6136C26.2326 42.2175 29.4234 41.907 32.3232 40.7215C35.2229 39.536 37.7013 37.5287 39.445 34.9534C41.1887 32.3781 42.1194 29.3505 42.1194 26.2533C42.1147 22.1002 40.4403 18.1186 37.4636 15.1825C34.4869 12.2464 30.4512 10.5956 26.2423 10.5925ZM26.2423 39.6067C23.5674 39.6055 20.953 38.8219 18.7294 37.3548C16.5058 35.8877 14.7729 33.803 13.7499 31.3643C12.7268 28.9256 12.4594 26.2424 12.9815 23.6537C13.5036 21.0651 14.7918 18.6873 16.6832 16.821C18.5746 14.9546 20.9844 13.6835 23.6078 13.1683C26.2312 12.6531 28.9505 12.917 31.422 13.9265C33.8934 14.936 36.0061 16.6459 37.4929 18.84C38.9797 21.0341 39.7739 23.6139 39.775 26.2533C39.7704 29.7929 38.3429 33.1861 35.8059 35.6884C33.2689 38.1908 29.8294 39.5978 26.2423 39.6009V39.6067Z" fill="white"/>
</svg>
