<svg width="14" height="14" viewBox="0 0 14 14" fill="none" xmlns="http://www.w3.org/2000/svg">
<path d="M9.62547 8.49997H9.03297L8.82297 8.29747C9.72297 7.24747 10.188 5.81497 9.93297 4.29247C9.58047 2.20747 7.84047 0.542473 5.74047 0.287473C2.56797 -0.102527 -0.102031 2.56747 0.287969 5.73997C0.542969 7.83997 2.20797 9.57997 4.29297 9.93247C5.81547 10.1875 7.24797 9.72247 8.29797 8.82247L8.50047 9.03247V9.62497L11.688 12.8125C11.9955 13.12 12.498 13.12 12.8055 12.8125C13.113 12.505 13.113 12.0025 12.8055 11.695L9.62547 8.49997ZM5.12547 8.49997C3.25797 8.49997 1.75047 6.99247 1.75047 5.12497C1.75047 3.25747 3.25797 1.74997 5.12547 1.74997C6.99297 1.74997 8.50047 3.25747 8.50047 5.12497C8.50047 6.99247 6.99297 8.49997 5.12547 8.49997Z" fill="#7A7A7A"/>
</svg>
