<svg width="34" height="51" viewBox="0 0 34 51" fill="none" xmlns="http://www.w3.org/2000/svg">
<path d="M30.92 44.9074C31.732 43.6536 32.254 42.4568 32.66 41.431C36.372 31.8568 30.688 23.1375 30.456 22.8525C30.166 31.6289 24.076 33.8515 23.728 33.9655C23.96 33.6805 28.658 27.9246 28.194 16.6977C27.73 5.86975 17.986 0.512764 16.884 -0.0571289C17.812 0.512764 18.218 2.62137 18.218 2.62137C19.9 10.087 10.91 17.0966 10.91 17.0966C-12.638 38.7525 9.57602 49.9794 10.098 50.2644C9.86602 49.8654 2.73202 35.9031 14.912 28.1525C14.854 28.3805 13.52 32.1418 19.262 38.9805C19.262 38.9805 22.046 42.5138 20.828 47.8708C21.002 47.7568 24.598 45.5343 24.134 40.2913C24.366 40.5192 28.136 45.3633 25.874 50.2074C26.164 50.0364 29.76 47.073 30.92 44.9074Z"/>
</svg>
