<svg width="35" height="35" viewBox="0 0 35 35" fill="none" xmlns="http://www.w3.org/2000/svg">
<rect width="35" height="35" rx="17.5"/>
<path d="M27.2168 25.7432C26.0684 25.7158 24.9473 25.7158 23.7988 25.7432C23.5527 25.7432 23.4981 25.6885 23.4981 25.4424C23.4981 23.419 23.4981 21.3682 23.4981 19.3447C23.4981 18.8799 23.4707 18.415 23.334 17.9775C22.9238 16.5557 21.2832 16.0361 20.1074 16.9932C19.4785 17.4854 19.2324 18.169 19.2324 18.9893C19.2324 20.9033 19.2324 22.8174 19.2324 24.7315C19.2324 24.9775 19.2051 25.2236 19.2324 25.4971C19.2598 25.7158 19.1504 25.7705 18.959 25.7432C17.7832 25.7432 16.6348 25.7432 15.459 25.7432C15.2402 25.7432 15.1855 25.6885 15.1855 25.4697C15.2129 23.7471 15.2129 22.0244 15.2129 20.2744C15.2129 18.1416 15.2129 16.0088 15.1855 13.9033C15.1855 13.6572 15.2402 13.6025 15.459 13.6025C16.6348 13.6025 17.7832 13.6025 18.959 13.6025C19.1777 13.6025 19.2324 13.6572 19.2324 13.876C19.2324 14.3135 19.2324 14.751 19.2324 15.2705C19.3145 15.1885 19.3418 15.1611 19.3691 15.1338C20.4356 13.5752 21.9395 13.1377 23.7168 13.4111C25.7676 13.7393 27.0801 15.1611 27.4082 17.3486C27.4902 17.8682 27.5176 18.3877 27.5176 18.9072C27.5176 21.0947 27.5176 23.2549 27.5176 25.4424C27.5176 25.6611 27.4629 25.7432 27.2168 25.7432Z" fill="#F4F4F4"/>
<path d="M12.9981 19.6729C12.9981 21.5869 12.9981 23.501 12.9981 25.415C12.9981 25.6611 12.9434 25.7432 12.6973 25.7432C11.5488 25.7158 10.4004 25.7432 9.25195 25.7432C9.0332 25.7432 8.97852 25.6885 8.97852 25.4697C8.97852 21.6143 8.97852 17.7314 8.97852 13.876C8.97852 13.6846 9.0332 13.6025 9.25195 13.6025C10.4277 13.6025 11.6035 13.6025 12.7793 13.6025C13.0254 13.6025 13.0527 13.6846 13.0527 13.9033C12.9981 15.8174 12.9981 17.7314 12.9981 19.6729Z" fill="#F4F4F4"/>
<path d="M13.1888 10.4308C12.9154 11.5245 11.7943 12.1534 10.5092 11.9347C9.14197 11.7159 8.37634 10.3761 8.86853 9.06358C9.19666 8.24327 9.98963 7.75108 11.0013 7.77843C12.5326 7.75108 13.5443 8.98155 13.1888 10.4308Z" fill="#F4F4F4"/>
</svg>