<svg width="2351" class="scene" height="2751" viewBox="0 0 2351 2751" fill="none" xmlns="http://www.w3.org/2000/svg">
<path opacity="0.6" class="line-path" data-depth="-0.3" d="M2161.47 249.889C1815.04 262.937 1104.06 482.417 1031.65 1255.95C959.238 2029.49 314.378 2385.07 0.999762 2466.17" stroke="#828282" stroke-opacity="0.1"/>
<path opacity="0.6" class="line-path" data-depth="-0.3" d="M2206.53 257.467C1860.09 270.537 1149.09 490.113 1076.6 1263.86C1004.12 2037.61 359.217 2393.33 45.8262 2474.46" stroke="#828282" stroke-opacity="0.1"/>
<path opacity="0.6" class="line-path" data-depth="-0.3" d="M2252.31 265.938C1905.87 279.007 1194.87 498.583 1122.38 1272.33C1049.9 2046.08 404.996 2401.8 91.6055 2482.93" stroke="#828282" stroke-opacity="0.1"/>
<path opacity="0.6" class="line-path" data-depth="-0.3" d="M2299.04 274.585C1952.6 287.655 1241.6 507.231 1169.12 1280.98C1096.63 2054.73 451.73 2410.44 138.339 2491.58" stroke="#828282" stroke-opacity="0.1"/>
<path opacity="0.6" class="line-path" data-depth="-0.3" d="M2350.55 284.115C2004.1 297.184 1293.1 516.76 1220.62 1290.51C1148.13 2064.26 503.232 2419.97 189.841 2501.11" stroke="#828282" stroke-opacity="0.1"/>
</svg>
