<svg width="1733" height="1222" viewBox="0 0 1733 1222" fill="none" xmlns="http://www.w3.org/2000/svg">
<path opacity="0.1" class="line-path" d="M39 114.114C124 127.614 930.5 -47.3861 1177 451.114C1374.2 849.914 1630.17 1036.95 1733.5 1080.61" stroke="black"/>
<path opacity="0.1" class="line-path" d="M125.421 191.827C404.921 126.328 809.421 147.83 1026.4 426.978C1216.48 671.514 1160.21 911.339 1315.42 1082.33C1462.92 1244.83 1711.5 1217 1734.5 1055" stroke="black"/>
<path opacity="0.1" class="line-path" d="M82 87.9999C326.167 4.1666 764.826 -70.3099 1124 120.5C1220 171.5 1435.83 390.086 1514 504C1613.5 649 1622 882.5 1485 1050C1287.57 1291.38 942.486 1020.86 1068.5 778C1206 513 1775.5 572 1759.5 926.5" stroke="black"/>
</svg>
