<svg width="1840" height="1516" viewBox="0 0 1840 1516" fill="none" xmlns="http://www.w3.org/2000/svg">
<path opacity="0.2" class="line-path" d="M1751.5 1.39416C1555.5 -6.27251 1136.2 94.9942 1027 561.394C890.5 1144.39 527 1377.39 1 1443.39" stroke="#C4C4C4"/>
<path opacity="0.2" class="line-path" d="M1777 18.7882C1581 11.1215 1161.7 112.388 1052.5 578.788C916 1161.79 552.5 1394.79 26.5 1460.79" stroke="#C4C4C4"/>
<path opacity="0.2" class="line-path" d="M1797 37.7882C1601 30.1215 1181.7 131.388 1072.5 597.788C936 1180.79 572.5 1413.79 46.5 1479.79" stroke="#C4C4C4"/>
<path opacity="0.2" class="line-path" d="M1820 54.7882C1624 47.1215 1204.7 148.388 1095.5 614.788C959 1197.79 595.5 1430.79 69.5 1496.79" stroke="#C4C4C4"/>
<path opacity="0.2" class="line-path" d="M1839 72.7882C1643 65.1215 1223.7 166.388 1114.5 632.788C978 1215.79 614.5 1448.79 88.5 1514.79" stroke="#C4C4C4"/>
</svg>
