<svg width="12" height="12" viewBox="0 0 12 12" fill="none" xmlns="http://www.w3.org/2000/svg">
<path d="M10.0837 3.66667H9.50033V0.75H2.50033V3.66667H1.91699C0.948659 3.66667 0.166992 4.44833 0.166992 5.41667V8.91667H2.50033V11.25H9.50033V8.91667H11.8337V5.41667C11.8337 4.44833 11.052 3.66667 10.0837 3.66667ZM3.66699 1.91667H8.33366V3.66667H3.66699V1.91667ZM8.33366 8.91667V10.0833H3.66699V7.75H8.33366V8.91667ZM9.50033 7.75V6.58333H2.50033V7.75H1.33366V5.41667C1.33366 5.09583 1.59616 4.83333 1.91699 4.83333H10.0837C10.4045 4.83333 10.667 5.09583 10.667 5.41667V7.75H9.50033Z" fill="#B0B2B8"/>
<path d="M9.50033 6.29167C9.82249 6.29167 10.0837 6.0305 10.0837 5.70833C10.0837 5.38617 9.82249 5.125 9.50033 5.125C9.17816 5.125 8.91699 5.38617 8.91699 5.70833C8.91699 6.0305 9.17816 6.29167 9.50033 6.29167Z" fill="#B0B2B8"/>
</svg>
