<svg width="11" height="11" viewBox="0 0 11 11" fill="none" xmlns="http://www.w3.org/2000/svg">
<path d="M2.5425 1.70833C2.575 2.19042 2.65625 2.66167 2.78625 3.11125L2.13625 3.76125C1.91417 3.11125 1.77333 2.42333 1.72458 1.70833H2.5425ZM7.88333 8.21917C8.34375 8.34917 8.815 8.43042 9.29167 8.46292V9.27C8.57667 9.22125 7.88875 9.08042 7.23333 8.86375L7.88333 8.21917ZM3.0625 0.625H1.16667C0.86875 0.625 0.625 0.86875 0.625 1.16667C0.625 6.25292 4.74708 10.375 9.83333 10.375C10.1313 10.375 10.375 10.1313 10.375 9.83333V7.94292C10.375 7.645 10.1313 7.40125 9.83333 7.40125C9.16167 7.40125 8.50625 7.29292 7.89958 7.0925C7.84542 7.07083 7.78583 7.06542 7.73167 7.06542C7.59083 7.06542 7.45542 7.11958 7.34708 7.2225L6.15542 8.41417C4.6225 7.62875 3.36583 6.3775 2.58583 4.84458L3.7775 3.65292C3.92917 3.50125 3.9725 3.29 3.91292 3.10042C3.7125 2.49375 3.60417 1.84375 3.60417 1.16667C3.60417 0.86875 3.36042 0.625 3.0625 0.625Z" fill="#B0B2B8"/>
</svg>
