<svg width="11" height="15" viewBox="0 0 11 15" fill="none" xmlns="http://www.w3.org/2000/svg">
<path d="M5.50033 0.416748C2.75908 0.416748 0.541992 2.63383 0.541992 5.37508C0.541992 9.09383 5.50033 14.5834 5.50033 14.5834C5.50033 14.5834 10.4587 9.09383 10.4587 5.37508C10.4587 2.63383 8.24158 0.416748 5.50033 0.416748ZM1.95866 5.37508C1.95866 3.42008 3.54533 1.83341 5.50033 1.83341C7.45533 1.83341 9.04199 3.42008 9.04199 5.37508C9.04199 7.41508 7.00199 10.468 5.50033 12.3734C4.02699 10.4822 1.95866 7.39383 1.95866 5.37508Z" fill="#A4A3AD"/>
<path d="M5.50033 7.14591C6.47833 7.14591 7.27116 6.35309 7.27116 5.37508C7.27116 4.39708 6.47833 3.60425 5.50033 3.60425C4.52232 3.60425 3.72949 4.39708 3.72949 5.37508C3.72949 6.35309 4.52232 7.14591 5.50033 7.14591Z" fill="#A4A3AD"/>
</svg>
