<svg width="11" height="11" viewBox="0 0 11 11" fill="none" xmlns="http://www.w3.org/2000/svg">
<path d="M5.20257 0.0834961C2.39533 0.0834961 0.12207 2.51016 0.12207 5.50016C0.12207 8.49016 2.39533 10.9168 5.20257 10.9168C8.0149 10.9168 10.2932 8.49016 10.2932 5.50016C10.2932 2.51016 8.0149 0.0834961 5.20257 0.0834961ZM5.20766 9.8335C2.95983 9.8335 1.13919 7.89433 1.13919 5.50016C1.13919 3.106 2.95983 1.16683 5.20766 1.16683C7.45549 1.16683 9.27613 3.106 9.27613 5.50016C9.27613 7.89433 7.45549 9.8335 5.20766 9.8335ZM5.46194 2.79183H4.6991V6.04183L7.36903 7.74808L7.75045 7.08183L5.46194 5.63558V2.79183Z"/>
</svg>
