<svg width="13" height="10" viewBox="0 0 13 10" fill="none" xmlns="http://www.w3.org/2000/svg">
<path d="M6.3897 1.79167C8.4654 1.79167 10.3166 3.03417 11.2202 5C10.3166 6.96583 8.47088 8.20833 6.3897 8.20833C4.30852 8.20833 2.46284 6.96583 1.55917 5C2.46284 3.03417 4.314 1.79167 6.3897 1.79167ZM6.3897 0.625C3.65131 0.625 1.31272 2.43917 0.365234 5C1.31272 7.56083 3.65131 9.375 6.3897 9.375C9.12809 9.375 11.4667 7.56083 12.4142 5C11.4667 2.43917 9.12809 0.625 6.3897 0.625ZM6.3897 3.54167C7.1455 3.54167 7.7589 4.195 7.7589 5C7.7589 5.805 7.1455 6.45833 6.3897 6.45833C5.6339 6.45833 5.0205 5.805 5.0205 5C5.0205 4.195 5.6339 3.54167 6.3897 3.54167ZM6.3897 2.375C5.03146 2.375 3.92515 3.55333 3.92515 5C3.92515 6.44667 5.03146 7.625 6.3897 7.625C7.74794 7.625 8.85425 6.44667 8.85425 5C8.85425 3.55333 7.74794 2.375 6.3897 2.375Z"/>
</svg>
