<svg width="15" height="15" viewBox="0 0 15 15" fill="none" xmlns="http://www.w3.org/2000/svg">
<path d="M14.6637 11.8545L12.3472 9.53777C11.8858 9.07822 11.1217 9.09218 10.6442 9.56983L9.47715 10.7366C9.40342 10.696 9.3271 10.6536 9.24686 10.6085C8.50987 10.2002 7.50117 9.64046 6.43972 8.57824C5.37513 7.51378 4.8149 6.50352 4.4053 5.76606C4.36207 5.68793 4.32066 5.6126 4.27976 5.54106L5.06304 4.75895L5.44813 4.37339C5.92634 3.89505 5.93953 3.13116 5.4792 2.67027L3.16268 0.35324C2.70235 -0.107003 1.93791 -0.0930407 1.45969 0.385302L0.80682 1.04192L0.824661 1.05964C0.605744 1.33897 0.42281 1.66114 0.286676 2.00857C0.161186 2.33927 0.0830571 2.65485 0.0473322 2.97107C-0.258549 5.50689 0.900248 7.82444 4.04507 10.9693C8.39218 15.3161 11.8954 14.9877 12.0465 14.9717C12.3757 14.9324 12.6911 14.8537 13.0117 14.7292C13.3561 14.5947 13.678 14.412 13.9572 14.1936L13.9715 14.2062L14.6329 13.5586C15.1101 13.0803 15.1238 12.3162 14.6637 11.8545Z" fill="#007CC2"/>
</svg>
