<svg class="path-animation" width="130" height="130" viewBox="0 0 130 130" fill="none" xmlns="http://www.w3.org/2000/svg">
<path class="path-ok" d="M38.2696 53.6602C36.9736 52.2022 34.5436 52.0402 33.0856 53.3362C31.6276 54.6322 31.4656 57.0622 32.7616 58.5202L59.4916 88.3282C60.1396 89.1382 61.1116 89.6242 62.0836 89.6242C62.0836 89.6242 62.0836 89.6242 62.2456 89.6242C63.2176 89.6242 64.1896 89.1382 64.8376 88.4902L124.454 28.8742C125.912 27.4162 125.912 25.1482 124.454 23.6902C122.996 22.2322 120.728 22.2322 119.27 23.6902L62.2456 80.7142L38.2696 53.6602Z" fill="none"/>
<path class="path-ok" d="M128.666 53.3362C128.18 51.2302 126.398 50.0962 124.454 50.4202C122.348 50.9062 121.214 52.6882 121.538 54.6322C122.186 58.0342 122.51 61.5982 122.51 65.1622C122.51 96.7522 96.7522 122.672 65.0002 122.672C33.2482 122.672 7.4902 96.5902 7.4902 65.0002C7.4902 33.4102 33.4102 7.4902 65.0002 7.4902C77.1502 7.4902 88.9762 11.2162 98.6962 18.5062C100.316 19.8022 102.584 19.3162 103.88 17.6962C105.176 16.0762 104.69 13.8082 103.07 12.5122C91.8922 4.5742 78.7702 0.200195 65.0002 0.200195C29.1982 0.200195 0.200195 29.1982 0.200195 65.0002C0.200195 100.802 29.1982 129.8 65.0002 129.8C100.802 129.8 129.8 100.802 129.8 65.0002C129.8 61.1122 129.314 57.0622 128.666 53.3362Z" fill="none"/>
</svg>
