<svg width="128" height="121" viewBox="0 0 128 121" fill="none" xmlns="http://www.w3.org/2000/svg">
<path d="M76.5176 25.3333V12.6667H51.1843V25.3333H76.5176ZM13.1842 38V107.667H114.518V38H13.1842ZM114.518 25.3333C121.548 25.3333 127.184 30.97 127.184 38V107.667C127.184 114.697 121.548 120.333 114.518 120.333H13.1842C6.15425 120.333 0.517578 114.697 0.517578 107.667L0.580911 38C0.580911 30.97 6.15425 25.3333 13.1842 25.3333H38.5176V12.6667C38.5176 5.63667 44.1543 0 51.1843 0H76.5176C83.5476 0 89.1843 5.63667 89.1843 12.6667V25.3333H114.518Z" fill="white"/>
</svg>
