<svg width="147" height="147" viewBox="0 0 147 147" fill="none" xmlns="http://www.w3.org/2000/svg">
<path fill-rule="evenodd" clip-rule="evenodd" d="M26.9902 87.8133C26.3242 90.0539 23.2161 90.9502 17 90.5021C32.9843 79.971 45.8605 68.3195 57.6267 54.2033C60.9568 59.3568 63.1768 61.8216 64.2868 62.0456C71.391 58.2365 77.3851 52.1867 83.1572 43C87.3752 50.6183 91.3713 55.0996 95.5894 57.1162C98.2534 58.4606 101.139 57.3402 104.47 53.3071C111.574 64.0622 119.122 72.1286 128.224 78.4025C118.9 75.9378 111.13 71.6805 103.804 65.1826C111.574 76.1618 120.232 84.9004 130 92.5187C115.57 84.9004 102.472 76.3859 89.5953 65.4066C87.8193 63.6141 85.8212 59.5809 83.8232 52.6349C81.8251 60.029 79.8271 64.7344 77.1631 67.1992C84.2672 73.9212 90.9273 78.4025 98.0314 81.5394C92.9253 82.4357 88.0413 82.2116 83.1572 79.971C88.7073 87.1411 94.0354 92.5187 99.5855 97C86.4872 87.1411 73.611 76.61 59.4027 63.6141C57.4047 70.7842 54.0747 75.7137 49.1906 78.8506C52.2986 84.4523 53.8527 88.4855 53.8527 91.3983C51.8546 90.0539 48.3026 87.5892 42.9745 83.556C43.8625 84.9004 42.9745 84.9004 39.8664 83.556C42.3084 89.1577 42.7525 93.1909 41.4204 96.5519C38.7564 94.7593 34.0943 92.0705 26.9902 87.8133Z" fill="#005889"/>
<circle class="getlength preload__svg" cx="73.5" cy="73.5" r="72" fill="transparent" stroke="#005889" stroke-width="3"/>
</svg>
