<svg width="68" height="59" viewBox="0 0 68 59" fill="none" xmlns="http://www.w3.org/2000/svg">
<path d="M44.2955 46.0319C45.0035 44.5445 45.3958 42.9183 45.3958 41.267C45.3958 34.9406 40.0619 29.7928 33.5066 29.7928C26.9513 29.7928 21.6173 34.9406 21.6173 41.267C21.6173 42.9193 22.0096 44.5455 22.7187 46.0309L16.5298 52.0037C16.2207 52.3021 16.1277 52.7506 16.2952 53.1407C16.4617 53.5308 16.8573 53.7843 17.2939 53.7843H21.6173V57.9567C21.6173 58.3782 21.8799 58.7599 22.2842 58.9206C22.4182 58.9748 22.5587 58.9999 22.6981 58.9999C22.9792 58.9999 23.2559 58.8935 23.4623 58.6942L30.1311 52.2583C31.2206 52.5722 32.3511 52.7412 33.5066 52.7412C34.6641 52.7412 35.7958 52.5722 36.882 52.2583L43.5508 58.6942C43.7573 58.8935 44.034 58.9999 44.315 58.9999C44.4544 58.9999 44.5949 58.9748 44.7289 58.9206C45.1332 58.7599 45.3958 58.3782 45.3958 57.9567V53.7843H49.7192C50.1558 53.7843 50.5514 53.5308 50.7179 53.1407C50.8854 52.7506 50.7925 52.3021 50.4833 52.0037L44.2955 46.0319ZM22.6981 51.6981H19.9031L23.8287 47.9095C24.9074 49.3761 26.3233 50.5695 27.9608 51.4029L23.779 55.4387V52.7412C23.779 52.1644 23.2958 51.6981 22.6981 51.6981ZM30.197 50.0907C27.9662 49.3167 26.1082 47.776 24.9647 45.7513C24.1886 44.388 23.779 42.8379 23.779 41.267C23.779 36.0901 28.1423 31.8791 33.5066 31.8791C38.8708 31.8791 43.2341 36.0901 43.2341 41.267C43.2341 42.8379 42.8245 44.388 42.0474 45.7545C40.9049 47.776 39.048 49.3167 36.8085 50.0938C34.7063 50.8396 32.3133 50.8428 30.197 50.0907ZM44.315 51.6981C43.7173 51.6981 43.2341 52.1644 43.2341 52.7412V55.4387L39.0524 51.4029C40.6931 50.5674 42.1068 49.3751 43.1855 47.9106L47.11 51.6981H44.315Z" fill="#525C77"/>
<path d="M37.7195 47.729C37.9432 47.729 38.1659 47.6622 38.355 47.5297C38.6879 47.2961 38.8544 46.9007 38.7841 46.5096L38.0762 42.5217L41.0798 39.6969C41.3738 39.4194 41.4798 39.0053 41.3533 38.6287C41.2258 38.2511 40.8875 37.9757 40.48 37.9184L36.3306 37.3363L34.4737 33.7072C34.1106 32.9937 32.899 32.9937 32.5358 33.7072L30.6789 37.3363L26.5296 37.9184C26.1221 37.9757 25.7849 38.2501 25.6562 38.6287C25.5298 39.0053 25.6346 39.4205 25.9297 39.6969L28.9334 42.5217L28.2254 46.5096C28.1562 46.9007 28.3227 47.2961 28.6545 47.5297C28.9896 47.7655 29.4295 47.7947 29.7937 47.609L33.5064 45.7262L37.2169 47.609C37.3747 47.6893 37.5477 47.729 37.7195 47.729ZM34.0101 43.6253C33.8523 43.545 33.6793 43.5053 33.5064 43.5053C33.3335 43.5053 33.1616 43.545 33.0027 43.6253L30.7286 44.779L31.162 42.3329C31.2226 41.9949 31.1058 41.6496 30.8518 41.4097L29.0101 39.6781L31.5544 39.3214C31.9067 39.2723 32.2105 39.0585 32.3683 38.7508L33.5064 36.5258L34.6456 38.7518C34.8034 39.0595 35.1071 39.2734 35.4595 39.3224L38.0038 39.6792L36.162 41.4107C35.908 41.6496 35.7913 41.9959 35.8518 42.3339L36.2852 44.78L34.0101 43.6253Z" fill="#525C77"/>
<path d="M22.0425 30.2034C21.6199 30.6113 21.6199 31.2705 22.0425 31.6783C22.4652 32.0862 23.1482 32.0862 23.5708 31.6783C29.0485 26.392 37.9633 26.392 43.4421 31.6783C43.6528 31.8817 43.9295 31.984 44.2062 31.984C44.4829 31.984 44.7596 31.8817 44.9704 31.6783C45.393 31.2705 45.393 30.6113 44.9704 30.2034C38.6496 24.1024 28.3622 24.1024 22.0425 30.2034Z" fill="#525C77"/>
<path d="M6.48535 14.1465C6.48535 14.7224 6.96849 15.1899 7.56619 15.1899H59.4465C60.0442 15.1899 60.5274 14.7224 60.5274 14.1465C60.5274 13.5706 60.0442 13.1031 59.4465 13.1031H7.56619C6.96849 13.1031 6.48535 13.5706 6.48535 14.1465Z" fill="#525C77"/>
<path d="M7.56619 19.3623H59.4465C60.0442 19.3623 60.5274 18.895 60.5274 18.3192C60.5274 17.7433 60.0442 17.276 59.4465 17.276H7.56619C6.96849 17.276 6.48535 17.7433 6.48535 18.3192C6.48535 18.895 6.96849 19.3623 7.56619 19.3623Z" fill="#525C77"/>
<path d="M18.3748 23.5346H48.6383C49.236 23.5346 49.7191 23.0672 49.7191 22.4912C49.7191 21.9153 49.236 21.4479 48.6383 21.4479H18.3748C17.7771 21.4479 17.2939 21.9153 17.2939 22.4912C17.2939 23.0672 17.7771 23.5346 18.3748 23.5346Z" fill="#525C77"/>
<path d="M48.6383 11.0171C49.236 11.0171 49.7191 10.5497 49.7191 9.97377C49.7191 9.39784 49.236 8.93042 48.6383 8.93042H18.3748C17.7771 8.93042 17.2939 9.39784 17.2939 9.97377C17.2939 10.5497 17.7771 11.0171 18.3748 11.0171H48.6383Z" fill="#525C77"/>
<path d="M67.0337 9.97344C67.0337 9.62191 66.8543 9.31107 66.5787 9.12226L58.0498 0.892124C58.0487 0.891081 58.0465 0.890037 58.0444 0.888994C57.9547 0.802416 57.8498 0.739829 57.7396 0.68976C57.7061 0.674114 57.6715 0.666812 57.6347 0.654294C57.5439 0.624044 57.4499 0.605268 57.3537 0.59901C57.3299 0.596923 57.3083 0.585449 57.2845 0.585449H1.08084C0.483136 0.585449 0 1.05276 0 1.62856V46.4823C0 47.0591 0.483136 47.5254 1.08084 47.5254H18.3743C18.972 47.5254 19.4551 47.0591 19.4551 46.4823C19.4551 45.9055 18.972 45.4392 18.3743 45.4392H2.16168V2.67167H56.2037V9.97344C56.2037 10.5492 56.6868 11.0166 57.2845 11.0166H64.8504V45.4392H48.6378C48.0401 45.4392 47.557 45.9055 47.557 46.4823C47.557 47.0591 48.0401 47.5254 48.6378 47.5254H65.9313C66.529 47.5254 67.0121 47.0591 67.0121 46.4823V10.0746C67.0153 10.0392 67.0337 10.0089 67.0337 9.97344ZM58.3654 8.93033V4.14663L63.3221 8.93033H58.3654Z" fill="#525C77"/>
</svg>
