<svg width="68" height="68" viewBox="0 0 68 68" fill="none" xmlns="http://www.w3.org/2000/svg">
<path d="M44.3852 11.9132H5.88672V17.7581H44.3852V11.9132ZM42.7717 16.201H7.50023V13.4688H42.7717V16.201Z" fill="#525C77"/>
<path d="M5.88672 26.2518H12.7909V19.5911H5.88672V26.2518ZM7.50023 21.1469H11.1774V24.6944H7.50023V21.1469Z" fill="#525C77"/>
<path d="M16.6104 26.2518H23.5138V19.5911H16.6104V26.2518ZM18.2239 21.1469H21.9003V24.6944H18.2239V21.1469Z" fill="#525C77"/>
<path d="M27.1914 26.2518H34.0957V19.5911H27.1914V26.2518ZM28.8049 21.1469H32.4821V24.6944H28.8049V21.1469Z" fill="#525C77"/>
<path d="M37.4814 26.2518H44.3857V19.5911H37.4814V26.2518ZM39.095 21.1469H42.7721V24.6944H39.095V21.1469Z" fill="#525C77"/>
<path d="M5.88672 34.8077H12.7909V28.1475H5.88672V34.8077ZM7.50023 29.7039H11.1774V33.2512H7.50023V29.7039Z" fill="#525C77"/>
<path d="M16.6104 34.8077H23.5138V28.1475H16.6104V34.8077ZM18.2239 29.7039H21.9003V33.2512H18.2239V29.7039Z" fill="#525C77"/>
<path d="M27.1914 34.8077H34.0957V28.1475H27.1914V34.8077ZM28.8049 29.7039H32.4821V33.2512H28.8049V29.7039Z" fill="#525C77"/>
<path d="M44.3857 28.1475H37.4814V34.8077H44.3857V28.1475ZM42.7722 33.2504H39.095V29.7032H42.7722V33.2504Z" fill="#525C77"/>
<path d="M5.88672 43.5068H12.7909V36.8456H5.88672V43.5068ZM7.50023 38.4031H11.1774V41.9508H7.50023V38.4031Z" fill="#525C77"/>
<path d="M16.6104 43.5068H23.5138V36.8456H16.6104V43.5068ZM18.2239 38.4031H21.9003V41.9508H18.2239V38.4031Z" fill="#525C77"/>
<path d="M27.1914 43.5068H34.0957V36.8456H27.1914V43.5068ZM28.8049 38.4031H32.4821V41.9508H28.8049V38.4031Z" fill="#525C77"/>
<path d="M50.6579 34.7538C50.528 34.7538 50.4022 34.7702 50.2715 34.7725V30.7719H56.953C57.2055 30.7719 57.4427 30.6583 57.596 30.4637C57.7477 30.2691 57.7977 30.0177 57.7299 29.7834L50.2416 3.98659C50.1472 3.66202 49.8511 3.4511 49.522 3.42775C49.5034 3.42386 44.3854 3.41841 44.3854 3.41841V2.04933C44.3854 0.919203 43.4318 0 42.2604 0C41.089 0 40.1362 0.919203 40.1362 2.04933V3.41763H37.6748V2.04933C37.6748 0.919203 36.722 0 35.5506 0C34.3792 0 33.4264 0.919203 33.4264 2.04933V3.41763H30.5519V2.04933C30.5519 0.919203 29.5991 0 28.4277 0C27.2563 0 26.3043 0.919203 26.3043 2.04933V3.41763H23.8437V2.04933C23.8437 0.919203 22.8909 0 21.7195 0C20.5473 0 19.5945 0.919203 19.5945 2.04933V3.41763H16.8451V2.04933C16.8451 0.919203 15.8923 0 14.7209 0C13.5495 0 12.5967 0.919203 12.5967 2.04933V3.41763H10.1353V2.04933C10.1353 0.919203 9.18251 0 8.0111 0C6.83969 0 5.88771 0.919203 5.88771 2.04933V3.41763H0V49.2626H33.5829C33.4909 49.9568 33.428 50.6597 33.428 51.3773C33.428 60.5429 41.1575 68 50.6579 68C60.1583 68 67.8878 60.5429 67.8878 51.3773C67.8878 42.2109 60.1583 34.7538 50.6579 34.7538ZM50.2715 29.2152V9.86139L55.8897 29.2152H50.2715ZM41.7505 2.04933C41.7505 1.7777 41.9796 1.55665 42.2612 1.55665C42.5435 1.55665 42.7726 1.7777 42.7726 2.04933V6.73252C42.7726 7.00415 42.5435 7.2252 42.2612 7.2252C41.9796 7.2252 41.7505 7.00415 41.7505 6.73252V2.04933ZM35.0407 2.04933C35.0407 1.7777 35.2698 1.55665 35.5514 1.55665C35.8329 1.55665 36.062 1.7777 36.062 2.04933V6.73252C36.062 7.00415 35.8329 7.2252 35.5514 7.2252C35.2698 7.2252 35.0407 7.00415 35.0407 6.73252V2.04933ZM27.9186 2.04933C27.9186 1.7777 28.1478 1.55665 28.4285 1.55665C28.7101 1.55665 28.9392 1.7777 28.9392 2.04933V6.73252C28.9392 7.00415 28.7101 7.2252 28.4285 7.2252C28.1469 7.2252 27.9186 7.00415 27.9186 6.73252V2.04933ZM21.208 2.04933C21.208 1.7777 21.438 1.55665 21.7195 1.55665C22.0011 1.55665 22.2302 1.7777 22.2302 2.04933V6.73252C22.2302 7.00415 22.0011 7.2252 21.7195 7.2252C21.4372 7.2252 21.208 7.00415 21.208 6.73252V2.04933ZM14.2102 2.04933C14.2102 1.7777 14.4393 1.55665 14.7209 1.55665C15.0025 1.55665 15.2316 1.7777 15.2316 2.04933V6.73252C15.2316 7.00415 15.0025 7.2252 14.7209 7.2252C14.4393 7.2252 14.2102 7.00415 14.2102 6.73252V2.04933ZM7.50042 2.04933C7.50042 1.7777 7.72954 1.55665 8.01029 1.55665C8.29185 1.55665 8.52097 1.7777 8.52097 2.04933V6.73252C8.52097 7.00415 8.29185 7.2252 8.01029 7.2252C7.72873 7.2252 7.50042 7.00415 7.50042 6.73252V2.04933ZM1.61351 47.7067V4.97506H5.88691V6.7333C5.88691 7.86343 6.83969 8.78263 8.01029 8.78263C9.1817 8.78263 10.1345 7.86343 10.1345 6.7333V4.97506H12.5959V6.7333C12.5959 7.86343 13.5487 8.78263 14.7201 8.78263C15.8915 8.78263 16.8443 7.86343 16.8443 6.7333V4.97506H19.5937V6.7333C19.5937 7.86343 20.5473 8.78263 21.7187 8.78263C22.8901 8.78263 23.8429 7.86343 23.8429 6.7333V4.97506H26.3035V6.7333C26.3035 7.86343 27.2563 8.78263 28.4269 8.78263C29.5983 8.78263 30.5511 7.86343 30.5511 6.7333V4.97506H33.4256V6.7333C33.4256 7.86343 34.3783 8.78263 35.5498 8.78263C36.7212 8.78263 37.6739 7.86343 37.6739 6.7333V4.97506H40.1354V6.7333C40.1354 7.86343 41.0881 8.78263 42.2596 8.78263C43.431 8.78263 44.3846 7.86343 44.3846 6.7333V4.97506H48.6571V34.876C41.3665 35.694 35.4594 40.9158 33.8636 47.7067H1.61351ZM50.6579 66.4441C42.0466 66.4441 35.0415 59.6851 35.0415 51.3781C35.0415 43.071 42.0474 36.3112 50.6579 36.3112C59.2684 36.3112 66.2743 43.071 66.2743 51.3781C66.2743 59.6851 59.2684 66.4441 50.6579 66.4441Z" fill="#525C77"/>
<path d="M50.658 38.3195C43.1947 38.3195 37.123 44.1771 37.123 51.3774C37.123 58.5777 43.1947 64.4353 50.658 64.4353C58.1213 64.4353 64.193 58.5777 64.193 51.3774C64.193 44.1771 58.1213 38.3195 50.658 38.3195ZM51.4648 62.8398V60.9095H49.8513V62.8398C43.9232 62.4545 39.1795 57.8803 38.7769 52.162H40.7841V50.6053H38.7761C39.173 44.8815 43.9192 40.3019 49.8513 39.9158V41.8585H51.4648V39.9158C57.3969 40.3019 62.1422 44.8823 62.54 50.6053H60.5319V52.162H62.5392C62.1358 57.8803 57.392 62.4545 51.4648 62.8398Z" fill="#525C77"/>
<path d="M51.4651 44.3805H49.8516V52.1565H56.9535V50.5999H51.4651V44.3805Z" fill="#525C77"/>
<path d="M24.3293 54.435H0.806641V55.9916H25.9428V54.263L28.6551 57.0929L26.0953 59.8528V58.2643H0.806641V59.8209H24.4817V63.9272L30.8366 57.0742L24.3293 50.2875V54.435Z" fill="#525C77"/>
<path d="M5.30916 62.2252H0.806641V63.7816H5.30916V62.2252Z" fill="#525C77"/>
<path d="M22.7074 62.2252H8.01074V63.7816H22.7074V62.2252Z" fill="#525C77"/>
</svg>
