<svg width="53" height="68" viewBox="0 0 53 68" fill="none" xmlns="http://www.w3.org/2000/svg">
<path d="M52.7115 66.9697V1.0303C52.7115 0.460819 52.2382 0 51.6532 0H13.1122C13.0987 0 13.0874 0.00704307 13.0739 0.00754616C12.9632 0.0120738 12.8563 0.0329516 12.7523 0.0706824C12.7261 0.0799893 12.6999 0.0862778 12.6747 0.0975971C12.5639 0.147402 12.4589 0.210538 12.3692 0.297822C12.3665 0.300589 12.3633 0.303607 12.3605 0.306374L0.31016 12.0386L0.308093 12.0412C0.219864 12.1277 0.155726 12.2286 0.104829 12.335C0.0899736 12.3659 0.0815123 12.3981 0.0698216 12.4305C0.0377204 12.5196 0.0188603 12.6104 0.012918 12.7047C0.011497 12.7266 0 12.745 0 12.7671L0.0217022 66.9697C0.0217022 67.5392 0.49605 68 1.07994 68H51.6532C52.2381 68 52.7115 67.5392 52.7115 66.9697ZM12.0592 3.51349V11.7368H3.61289L12.0592 3.51349ZM50.595 65.9394H2.13818L2.11693 13.7974H13.1174C13.7023 13.7974 14.1756 13.3366 14.1756 12.7671V2.06061H50.595V65.9394Z" fill="#525C77"/>
<path d="M18.5212 17.6487C18.3672 17.9717 18.2287 18.3057 18.1078 18.6498L14.6251 19.0805C14.096 19.1459 13.7002 19.5835 13.7002 20.1027V24.0559C13.7002 24.5751 14.096 25.0128 14.6251 25.0782L18.1626 25.5148C18.2825 25.8328 18.4178 26.1457 18.5687 26.4506L16.3789 29.2024C16.0533 29.6129 16.0905 30.1945 16.4677 30.5617L19.3386 33.3568C19.7169 33.7251 20.3152 33.7603 20.7348 33.4424L23.5912 31.2882C23.8899 31.423 24.1978 31.5457 24.5151 31.6544L24.9708 35.1508C25.038 35.666 25.4876 36.0513 26.0208 36.0513H26.9922V42.1476H12.891C12.3061 42.1476 11.8328 42.6084 11.8328 43.1779V50.2799C9.58713 50.7546 7.89746 52.7002 7.89746 55.0264C7.89746 57.7069 10.1379 59.8882 12.891 59.8882C15.6441 59.8882 17.8846 57.7069 17.8846 55.0264C17.8846 52.7002 16.1949 50.7546 13.9493 50.2799V44.2082H26.9922V50.2799C24.7466 50.7546 23.0569 52.7002 23.0569 55.0264C23.0569 57.7069 25.2974 59.8882 28.0505 59.8882C30.8036 59.8882 33.044 57.7069 33.044 55.0264C33.044 52.7002 31.3544 50.7546 29.1087 50.2799V44.2082H42.1517V50.2799C39.906 50.7546 38.2164 52.7002 38.2164 55.0264C38.2164 57.7069 40.4569 59.8882 43.2099 59.8882C45.963 59.8882 48.2035 57.7069 48.2035 55.0264C48.2035 52.7002 46.5138 50.7546 44.2682 50.2799V43.1779C44.2682 42.6084 43.7949 42.1476 43.2099 42.1476H29.1087V36.0513H30.0812C30.6144 36.0513 31.064 35.665 31.1311 35.1508L31.5869 31.6544C31.9031 31.5457 32.2111 31.423 32.5098 31.2882L35.3662 33.4424C35.7857 33.7603 36.3851 33.7251 36.7623 33.3568L39.6332 30.5617C40.0104 30.1945 40.0476 29.6129 39.7221 29.2024L37.5322 26.4506C37.6831 26.1457 37.8185 25.8338 37.9384 25.5148L41.4769 25.0782C42.006 25.0128 42.4018 24.5751 42.4018 24.0559V20.1027C42.4018 19.5835 42.006 19.1459 41.4769 19.0805L37.9942 18.6498C37.8722 18.3067 37.7348 17.9717 37.5798 17.6487L39.7211 14.9572C40.0476 14.5477 40.0104 13.9651 39.6332 13.5979L36.7623 10.8018C36.3872 10.4345 35.7857 10.3983 35.3662 10.7163L32.6307 12.7789C32.2855 12.6169 31.93 12.473 31.5662 12.3472L31.1311 9.00781C31.064 8.49366 30.6144 8.1073 30.0812 8.1073H26.0208C25.4876 8.1073 25.038 8.49266 24.9708 9.00781L24.5358 12.3472C24.172 12.473 23.8165 12.6169 23.4703 12.7789L20.7348 10.7163C20.3163 10.3993 19.7158 10.4325 19.3386 10.8018L16.4677 13.5979C16.0905 13.9651 16.0533 14.5477 16.3799 14.9572L18.5212 17.6487ZM15.7681 55.0264C15.7681 56.5709 14.4773 57.8276 12.891 57.8276C11.3047 57.8276 10.0139 56.5709 10.0139 55.0264C10.0139 53.482 11.3047 52.2253 12.891 52.2253C14.4773 52.2253 15.7681 53.482 15.7681 55.0264ZM30.9276 55.0264C30.9276 56.5709 29.6368 57.8276 28.0505 57.8276C26.4642 57.8276 25.1734 56.5709 25.1734 55.0264C25.1734 53.4865 26.4569 52.2341 28.0368 52.2266C28.0417 52.2268 28.0456 52.2293 28.0505 52.2293C28.0553 52.2293 28.0593 52.2268 28.0641 52.2266C29.6441 52.2341 30.9276 53.4865 30.9276 55.0264ZM46.087 55.0264C46.087 56.5709 44.7963 57.8276 43.2099 57.8276C41.6236 57.8276 40.3329 56.5709 40.3329 55.0264C40.3329 53.482 41.6236 52.2253 43.2099 52.2253C44.7963 52.2253 46.087 53.482 46.087 55.0264ZM20.1757 12.9006L22.7118 14.8133C23.0497 15.0709 23.5147 15.0991 23.8847 14.8938C24.4779 14.5638 25.1176 14.3042 25.7842 14.1231C26.1944 14.0124 26.4962 13.6724 26.5499 13.2608L26.953 10.1679H29.149L29.551 13.2608C29.6048 13.6724 29.9065 14.0124 30.3168 14.1231C30.9844 14.3052 31.6241 14.5638 32.2163 14.8938C32.5873 15.0991 33.0513 15.0709 33.3892 14.8133L35.9253 12.9006L37.4775 14.4129L35.4964 16.9031C35.237 17.2291 35.2019 17.6738 35.4075 18.0341C35.7268 18.5935 35.98 19.2072 36.1619 19.8582C36.2735 20.2607 36.6249 20.5585 37.0496 20.6108L40.2853 21.0103V23.1484L37.0083 23.5528C36.5898 23.6051 36.2436 23.8929 36.1257 24.2873C35.9418 24.9011 35.6845 25.4937 35.36 26.0481C35.1481 26.4103 35.1812 26.8601 35.4426 27.1891L37.4775 29.7467L35.9253 31.258L33.2766 29.2608C32.9428 29.0072 32.486 28.974 32.116 29.1732C31.5714 29.467 30.972 29.7055 30.3333 29.8816C29.9251 29.9942 29.6254 30.3333 29.5717 30.7428L29.149 33.9907H26.953L26.5293 30.7428C26.4755 30.3333 26.1758 29.9942 25.7676 29.8816C25.129 29.7055 24.5296 29.467 23.9849 29.1732C23.616 28.973 23.1582 29.0062 22.8244 29.2608L20.1757 31.258L18.6235 29.7467L20.6583 27.1891C20.9198 26.8601 20.9528 26.4103 20.741 26.0481C20.4155 25.4927 20.1592 24.9011 19.9773 24.2893C19.8595 23.8939 19.5122 23.6051 19.0937 23.5528L15.8167 23.1484V21.0103L19.0524 20.6108C19.4771 20.5585 19.8285 20.2607 19.9401 19.8582C20.122 19.2042 20.3762 18.5915 20.6935 18.0341C20.8991 17.6738 20.864 17.2291 20.6046 16.9031L18.6235 14.4129L20.1757 12.9006Z" fill="#525C77"/>
<path d="M28.0503 28.3608C31.6074 28.3608 34.501 25.5435 34.501 22.0802C34.501 18.6169 31.6074 15.7986 28.0503 15.7986C24.4932 15.7986 21.5996 18.6169 21.5996 22.0802C21.5996 25.5435 24.4932 28.3608 28.0503 28.3608ZM28.0503 17.8592C30.4407 17.8592 32.3845 19.7529 32.3845 22.0802C32.3845 24.4075 30.4407 26.3001 28.0503 26.3001C25.66 26.3001 23.7161 24.4075 23.7161 22.0802C23.7161 19.7529 25.66 17.8592 28.0503 17.8592Z" fill="#525C77"/>
</svg>
