<svg width="39" height="53" viewBox="0 0 39 53" fill="none" xmlns="http://www.w3.org/2000/svg">
<path d="M35.6909 0H3.36655C1.88142 0 0.672852 1.15061 0.672852 2.56452V47.0161C0.672852 48.1881 1.5079 49.1686 2.63745 49.4729L3.56319 53H35.4943L36.42 49.4729C37.5495 49.1686 38.3846 48.1881 38.3846 47.0161V2.56452C38.3846 1.15061 37.176 0 35.6909 0ZM20.4266 1.70968H22.2224V3.41935H20.4266V1.70968ZM24.0182 1.70968H25.814V3.41935H24.0182V1.70968ZM27.6098 1.70968H29.4056V3.41935H27.6098V1.70968ZM31.2014 1.70968H32.9972V3.41935H31.2014V1.70968ZM4.9657 51.2903L4.51586 49.5806H34.5407L34.0908 51.2903H4.9657ZM36.5888 47.0161C36.5888 47.488 36.1865 47.871 35.6909 47.871H3.36655C2.87091 47.871 2.46865 47.488 2.46865 47.0161V2.56452C2.46865 2.09265 2.87091 1.70968 3.36655 1.70968H18.6308V5.12903H34.793V1.70968H35.6909C36.1865 1.70968 36.5888 2.09265 36.5888 2.56452V47.0161Z" fill="#525C77"/>
<path d="M4.26465 46.1612H6.06045V39.3224H32.9974V46.1612H34.7932V6.83838H4.26465V46.1612ZM6.06045 37.6127V29.0643H32.9974V37.6127H6.06045ZM6.06045 27.3546V18.8062H32.9974V27.3546H6.06045ZM32.9974 8.54807V17.0965H6.06045V8.54807H32.9974Z" fill="#525C77"/>
<path d="M20.427 10.2581H7.85645V15.387H20.427V10.2581ZM15.0396 11.9677V13.6774H13.2438V11.9677H15.0396ZM9.65224 11.9677H11.448V13.6774H9.65224V11.9677ZM18.6312 13.6774H16.8354V11.9677H18.6312V13.6774Z" fill="#525C77"/>
<path d="M18.6309 20.5159V25.6448H31.2014V20.5159H18.6309ZM25.814 22.2255V23.9352H24.0183V22.2255H25.814ZM20.4267 22.2255H22.2225V23.9352H20.4267V22.2255ZM29.4056 23.9352H27.6098V22.2255H29.4056V23.9352Z" fill="#525C77"/>
<path d="M7.85645 30.7747V35.9036H31.2018V30.7747H7.85645ZM29.406 34.194H9.65224V32.4843H29.406V34.194Z" fill="#525C77"/>
<path d="M7.85645 46.1617H31.2018V41.0327H7.85645V46.1617ZM9.65224 42.7424H29.406V44.452H9.65224V42.7424Z" fill="#525C77"/>
<path d="M6.06042 3.41895H4.26465V5.12859H6.06042V3.41895Z" fill="#525C77"/>
<path d="M9.65222 3.41895H7.85645V5.12859H9.65222V3.41895Z" fill="#525C77"/>
<path d="M13.243 3.41895H11.4473V5.12859H13.243V3.41895Z" fill="#525C77"/>
<path d="M31.201 11.9673H29.4053V13.6769H31.201V11.9673Z" fill="#525C77"/>
<path d="M27.6102 11.9673H25.8145V13.6769H27.6102V11.9673Z" fill="#525C77"/>
<path d="M24.0184 11.9673H22.2227V13.6769H24.0184V11.9673Z" fill="#525C77"/>
<path d="M16.8348 22.2257H15.0391V23.9354H16.8348V22.2257Z" fill="#525C77"/>
<path d="M13.243 22.2257H11.4473V23.9354H13.243V22.2257Z" fill="#525C77"/>
<path d="M9.65222 22.2257H7.85645V23.9354H9.65222V22.2257Z" fill="#525C77"/>
</svg>
