<svg width="70" height="69" viewBox="0 0 70 69" fill="none" xmlns="http://www.w3.org/2000/svg">
<path d="M34.5377 68.1288C15.4237 68.1288 0 52.9165 0 34.0644C0 15.2123 15.4237 0 34.5377 0C53.6516 0 69.0753 15.2123 69.0753 34.0644C69.0753 52.9165 53.6516 68.1288 34.5377 68.1288ZM34.5377 65.8579C52.4158 65.8579 66.7728 51.6976 66.7728 34.0644C66.7728 16.4313 52.4158 2.27101 34.5377 2.27101C16.6595 2.27101 2.30251 16.4313 2.30251 34.0644C2.30251 51.6976 16.6595 65.8579 34.5377 65.8579Z" fill="#525C77"/>
<path d="M26.6371 30.2472L26.8339 30.233L27.1633 30.7085C27.6651 31.6547 28.039 32.6688 28.4966 33.6442L28.4034 32.4282L28.4077 31.3121L28.8456 31.1667L28.8901 31.5401C29.0522 32.9763 29.4804 34.3836 30.12 35.6888C31.1926 37.8676 32.8554 39.7649 34.9021 41.1042C37.0864 42.5453 39.7038 43.3215 42.336 43.3119L42.469 43.6567L42.041 43.9136L41.2685 44.5008L40.9341 44.1127L39.7336 43.6565C39.2416 43.5642 38.7545 43.4967 38.2675 43.4675L37.2934 43.4533L37.013 43.3325C36.1767 42.6095 35.3649 41.8526 34.381 41.3334L33.7956 41.1539L33.3823 41.1227L32.969 40.8026C32.4131 40.2639 32.0687 39.5603 31.6406 38.9149C31.3211 38.4102 30.942 37.9542 30.509 37.5319L29.3283 36.5567L29.2398 36.7167L28.6641 36.6727L28.8955 37.3909L29.2301 37.7113L29.1612 38.0171L28.5955 38.0611L29.3334 38.8326L29.8647 39.2257L29.8532 39.4392L29.3366 39.4548L29.5532 39.6973L30.7781 40.236L30.96 40.3524L30.9403 40.4929L30.5617 40.6092L31.1619 41.0119L31.1127 41.1964L30.6847 41.366L31.7819 41.9095L31.8212 42.0939L31.4818 42.2879L31.9395 42.4917L32.5839 42.5641L32.6285 42.8843L32.1806 43.1996L33.2532 43.7478C33.9567 44.0583 34.6751 44.3398 35.4278 44.5048C36.0526 44.6551 36.6972 44.6699 37.3367 44.6505L37.7157 44.6773L37.5485 44.8813L36.594 45.0706C35.7281 45.1146 34.8671 44.9345 34.0357 44.7116C32.9189 44.4109 31.871 43.9352 30.8476 43.416L30.523 43.1781L30.5466 43.0083L30.9402 42.882L29.602 42.6395L29.3611 42.4842L29.4988 42.2027L30.0842 42.0722L29.5234 41.8927L28.8937 41.6598L28.7315 41.3734L28.9776 41.2613L29.7302 41.1974L29.5189 41.081L28.289 40.7996L27.9249 40.4742L27.9292 40.2949L28.1504 40.2026L29.1393 40.2551L28.8244 40.0125L27.9388 39.6097L26.704 38.6489L26.3104 38.0957L26.3644 37.7996H26.7284C27.2154 37.9401 27.6336 38.2169 28.0961 38.4157C27.309 37.722 26.4872 37.0621 25.7985 36.2857L25.1836 35.291V35.1604L25.2673 34.9952L25.5185 35.0479L25.981 35.3828C26.4779 35.8099 26.9502 36.2708 27.4667 36.6833L28.0276 37.0279L27.6733 36.4797C27.1125 35.6743 26.5566 34.8686 26.0646 34.0194C25.73 33.413 25.4054 32.7967 25.2676 32.1174L25.3659 31.3119L25.6808 31.5595C26.3549 32.564 26.8911 33.6558 27.5946 34.6506L28.0915 35.1649L27.9932 34.8059C27.5946 33.7194 27.1371 32.6468 26.7977 31.5356L26.5812 30.5458L26.635 30.2403" fill="#525C77"/>
<path d="M47.3299 45.6731L47.6054 45.5851L48.3433 45.6873C49.3519 45.7838 50.3604 45.8079 51.3789 45.8471L52.3776 45.9195L52.5005 45.9919L52.0231 46.9188C51.5657 47.1564 51.0244 47.1713 50.5226 47.1227L50.3947 47.6807L49.947 47.9091L48.9483 47.8027L48.4366 48.2636L47.8462 48.1231L46.9755 48.589L46.444 48.5308L45.7701 48.8853L45.1994 48.6765L44.5106 49.0452H44.2795L43.9154 48.7004L43.3989 48.9042L42.7495 48.8262L42.5086 48.7879L41.7017 48.9198L41.3968 48.7063L40.7375 48.9394L40.2504 48.7936L40.2461 48.3665L40.7184 47.9834L41.4909 47.3573L41.668 47.3135C42.5585 47.3916 43.4639 47.4056 44.3444 47.231C44.8462 47.1288 45.3482 46.9786 45.8105 46.7505L46.1404 46.6343L46.7554 46.6696L46.8093 46.4515L47.0258 46.3352L47.2568 46.073L47.3308 45.6752" fill="#525C77"/>
<path d="M39.5567 46.5755L39.1683 46.7937L38.8927 46.7781L38.8884 46.5014L39.2868 46.2782H39.567L39.5598 46.5693L39.5567 46.5755ZM58.7392 34.4878C59.1474 33.8619 59.546 33.2118 59.7625 32.4984L59.8267 31.8384L59.738 31.5518L59.5858 31.5745L59.3149 31.8949C58.4885 33.0934 57.8046 34.3697 56.9337 35.5295L56.4319 36.0293L56.7318 35.2431C57.2287 34.0445 57.7699 32.8605 58.1881 31.6328L58.444 30.6186L58.2866 30.2791L57.9815 30.5166L57.3764 31.6958C57.0465 32.3946 56.7515 33.0982 56.4072 33.7871C56.4072 33.0253 56.4909 32.2684 56.4516 31.5065L56.3677 31.196L55.999 31.1689L55.9596 31.4406C55.7824 33.571 54.9265 35.6187 53.6571 37.3364C52.5797 38.8166 51.212 40.0781 49.682 41.0874C47.9797 42.2036 46.0462 43.043 44.0044 43.3244L42.9221 43.6737C42.4695 43.9021 42.0513 44.2124 41.6183 44.4842L40.4277 45.1248C39.8668 45.3188 39.2863 45.4838 38.7894 45.809L37.7021 46.8765L37.7137 47.4831L37.9695 47.716L38.1714 47.3133L38.2749 47.2904L38.4323 47.4112L38.9193 47.2559L39.3375 47.2289C40.8775 47.1608 42.4321 47.0883 43.972 47.0347L44.9707 46.7727L45.0889 46.6421L44.8972 46.5059L44.1739 46.5286C43.0424 46.4747 41.906 46.6692 40.7744 46.6294L40.6216 46.5031L41.3154 45.7023H40.6708L40.1149 45.8771L40.5134 45.6008C41.1776 45.2077 41.8615 44.8825 42.56 44.5477L43.4407 44.1738C44.2574 43.9215 45.0987 43.7517 45.9448 43.6207C46.4074 43.5568 46.8797 43.5086 47.3422 43.4845L47.7899 43.3539C48.4786 42.5969 49.315 41.9419 50.294 41.5585C50.727 41.3791 51.1993 41.2479 51.647 41.0732L52.2865 40.4229C52.6014 40.0008 52.8524 39.535 53.1377 39.0933C53.5608 38.4238 54.0675 37.7978 54.6826 37.3028L55.3713 36.9002L55.5138 37.1574L55.9714 36.9341C55.9714 37.3757 55.6761 37.7348 55.5581 38.1473L55.6073 38.4578L56.1878 38.4224L55.3514 39.4074L55.316 39.6746L55.7884 39.6391L55.5475 39.9252L54.3864 40.556L54.288 40.7456L54.5339 40.9344L53.6829 41.41L53.5695 41.5653L53.7419 41.7935L52.9449 42.0556L52.7331 42.1918L52.7921 42.5557L52.6005 42.7646L52.2364 42.8086L52.1478 43.0562L52.3742 43.3908L51.9757 43.4972L51.1245 43.9146L50.5047 44.1235L49.4763 44.3417L48.3645 44.5454L48.1826 44.666L48.4141 44.7824C49.1422 44.8137 49.8703 44.6946 50.5936 44.5884C51.3857 44.4677 52.1777 44.3263 52.9452 44.0885L53.9982 43.7633L54.3276 43.5155L54.1851 43.3409L53.6587 43.1707L54.2146 43.0444L55.1838 42.8847L55.2231 42.5449L54.6033 42.3555L55.4838 42.1665L56.1727 41.9141L56.1569 41.6277L55.5469 41.5112L55.7436 41.3607L56.8161 40.9481L57.0767 40.5453L56.9048 40.3999L56.2012 40.4197L56.6639 40.1722L57.4708 39.653L58.2825 38.9687L58.6714 38.4252L58.6222 38.105L58.2825 38.1433L57.4167 38.6092L56.7426 38.9197L56.954 38.6092L58.2084 37.4445C58.607 37.0515 59.0006 36.6633 59.3302 36.2119L59.6253 35.5764L59.4136 35.2801L58.8675 35.5326C58.2968 35.9499 57.8049 36.4545 57.2489 36.8962L56.7816 37.1872L57.2588 36.5127C57.7753 35.8527 58.2772 35.1831 58.7396 34.4795" fill="#525C77"/>
<path d="M42.5475 20.4741L41.9473 19.8432L42.5475 17.3534L43.1527 19.8432L42.5475 20.4741Z" fill="#525C77"/>
<path d="M40.8989 20.6351L40.1855 20.1306L40.2792 17.5734L41.3715 19.8977L40.8992 20.6351" fill="#525C77"/>
<path d="M39.3158 21.1056L38.5137 20.7466L38.1055 18.2234L39.6257 20.2953L39.3156 21.1056" fill="#525C77"/>
<path d="M37.8541 21.8715L36.9931 21.6775L36.0977 19.2805L37.9968 21.0176L37.8544 21.8715" fill="#525C77"/>
<path d="M36.5745 22.9057L35.6939 22.8829L34.3359 20.704L36.545 22.0435L36.5726 22.9073" fill="#525C77"/>
<path d="M35.5217 24.1722L34.6558 24.3179L32.8896 22.4348L35.3201 23.3229L35.5216 24.1722" fill="#525C77"/>
<path d="M34.7396 25.6081L33.9132 25.9138L31.8125 24.4148L34.3757 24.8174L34.7396 25.6081" fill="#525C77"/>
<path d="M34.2576 27.1659L33.5048 27.627L31.1533 26.5643L33.746 26.4622L34.2576 27.1659" fill="#525C77"/>
<path d="M34.0902 28.7962L33.4457 29.3931L30.9268 28.7962L33.4457 28.2041L34.0902 28.7962Z" fill="#525C77"/>
<path d="M34.2529 30.4174L33.7363 31.126L31.1484 31.0337L33.5002 29.9563L34.2529 30.4174Z" fill="#525C77"/>
<path d="M34.7251 31.9837L34.3708 32.7797L31.8076 33.1729L33.9084 31.6731L34.7251 31.9837Z" fill="#525C77"/>
<path d="M35.5023 33.4253L35.3103 34.2698L32.8799 35.1575L34.6412 33.2798L35.5022 33.4253" fill="#525C77"/>
<path d="M36.555 34.6869L36.5274 35.5556L34.3184 36.8951L35.6763 34.716L36.5569 34.689" fill="#525C77"/>
<path d="M37.8396 35.7256L37.9773 36.5844L36.0781 38.3264L36.9737 35.9247L37.8396 35.7258" fill="#525C77"/>
<path d="M39.2961 36.5022L39.6062 37.3126L38.0859 39.3847L38.4944 36.8566L39.2964 36.5021" fill="#525C77"/>
<path d="M40.8744 36.9775L41.3467 37.7151L40.2596 40.0344L40.1611 37.4774L40.8744 36.9775Z" fill="#525C77"/>
<path d="M42.528 37.1375L43.1282 37.7732L42.528 40.2626L41.9229 37.7732L42.528 37.1375Z" fill="#525C77"/>
<path d="M44.1707 36.9824L44.8939 37.4873L44.7903 40.0442L43.7031 37.7201L44.1705 36.9824" fill="#525C77"/>
<path d="M45.7553 36.5068L46.5671 36.8659L46.9705 39.3936L45.4453 37.317L45.7554 36.5068" fill="#525C77"/>
<path d="M47.2219 35.7406L48.0827 35.9346L48.9783 38.3365L47.0742 36.5996L47.2219 35.7406Z" fill="#525C77"/>
<path d="M48.5059 34.7069L49.3866 34.7296L50.7396 36.9086L48.5305 35.574L48.5069 34.7053" fill="#525C77"/>
<path d="M49.5527 33.4451L50.4237 33.3046L52.1849 35.1823L49.7496 34.2944L49.5527 33.4452" fill="#525C77"/>
<path d="M50.3408 32.004L51.1625 31.6982L53.2633 33.2021L50.6951 32.7994L50.3408 32.0038" fill="#525C77"/>
<path d="M50.8223 30.4414L51.57 29.9854L53.9266 31.048L51.329 31.1502L50.8223 30.4417" fill="#525C77"/>
<path d="M50.9854 28.8251L51.6299 28.2186L54.1488 28.8251L51.6299 29.417L50.9854 28.8251Z" fill="#525C77"/>
<path d="M50.8281 27.1953L51.3348 26.4865L53.9325 26.5887L51.571 27.657L50.8281 27.1957" fill="#525C77"/>
<path d="M50.3506 25.6333L50.7099 24.842L53.2732 24.4391L51.1674 25.9389L50.3507 25.633" fill="#525C77"/>
<path d="M49.5684 24.1865L49.7652 23.3421L52.1956 22.4542L50.4392 24.3319L49.5684 24.1865Z" fill="#525C77"/>
<path d="M48.5205 22.9251L48.5441 22.0515L50.7581 20.7219L49.4002 22.896L48.5195 22.9273" fill="#525C77"/>
<path d="M47.2464 21.887L47.0938 21.0328L49.0027 19.2955L48.1024 21.6927L47.2463 21.887" fill="#525C77"/>
<path d="M45.78 21.1152L45.4697 20.3048L46.99 18.2325L46.5817 20.7609L45.7797 21.1149" fill="#525C77"/>
<path d="M44.2008 20.6394L43.7285 19.9016L44.8158 17.5768L44.9193 20.1345L44.2011 20.6394" fill="#525C77"/>
<path d="M49.9763 28.811C49.9763 32.8578 46.6456 36.1381 42.5375 36.1381C38.4342 36.1381 35.1084 32.8578 35.1084 28.811C35.1084 24.7641 38.4342 21.4742 42.5375 21.4742C46.6456 21.4742 49.9763 24.7641 49.9763 28.811Z" fill="#525C77"/>
<path d="M16.6729 10.3336C16.2383 10.6517 15.8128 10.9812 15.3969 11.3214L15.9495 11.8091L16.004 12.4788L15.6248 13.0609L15.0542 13.1149L14.7097 12.8045L14.7333 12.4648L15.1912 12.4804L15.2302 12.8588L15.4568 12.699L15.4959 12.3837L15.8601 12.1606L15.4913 11.9568L15.4756 11.6416L15.2159 11.4728C15.2115 11.4728 15.2072 11.487 15.2029 11.487L15.2396 11.7758L14.8762 11.7602C14.6756 11.9321 14.4779 12.1073 14.282 12.2844L14.211 12.7736L14.6586 13.5162L15.5491 13.686L15.2442 14.2148L15.5834 14.1425L15.3914 14.5211L15.3422 14.856L15.6769 14.7007L15.8783 14.7206L15.7748 15.0602L16.1192 16.0357L17.0245 16.5014L16.4881 15.468L16.4489 14.842L16.5421 13.9588C16.6358 13.4784 16.8227 13.0175 16.8718 12.5322L16.8443 11.814L16.5394 11.2318L16.2094 10.9063L16.7998 10.4841L16.6731 10.3372L16.6729 10.3336ZM13.9309 12.6036C13.0869 13.3918 12.2904 14.2283 11.5446 15.1088C10.9818 16.2581 10.4181 17.4085 9.85933 18.5553L9.35753 19.6765L9.24931 20.283V20.6468L9.73644 21.7628L10.868 22.2674C10.4154 22.3199 9.96266 22.505 9.66261 22.8498L9.24931 23.8688V24.2374L9.50043 25.2178L9.97763 26.2221C10.8484 28.003 11.7192 29.7888 12.5949 31.5793L12.7425 32.3361L12.5753 32.8893L11.542 33.3892L10.6517 32.7438L10.5679 32.1906L10.8385 31.5793L11.2321 31.4047L11.749 31.5209L11.8714 32.0449L11.419 32.0889L11.365 31.6814L11.1139 31.8851L11.0982 32.1613L10.7485 32.3607L10.7978 32.4331L11.103 32.5737L11.1266 32.9184L11.397 33.0737L11.3574 32.7587L11.933 32.7232L12.3071 32.3976L12.3807 31.7621L11.8493 30.9809L11.0375 30.8546L11.3571 30.3211L11.003 30.3892L11.2194 29.9813L11.2509 29.6903L10.9263 29.836L10.7149 29.816L10.8231 29.3503L10.4245 28.4575L9.5636 28.0353L10.09 29.0154L10.1345 29.8306L10.0411 30.607C9.94266 31.0971 9.75068 31.5581 9.71658 32.0532L9.80508 32.8828L10.376 33.63L9.78033 34.0668L9.97705 34.29L10.376 34.4937L9.75083 35.4013L9.73111 36.2068L9.93258 37.0705C10.0653 37.5218 10.1343 37.9923 10.1446 38.463L10.121 39.0016L9.56001 40.0887L10.2831 39.7828L10.8195 38.8561L10.716 38.3027L10.9274 38.2871L11.2519 38.4377L11.2206 38.1417L11.0041 37.7297L11.3583 37.7978L11.0387 37.264H11.5159L12.1457 36.9048L12.3917 36.274L12.2978 35.7112L11.8897 35.3813L11.3583 35.3614L11.3976 35.0508L11.1272 35.206L11.1036 35.5458L10.7349 35.7497L11.0988 35.9678L11.1185 36.2541L11.3645 36.4438L11.4138 36.0506L11.7975 35.9826L11.9009 36.2251L11.7632 36.5938L11.3253 36.7258L10.7792 36.4926L10.5628 35.8086L10.7104 35.2748L11.542 34.7363L12.2504 34.9349L12.7422 35.7452L12.6045 36.5363C11.5861 38.5936 10.5777 40.6609 9.579 42.7233L9.24902 43.9362V44.232L9.75083 45.3625L10.8726 45.8575L9.72636 46.3719L9.24902 47.4735V47.7793L9.51971 48.8759L9.99231 49.8562C10.5131 50.9096 11.03 51.9653 11.5459 53.022C12.2888 53.8988 13.0819 54.7322 13.9221 55.5175L14.0174 55.1455C15.0161 53.1075 16.0099 51.0744 17.0038 49.0412L17.3434 47.925V47.3911L16.7629 46.2751L15.7345 45.8579L16.9055 45.3095L17.3434 44.3389V43.8247L17.117 42.9272L16.6004 41.8644C15.769 40.1612 14.9326 38.4529 14.1012 36.7449L13.9286 36.3374L13.8601 35.7211L14.2535 35.0033L15.0996 34.7458L15.9754 35.4448L16.0108 36.061L15.6369 36.6482L14.9925 36.6794L14.7122 36.3594L14.7614 36.0241L15.1845 36.0553L15.2385 36.4535L15.4697 36.2837L15.5051 35.9734L15.8693 35.7552L15.5004 35.5511L15.485 35.2407L15.1993 35.0563L15.239 35.3666L14.6582 35.4051L14.2547 35.8079L14.2392 36.4434L14.7952 37.1715L15.5576 37.268L15.2474 37.8066L15.5917 37.7285L15.454 37.9711L15.3506 38.4416L15.6752 38.2909L15.887 38.3067L15.7932 38.5979L16.0937 39.5878L17.0333 40.0874L16.4971 39.0493L16.4655 38.2289L16.608 37.2829L16.879 36.1135L16.8397 35.376L16.2146 34.502L16.8102 34.0701L16.2146 33.6286C16.5736 33.3615 16.8445 32.9541 16.8888 32.5125L16.8492 31.7701L16.6428 30.9646C16.4952 30.455 16.446 29.9263 16.4558 29.3975C16.4716 28.8879 16.7018 28.4169 17.0314 28.0384L16.2196 28.422L15.7817 29.2128L15.8852 29.824L15.6687 29.8382L15.3491 29.6977L15.3983 30.0376L15.5903 30.4013L15.2459 30.3275L15.5563 30.8613L14.7838 30.9734L14.2229 31.7302L14.3066 32.4338L14.7151 32.7493L15.2367 32.7722L15.1973 33.078L15.4827 32.8937L15.4983 32.583L15.8672 32.3794L15.5031 32.1613L15.4677 31.8454L15.2361 31.6855L15.1969 32.0641L14.764 32.1182L14.705 31.7929L14.9755 31.4579L15.4037 31.4095L15.9006 31.7588L16.0235 32.4915C15.935 33.0495 15.3297 33.501 14.764 33.37L13.9177 32.6762L13.8732 32.1182L14.0354 31.5163C15.0292 29.4879 16.023 27.4595 17.012 25.4264L17.3417 24.325V23.8058L16.7513 22.68L15.7331 22.2725C16.1905 22.2143 16.6479 22.0247 16.953 21.6707H16.9486L17.3372 20.7534V20.2343C17.3136 19.7783 17.1304 19.3511 16.9189 18.9434C15.9399 16.9441 14.9708 14.9403 13.9867 12.9411L13.9312 12.6051L13.9309 12.6036ZM13.3007 13.2256C14.3092 15.3122 15.308 17.4135 16.3067 19.5049L16.528 20.5724H16.5251L16.171 21.2224L15.2016 21.4988L14.498 21.072L14.3654 20.5236L14.5965 20.2132H14.9804L15.2311 20.47L15.1819 20.96L15.6592 20.5284L15.6946 20.2272L16.2603 19.902L15.9748 19.6692L15.6895 19.5955L15.6502 19.1589L15.1828 18.8387L15.232 19.2997L15.0304 19.5178L14.4107 19.5817L13.8056 19.8968C13.7897 19.2951 13.7739 18.6983 13.7608 18.0966L13.8791 17.7959L14.3415 17.6553L14.9714 17.7476L14.4989 17.0343L13.5739 16.8693L13.9677 16.4278L13.8449 15.666L13.2987 14.9915L12.8558 15.4816L12.6251 16.3792L13.0185 16.8693L12.128 17.0199L11.6261 17.7479L12.4724 17.6798L12.8021 17.908L12.8375 18.2087C12.8218 18.7765 12.81 19.3346 12.793 19.8975L12.1486 19.5771L11.573 19.5245L11.3663 19.3108L11.4155 18.8404L10.9384 19.18L10.8989 19.5972L10.343 19.9032L10.8989 20.2283L10.9726 20.5921L11.4153 20.9708L11.3917 20.4078L11.7216 20.1896L12.12 20.2961L12.2335 20.7621L11.8201 21.3344L10.9493 21.4801L10.2262 21.0093L10.0687 20.2766L10.2752 19.544C11.0723 17.865 11.8742 16.1957 12.6762 14.5216L13.301 13.2296L13.3007 13.2256ZM13.2878 20.9994L13.45 21.2951C13.8041 21.8289 14.4143 22.1784 15.0489 22.2706L14.0208 22.6685L13.2976 23.537L13.1354 23.2362C12.791 22.7024 12.1859 22.3677 11.5561 22.2706L12.7172 21.7611L13.2878 20.9994ZM15.4968 23.0435L16.3132 23.461L16.3088 23.4596L16.5351 24.0999L16.3188 25.0076C15.3199 27.1134 14.3064 29.2144 13.2977 31.3205C12.8895 30.4906 12.5009 29.656 12.0977 28.8262C11.5023 27.5743 10.9018 26.3274 10.3113 25.0754L10.0654 23.9885L10.4738 23.28L11.3938 23.047L12.0087 23.3576L12.2399 23.9059L12.0382 24.3087L11.6251 24.3314L11.3842 24.1179L11.4157 23.5743L10.963 23.9628L10.8988 24.3171L10.3429 24.6322L10.6481 24.8942L10.904 24.9424L10.9394 25.3599L11.4115 25.7045L11.3918 25.1709L11.8002 24.9817L12.5233 24.8611L12.7938 24.6476C12.8096 25.2105 12.8253 25.7685 12.8382 26.3411L12.7845 26.6612L12.4053 26.8747L11.628 26.7924L12.1397 27.5301L13.0204 27.6757L12.6614 28.0251L12.6772 28.6753L13.0608 29.3448L13.3023 29.5536L13.8287 28.9179L13.9762 28.1417L13.5778 27.6757L14.4828 27.5158L14.975 26.7927L14.1534 26.8665L13.8141 26.6624L13.7648 26.4004C13.7807 25.8134 13.7962 25.2309 13.8093 24.6487L14.4392 24.9644L15.0491 25.0269L15.2458 25.3082L15.1868 25.711L15.6542 25.3808L15.6936 24.949L15.9646 24.8808L16.2645 24.6333L15.6987 24.3181L15.6244 23.9397L15.1868 23.576L15.236 24.0755L14.9999 24.3281L14.5569 24.3054L14.3602 23.8782L14.6258 23.3299L15.4969 23.0437L15.4968 23.0435ZM13.2976 33.2662L14.2766 34.0036L14.5568 34.0717C14.0401 34.1299 13.5727 34.4404 13.2922 34.8772L12.2689 34.12L12.0427 34.0576C12.5593 34.0037 13.0168 33.6939 13.2973 33.2667L13.2976 33.2662ZM13.3004 36.8137C14.3091 38.9051 15.3081 41.0011 16.3068 43.0973H16.3039L16.5156 44.2329L15.9108 44.98L15.1285 45.068L14.4199 44.539L14.3963 44.025L14.6915 43.7822L15.0899 43.8604L15.2474 44.1902L15.1833 44.5588L15.6457 44.1417L15.6952 43.8215L16.2606 43.496L15.6952 43.1904L15.6713 42.8073L15.1842 42.424L15.2432 42.8218L15.0905 43.0791L14.741 43.1516L14.0424 43.2877L13.8064 43.4821C13.7906 42.8853 13.7749 42.2885 13.762 41.6917L13.9239 41.3567L14.3421 41.2446L14.9719 41.3412L14.642 40.7347L14.16 40.4922L13.5795 40.4567L13.9829 39.9034L13.7322 39.0494L13.2993 38.5835L12.9646 38.9089L12.6399 39.5446L12.6596 40.1074L13.0185 40.4568L12.4232 40.4953L11.9117 40.7864L11.6261 41.3394L12.4429 41.2615L12.8024 41.4898L12.8378 41.771C12.822 42.3437 12.8102 42.9211 12.7933 43.484L12.3948 43.217L11.765 43.149L11.3911 42.945L11.4108 42.4258L10.9336 42.7801L10.8982 43.1876L10.3421 43.4981L10.908 43.8235L10.967 44.1681L11.4147 44.5562L11.3604 44.0807L11.2619 44.0225L11.2937 43.8287L11.5887 43.6686L11.9428 43.6062L12.0805 43.6942V43.8448L12.1888 44.5193L11.5443 45.0533L10.4718 44.8544L10.0634 44.1263L10.2749 43.1318C11.067 41.4673 11.864 39.8029 12.6611 38.1386C12.8775 37.6971 13.084 37.2556 13.3004 36.814V36.8137ZM13.2933 44.5919L13.5392 44.9994C13.8933 45.4749 14.4542 45.7758 15.0446 45.8632L13.9819 46.29L13.298 47.1442L12.6736 46.3388L11.5566 45.8632L12.7323 45.3438L13.2933 44.5919ZM11.5315 46.6736L12.1957 47.2559L12.1564 47.7946L11.8264 47.9545L11.4033 47.7558L11.4148 47.1733L10.9573 47.5811L10.8986 47.9108L10.3423 48.231L10.677 48.498L10.9034 48.5464L10.9474 48.9733L11.4098 49.3032L11.3744 48.8083L11.6251 48.5999L12.2255 48.5458L12.791 48.235C12.8068 48.8368 12.8266 49.4385 12.8356 50.0354L12.6736 50.3656L12.157 50.4818L11.6254 50.3853L11.9061 50.9337L12.4276 51.2393L12.9836 51.2707L12.7624 51.4597L12.6247 52.11L13.1168 53.0026L13.2986 53.1431L13.6429 52.8082L13.9821 51.799L13.5789 51.265L14.2133 51.221L14.6857 50.9445L14.9709 50.3866L14.2331 50.4787L13.8689 50.3282L13.7607 50.0132C13.7764 49.426 13.7922 48.834 13.8051 48.2419L14.3366 48.5481L14.9516 48.5963L15.2222 48.8144L15.1829 49.3044L15.6503 48.9792L15.6896 48.5474L16.2605 48.2321L15.6945 47.9069L15.6258 47.5524L15.1829 47.174L15.2222 47.6835L14.9617 47.9311L14.4993 47.8628L14.3864 47.3049L15.0407 46.6887L16.079 46.8486L16.491 47.3857L16.4953 48.0747L16.3084 48.6084C15.3146 50.7144 14.3059 52.8107 13.2973 54.9118C13.0167 54.3538 12.7565 53.7861 12.4809 53.2183C11.7873 51.7771 11.1031 50.336 10.4144 48.8998L10.1145 48.1621V47.3469L10.6461 46.7694L11.5314 46.6727L11.5315 46.6736ZM17.0369 51.6288L15.9643 52.3032L15.8856 53.4146L15.6739 53.4344L15.349 53.2843L15.3884 53.6097L15.5899 53.9881L15.2554 53.92L15.5801 54.4634L14.7243 54.584L14.2174 55.3411L14.2832 55.8486C14.4746 56.0216 14.6677 56.1926 14.8636 56.3607H15.2357L15.2094 56.6482C15.2123 56.6482 15.2151 56.6482 15.218 56.6482L15.4837 56.4748L15.4994 56.1594L15.8682 55.9553L15.5041 55.7372L15.4648 55.4217L15.2386 55.2618L15.1894 55.6549L14.8594 55.7571L14.7119 55.5629L14.8203 55.1408L15.3418 54.9856L15.8434 55.2425L16.0351 55.8929C16.0589 56.2898 15.8039 56.6557 15.4522 56.8438C15.8496 57.1674 16.2565 57.4801 16.6709 57.7834L16.8106 57.65L16.2153 57.2134L16.8499 56.3058L16.8892 55.7431L16.6925 54.7387L16.4761 53.5451L16.4958 52.6327L17.0369 51.6183V51.6288Z" fill="#525C77"/>
</svg>
