<svg width="72" height="69" viewBox="0 0 72 69" fill="none" xmlns="http://www.w3.org/2000/svg">
<path d="M67.6432 50.0627H61.7458V44.3949C61.7458 42.4679 60.2125 40.9943 58.2074 40.9943C56.2023 40.9943 54.669 42.4679 54.669 44.3949V45.9819C54.669 46.8887 54.3151 47.6822 53.6074 48.3624L51.8382 50.0627H44.0537V68.1995H53.4895V65.9324H63.1612C65.6381 65.9324 67.8791 64.4588 68.7047 62.305L70.9457 56.5239C71.0637 56.0705 71.1816 55.7304 71.1816 55.277V53.4633C71.1816 51.5363 69.6483 50.0627 67.6432 50.0627ZM46.4127 65.9324V52.3298H51.1306V65.9324H46.4127ZM68.8227 55.277C68.8227 55.5037 68.7047 55.6171 68.7047 55.7304L66.4637 61.5116C65.9919 62.7585 64.5766 63.6653 63.1612 63.6653H53.4895V51.6497L55.2587 49.836C56.4382 48.8158 57.0279 47.3422 57.0279 45.8685V44.3949C57.0279 43.7148 57.4997 43.2614 58.2074 43.2614C58.9151 43.2614 59.3869 43.7148 59.3869 44.3949V52.3298H67.6432C68.3509 52.3298 68.8227 52.7832 68.8227 53.4633V55.277Z" fill="#525C77"/>
<path d="M3.12561 64.7988C2.41792 64.0053 2.18203 63.0985 2.29997 62.0783L4.30508 49.3825C4.65892 47.002 6.54608 45.1883 9.02297 44.6215L21.0536 42.2411L31.0791 59.131L41.1047 42.2411L52.3097 44.3948C52.3097 43.6013 52.4276 42.9212 52.7815 42.2411L41.4585 40.0873C40.5149 37.4801 40.279 34.7596 40.5149 32.1524C42.7559 29.5453 43.9354 26.3713 43.9354 22.8573V18.7765C46.0584 16.8494 47.3559 14.2423 47.2379 11.5217C47.12 9.25463 46.1764 7.21423 44.6431 6.08068C40.6329 3.13344 36.0329 1.09304 31.1971 0.186196C25.7715 -0.834003 22.2331 2.56666 20.8177 4.83377C18.6947 5.17383 17.1613 5.96732 16.2178 7.32759C15.1562 8.80121 15.0383 10.8416 15.746 12.9954C16.6896 15.6025 17.869 18.8898 18.1049 19.6833V22.8573C18.1049 26.2579 19.4023 29.6586 21.6433 32.2658C21.9972 34.7596 21.6433 37.3668 20.6998 39.9739L8.55118 42.3544C5.13071 43.0345 2.53587 45.6417 2.06408 48.929L0.0589737 61.7382C-0.176921 63.3252 0.294868 65.0255 1.47434 66.2724C2.65382 67.5193 4.18713 68.1995 5.83839 68.1995H41.6944V65.9323H5.83839C4.77687 65.9323 3.83329 65.4789 3.12561 64.7988ZM22.9408 40.7674C23.6484 38.727 24.0023 36.6866 24.1202 34.6463L25.2997 35.7798C26.3612 36.9134 27.8946 37.4801 29.4279 37.4801H32.6124C34.1458 37.4801 35.6791 36.9134 36.7406 35.7798L38.038 34.5329C38.038 36.5733 38.5098 38.6137 39.2175 40.6541L31.0791 54.5968L22.9408 40.7674ZM20.4639 19.6833L23.4126 12.6553C25.1818 12.7686 28.0125 13.1087 28.7202 14.3556C29.7817 16.1693 32.6125 18.3231 36.8586 18.3231V16.056C33.7919 16.056 31.6689 14.5823 30.8432 13.2221C29.074 10.1615 23.4126 10.3882 22.7049 10.3882H21.9972L19.4023 16.396C18.9306 15.1491 18.4588 13.6755 17.987 12.3152C17.7511 11.4084 17.3972 9.82141 18.2229 8.5745C18.8126 7.66765 19.9921 7.10088 21.7613 6.98752L22.469 6.87417L22.7049 6.30739C22.8228 6.19403 24.8279 2.22659 29.3099 2.22659C29.7817 2.22659 30.2535 2.33995 30.7253 2.4533C35.2073 3.36015 39.4534 5.17384 43.2277 7.89437C44.1713 8.5745 44.879 10.0481 44.879 11.6351C44.9969 13.7888 43.9354 15.9426 42.0482 17.4162L41.5765 17.7563V22.8573C41.5765 26.2579 40.279 29.3185 37.8021 31.699L35.0893 34.3062C34.4996 34.9863 33.556 35.3264 32.6124 35.3264H29.4279C28.4843 35.3264 27.6587 34.9863 26.951 34.3062L24.2382 31.699C21.8792 29.3185 20.4639 26.1446 20.4639 22.8573V19.6833Z" fill="#525C77"/>
</svg>
