<svg width="55" height="52" viewBox="0 0 55 52" fill="none" xmlns="http://www.w3.org/2000/svg">
<path d="M38.4761 28.6208H29.7314V30.2903H38.4761V28.6208Z" fill="#525C77"/>
<path d="M38.4761 31.9608H29.7314V33.631H38.4761V31.9608Z" fill="#525C77"/>
<path d="M12.2422 40.3103H41.9739V11.9219H12.2422V40.3103ZM13.9911 13.5918H40.2249V38.6404H13.9911V13.5918Z" fill="#525C77"/>
<path d="M1.74892 21.941H0V23.6109H1.74892V21.941Z" fill="#525C77"/>
<path d="M1.74892 15.2611H0V16.9313H1.74892V15.2611Z" fill="#525C77"/>
<path d="M1.74892 28.6208H0V30.2903H1.74892V28.6208Z" fill="#525C77"/>
<path d="M1.74892 35.3004H0V36.9706H1.74892V35.3004Z" fill="#525C77"/>
<path d="M24.4853 50.3296H22.7363V51.9998H24.4853V50.3296Z" fill="#525C77"/>
<path d="M17.4892 50.3296H15.7402V51.9998H17.4892V50.3296Z" fill="#525C77"/>
<path d="M31.4804 50.3296H29.7314V51.9998H31.4804V50.3296Z" fill="#525C77"/>
<path d="M38.4765 50.3296H36.7275V51.9998H38.4765V50.3296Z" fill="#525C77"/>
<path d="M45.472 11.9214V11.5758L42.3362 8.58158H41.9741V0.231934H40.2252V8.58158H38.4763V3.57179H36.7274V8.58158H34.9784V0.231934H33.2295V8.58158H31.4806V3.57179H29.7317V8.58158H27.9828V0.231934H26.2338V8.58158H24.4849V3.57179H22.736V8.58158H20.9871V0.231934H19.2381V8.58158H17.4892V3.57179H15.7403V8.58158H13.9914V0.231934H12.2425V8.58158H11.8804L8.74461 11.5758V11.9214H0V13.5914H8.74461V15.2613H3.49784V16.9312H8.74461V18.6012H0V20.2711H8.74461V21.941H3.49784V23.611H8.74461V25.2809H0V26.9508H8.74461V28.6207H3.49784V30.2907H8.74461V31.9606H0V33.6305H8.74461V35.3005H3.49784V36.9704H8.74461V38.6403H0V40.3102H8.74461V40.6559L11.8804 43.6501H12.2425V51.9998H13.9914V43.6501H15.7403V48.6599H17.4892V43.6501H19.2381V51.9998H20.9871V43.6501H22.736V48.6599H24.4849V43.6501H26.2338V51.9998H27.9828V43.6501H29.7317V48.6599H31.4806V43.6501H33.2295V51.9998H34.9784V43.6501H36.7274V48.6599H38.4763V43.6501H40.2252V51.9998H41.9741V43.6501H42.3362L45.472 40.6559V40.3102H54.2166V38.6403H45.472V36.9704H50.7187V35.3005H45.472V33.6305H54.2166V31.9606H45.472V30.2907H50.7187V28.6207H45.472V26.9508H54.2166V25.2809H45.472V23.611H50.7187V21.941H45.472V20.2711H54.2166V18.6012H45.472V16.9312H50.7187V15.2613H45.472V13.5914H54.2166V11.9214H45.472ZM43.7231 39.9646L41.6121 41.9802H12.6045L10.4935 39.9646V12.2671L12.6045 10.2515H41.6121L43.7231 12.2671V39.9646Z" fill="#525C77"/>
<path d="M54.2167 28.6208H52.4678V30.2903H54.2167V28.6208Z" fill="#525C77"/>
<path d="M54.2167 35.3004H52.4678V36.9706H54.2167V35.3004Z" fill="#525C77"/>
<path d="M54.2167 21.941H52.4678V23.6109H54.2167V21.941Z" fill="#525C77"/>
<path d="M54.2167 15.2611H52.4678V16.9313H54.2167V15.2611Z" fill="#525C77"/>
<path d="M31.4804 0.231934H29.7314V1.90213H31.4804V0.231934Z" fill="#525C77"/>
<path d="M38.4765 0.231934H36.7275V1.90213H38.4765V0.231934Z" fill="#525C77"/>
<path d="M24.4853 0.231934H22.7363V1.90213H24.4853V0.231934Z" fill="#525C77"/>
<path d="M17.4892 0.231934H15.7402V1.90213H17.4892V0.231934Z" fill="#525C77"/>
<path d="M38.4765 35.3004H36.7275V36.9706H38.4765V35.3004Z" fill="#525C77"/>
<path d="M34.9784 35.3004H33.2295V36.9706H34.9784V35.3004Z" fill="#525C77"/>
<path d="M31.4804 35.3004H29.7314V36.9706H31.4804V35.3004Z" fill="#525C77"/>
<path d="M19.2381 15.2611C17.309 15.2611 15.7402 16.7591 15.7402 18.6011C15.7402 20.4431 17.309 21.9411 19.2381 21.9411C21.1671 21.9411 22.7359 20.4431 22.7359 18.6011C22.7359 16.7591 21.1671 15.2611 19.2381 15.2611ZM19.2381 20.2711C18.2735 20.2711 17.4892 19.5221 17.4892 18.6011C17.4892 17.6801 18.2735 16.9311 19.2381 16.9311C20.2026 16.9311 20.987 17.6801 20.987 18.6011C20.987 19.5221 20.2026 20.2711 19.2381 20.2711Z" fill="#525C77"/>
</svg>
