<svg width="106" height="55" viewBox="0 0 106 55" fill="none" xmlns="http://www.w3.org/2000/svg">
<path d="M82.4667 43.2036L82.1265 41.9752C82.1265 41.7434 80.8387 37.4091 80.9602 32.194C81.0817 26.5153 86.0871 22.8531 86.33 22.6213L87.958 24.6147C87.958 24.6147 83.876 27.7206 83.7545 32.1708C83.633 35.3926 84.0946 38.4057 84.4591 39.9587L89.7074 38.5216L90.5336 40.9785L82.4667 43.2036Z" fill="#525C77"/>
<path d="M82.7098 29.1806C82.1266 29.0648 80.4987 28.184 79.0894 24.1743C77.6801 20.2804 75.3475 11.7047 75.2503 11.2644L74.9102 10.0359L82.4911 8.13538L83.1958 10.5922L78.2876 11.8206C78.9922 14.3702 80.6202 20.3963 81.665 23.2704C82.7098 26.1444 83.5359 26.7238 83.6574 26.7238C83.6574 26.7238 83.6574 26.7238 83.5359 26.6079L82.7098 29.1806Z" fill="#525C77"/>
<path d="M94.0332 49.5535C93.3285 49.5535 92.6239 49.3217 92.1622 48.9972C90.753 48.1164 90.2913 46.2158 90.2913 45.8914L80.9609 5.81663L96.9489 1.92273L97.6535 4.3796L84.2411 7.60133L92.9884 45.3119C92.9884 45.6364 93.3285 46.4244 93.693 46.7489C93.8145 46.8648 93.936 46.8648 94.3976 46.8648C96.9732 46.3086 105.234 44.408 105.234 44.408L105.818 46.9575C105.696 46.9575 97.4106 48.8581 94.8593 49.4144C94.6163 49.4376 94.2518 49.5535 94.0332 49.5535Z" fill="#525C77"/>
<path d="M80.134 38.8696C79.4294 38.8696 78.6275 38.7537 78.0444 38.4292C76.8781 37.873 65.3366 26.5158 57.9744 19.0757C57.5127 19.4002 56.9296 19.7478 56.2249 20.0723C55.0586 20.6286 53.8923 20.8604 53.0662 20.9531C52.6045 22.1815 51.6569 24.5225 50.4906 26.7476C49.2028 29.413 45.4853 30.2011 43.3713 29.8534C40.3341 29.413 40.3341 27.9528 40.6986 24.7311C41.0387 21.7179 41.4032 19.4929 41.5247 19.1684C41.6462 18.3803 42.2293 13.8375 44.319 11.9369C46.0684 10.3839 52.9447 6.04967 53.8923 5.4934C54.8156 4.70535 56.9296 3.82458 59.8453 4.93713C62.8825 6.04967 77.6799 11.6124 77.8014 11.7283L76.7566 14.1851C76.6351 14.0692 61.7162 8.50653 58.8005 7.50988C56.8081 6.83772 55.7633 7.50988 55.6418 7.62577L55.5203 7.74166H55.3988C53.3092 9.08598 47.5749 12.7481 46.1899 13.9765C45.1451 14.9732 44.4404 18.1949 44.1975 19.6551V19.771C44.1975 19.771 43.7358 21.9961 43.4928 25.2178C43.3713 25.7741 43.2499 27.0025 43.3713 27.4429C43.4928 27.4429 43.7115 27.5588 43.9545 27.5588C45.2423 27.7906 47.5749 27.2343 48.2795 25.89C49.6888 22.9927 50.9523 19.5392 50.9523 19.5392L51.2924 18.7512H52.2158C52.2158 18.7512 53.9652 18.6353 55.253 18.079C56.5408 17.4069 57.0024 16.8506 57.1239 16.7347L58.0473 15.2977L59.2135 16.642C66.4543 23.7576 78.2145 35.4393 79.6238 36.4359C80.0854 36.6677 81.3732 36.5518 82.1993 36.32L82.904 38.7769C82.3694 38.6378 81.3003 38.8696 80.134 38.8696Z" fill="#525C77"/>
<path d="M42.3516 52.5446C41.4283 52.5446 40.4807 52.2201 39.5574 51.6638C36.3015 49.4388 37.4678 45.429 38.5126 43.6443L38.9742 42.9722H39.8003C39.9218 42.9722 42.4731 43.2039 44.587 44.8727C46.9196 46.7733 47.3812 48.4421 47.3812 48.6507L47.5027 49.207L47.1625 49.7632C46.8953 50.1109 45.1458 52.5446 42.3516 52.5446ZM40.4807 45.7767C40.3592 46.1012 40.2377 46.4488 40.1405 46.8892C39.8975 48.4421 40.6022 49.1143 41.0638 49.4388C41.5255 49.7632 41.8899 49.8791 42.3516 49.8791C43.1777 49.8791 43.9795 49.207 44.4412 48.7666C44.1982 48.3262 43.6151 47.6541 42.6918 46.7733C41.8899 46.3329 41.0638 45.9853 40.4807 45.7767Z" fill="#525C77"/>
<path d="M36.1789 48.209C35.4743 48.209 34.7696 47.9773 34.0893 47.6527C31.052 46.0997 31.6352 42.5301 32.3398 40.9771L32.68 40.3049H33.5061C33.5061 40.3049 33.6276 40.3049 33.7491 40.3049C34.2108 40.3049 36.0817 40.4208 37.7097 41.5334C39.7993 42.8778 40.3825 44.3149 40.504 44.5467L40.7469 45.103L40.504 45.5434C39.8965 46.3315 38.39 48.209 36.1789 48.209ZM34.5509 42.7619C34.308 43.55 34.308 44.7553 35.3771 45.3116C35.6201 45.4275 35.9602 45.5434 36.2032 45.5434C36.7864 45.5434 37.3695 45.103 37.7097 44.6626C37.4667 44.3381 37.005 43.8745 36.3004 43.4341C35.7172 43.0864 35.0126 42.8778 34.5509 42.7619Z" fill="#525C77"/>
<path d="M48.1821 55.0002C47.7204 55.0002 47.1373 54.8843 46.6756 54.6758C43.7599 53.5633 44.0029 50.3417 44.4645 48.8816L44.7075 48.0935L45.5336 47.9777C45.5336 47.9777 45.8738 47.9777 46.3597 47.9777C47.0644 47.9777 48.2307 48.0935 49.397 48.6498C51.3894 49.6464 52.0697 50.7589 52.1912 50.9906L52.4342 51.5469L52.1912 52.1031C51.8024 53.0997 50.3932 55.0002 48.1821 55.0002ZM46.8943 50.5503C46.8943 51.2224 46.8943 51.9872 47.7204 52.3349C47.9634 52.4508 48.0606 52.4508 48.1821 52.4508C48.6437 52.4508 49.0082 52.1263 49.2269 51.6628C48.9839 51.431 48.6437 51.1065 48.0606 50.8748C47.7204 50.6662 47.2588 50.5503 46.8943 50.5503Z" fill="#525C77"/>
<path d="M31.15 44.4315C30.5668 44.4315 29.9837 44.3156 29.4005 43.9911C26.8249 42.6468 27.3109 39.7729 27.9912 38.4286L28.3314 37.7565H29.1575C29.1575 37.7565 29.1575 37.7565 29.279 37.7565C29.8622 37.7565 31.2715 37.8724 32.535 38.7531C34.1629 39.8656 34.7461 40.9781 34.7461 41.2098L34.9891 41.7661L34.7461 42.3224C34.6489 42.3224 33.3854 44.4315 31.15 44.4315ZM30.2266 40.3059C30.1052 40.7463 30.2266 41.4184 30.8098 41.6502C30.9313 41.7661 31.15 41.7661 31.2715 41.7661C31.5144 41.7661 31.7331 41.5343 31.9761 41.3257C31.7331 41.094 31.5144 40.8854 31.15 40.6536C30.6883 40.5377 30.4696 40.4218 30.2266 40.3059Z" fill="#525C77"/>
<path d="M28.7197 40.0968C28.7197 40.0968 26.5086 39.2161 23.8115 38.1963L24.8563 35.7395C27.4319 36.852 29.643 37.7328 29.643 37.7328L28.7197 40.0968Z" fill="#525C77"/>
<path d="M31.7325 13.2803C31.0279 13.2803 30.4447 13.1644 30.2261 13.0485L29.3027 12.8167L30.0074 10.2672L31.0522 10.499C31.0522 10.499 31.9755 10.7308 32.8016 10.3831C33.7249 9.94272 35.8388 8.83021 36.0575 8.71433L46.214 2.7114C46.7972 2.38691 48.8868 1.15851 50.0531 0.926741C51.2194 0.694967 53.0903 0.926741 53.309 0.926741L64.8504 1.80748C65.3121 1.80748 66.8429 2.03925 67.6447 2.91999C68.3493 3.59213 68.6895 5.14502 68.9325 5.70127L69.7586 8.71433L66.9644 9.38647L66.1382 6.2807C66.0167 5.60856 65.7981 4.93642 65.5551 4.72782C65.4336 4.61194 64.8504 4.49605 64.5103 4.40334L53.0903 3.5226C52.3857 3.5226 51.0979 3.40672 50.5147 3.5226C50.1746 3.63849 48.7653 4.19474 47.7205 4.9596L37.4668 11.0552C37.3453 11.0552 35.0127 12.3995 33.9679 12.8399C33.2633 13.1644 32.4372 13.2803 31.7325 13.2803Z" fill="#525C77"/>
<path d="M55.7639 53.7723C53.893 53.7723 51.0988 52.8915 50.5156 52.6598L51.4389 50.203C53.0669 50.7592 55.278 51.1996 55.9826 51.0837C56.5658 50.9678 57.6106 49.9712 58.0722 49.2991L60.2833 50.7361C59.9432 51.1764 58.2909 53.2855 56.3228 53.5173C56.1284 53.7723 56.0069 53.7723 55.7639 53.7723Z" fill="#525C77"/>
<path d="M62.2996 52.5436C62.1781 52.5436 62.1781 52.5436 62.2996 52.5436C58.6792 52.4277 54.1355 47.9777 53.6738 47.4215L55.6662 45.6368C57.2942 47.3056 60.4529 49.855 62.3238 49.855C63.15 49.855 64.4135 48.5108 65.1181 47.6301L67.3292 49.067C66.8432 49.6696 64.8751 52.5436 62.2996 52.5436Z" fill="#525C77"/>
<path d="M67.8881 49.7628C65.8957 49.7628 64.0491 48.2099 63.8061 48.094L57.9746 43.0875L59.8455 41.1869L65.677 46.1934C66.1387 46.5179 67.305 47.3059 68.1311 47.19C69.0544 47.0741 69.6376 46.6338 70.1235 45.753C70.3665 45.3126 70.5852 44.4087 70.5852 43.9683L73.2579 44.0842C73.2579 44.3159 73.1365 45.753 72.4318 46.9814C71.5085 48.5344 70.2207 49.4383 68.4713 49.6469C68.2526 49.7628 68.0096 49.7628 67.8881 49.7628Z" fill="#525C77"/>
<path d="M73.6224 45.428C71.5328 45.428 69.5404 43.875 68.2526 42.7624C66.7461 41.418 62.8827 36.8749 62.6641 36.6431L64.7537 34.9742C65.7985 36.3186 68.9572 39.865 70.1235 40.8617C71.9945 42.6465 73.1608 42.8551 73.7439 42.8551C74.9102 42.7392 75.7363 42.2988 76.3195 41.6266C77.0241 40.7458 77.2428 39.5173 77.1456 38.8451C77.0241 37.9643 76.9026 37.6167 76.1008 36.8517L78.0932 35.067C79.2595 36.1795 79.7212 37.0604 79.8427 38.5206C80.0857 39.865 79.7212 41.7425 78.4334 43.2955C77.3886 44.524 75.8578 45.2889 74.0112 45.5207C73.8411 45.428 73.7196 45.428 73.6224 45.428Z" fill="#525C77"/>
<path d="M87.4966 22.2968L86.792 19.8398L88.7844 19.3994L89.4891 21.9491L87.4966 22.2968ZM91.4572 21.3001L90.874 18.8432L92.8665 18.4028L93.5711 20.9524L91.4572 21.3001ZM95.4178 20.3961L94.7131 17.8465L96.7056 17.4061L97.4102 19.9557L95.4178 20.3961ZM99.4998 19.3994L98.7952 16.8498L100.788 16.4094L101.492 18.9591L99.4998 19.3994Z" fill="#525C77"/>
<path d="M24.1516 43.2039L16.2305 40.8629L17.0566 38.406L22.3049 39.843C22.6451 38.2901 23.1311 35.2769 23.0096 32.0552C22.8881 27.6049 18.806 24.4991 18.806 24.4991L20.434 22.5057C20.677 22.6216 25.5609 26.2838 25.8038 32.0783C25.9253 37.4093 24.759 41.7668 24.6375 41.8596L24.1516 43.2039Z" fill="#525C77"/>
<path d="M23.8115 29.1811L23.1068 26.7243C22.9854 26.7243 22.9854 26.8402 22.9854 26.8402C22.9854 26.8402 23.9087 26.2839 24.9778 23.3867C26.0226 20.4895 27.6506 14.4865 28.3552 11.937L23.447 10.7085L24.1517 8.25171L31.7326 10.1523L31.3924 11.3807C31.2709 11.7052 28.9383 20.3968 27.5534 24.2906C26.0226 28.3004 24.5161 29.0884 23.8115 29.1811Z" fill="#525C77"/>
<path d="M12.6106 49.5536C12.3676 49.5536 12.0275 49.5536 11.7845 49.4377C9.20891 48.8814 0.46166 46.6563 0 46.5405L0.70464 44.0836C0.826129 44.0836 9.79206 46.3087 12.3676 46.8649C12.7078 46.9808 12.9508 46.8649 13.0723 46.7491C13.5339 46.4246 13.7769 45.6365 13.7769 45.312V45.1961L22.5242 7.48546L8.30989 3.82333L9.01452 1.36646L25.6829 5.58486L16.3525 45.6597C16.231 46.1001 15.8908 47.8848 14.4816 48.7655C14.0199 49.3218 13.3153 49.5536 12.6106 49.5536Z" fill="#525C77"/>
<path d="M12.1492 39.9825L10.1568 39.5422L10.7399 36.9927L12.7324 37.433L12.1492 39.9825ZM8.0672 39.1018L6.07479 38.6614L6.65793 36.1119L8.65034 36.5523L8.0672 39.1018ZM4.10667 38.1979L2.11426 37.7575L2.6974 35.208L4.68982 35.6484L4.10667 38.1979Z" fill="#525C77"/>
<path d="M97.629 41.2104C95.0535 41.2104 92.9639 39.2171 92.9639 36.7601C92.9639 34.3032 95.0535 32.3098 97.629 32.3098C100.205 32.3098 102.294 34.3032 102.294 36.7601C102.294 39.2171 100.205 41.2104 97.629 41.2104ZM97.629 34.9754C96.5842 34.9754 95.7581 35.7634 95.7581 36.7601C95.7581 37.7568 96.5842 38.5449 97.629 38.5449C98.6738 38.5449 99.5 37.7568 99.5 36.7601C99.5 35.7634 98.6981 34.9754 97.629 34.9754Z" fill="#525C77"/>
</svg>
