<svg width="84" height="100" viewBox="0 0 84 100" fill="none" xmlns="http://www.w3.org/2000/svg">
<path d="M71.875 96.875H3.125V3.125H71.875V39.0625H75V3.125C75 1.40156 73.5984 0 71.875 0H3.125C1.40156 0 0 1.40156 0 3.125V96.875C0 98.5984 1.40156 100 3.125 100H71.875C73.5984 100 75 98.5984 75 96.875V84.375H71.875V96.875Z" fill="#EAEAEA"/>
<path d="M65.625 92.1875C65.625 91.3266 66.325 90.625 67.1875 90.625C68.0516 90.625 68.75 89.925 68.75 89.0625V81.25H65.625V87.7672C64.2937 88.2391 63.2391 89.2953 62.7672 90.625H54.6875V93.75H64.0625C64.9266 93.75 65.625 93.05 65.625 92.1875Z" fill="#EAEAEA"/>
<path d="M68.75 35.9375V10.9375C68.75 10.075 68.0516 9.375 67.1875 9.375C66.325 9.375 65.625 8.67344 65.625 7.8125C65.625 6.95 64.9266 6.25 64.0625 6.25H10.9375C10.0734 6.25 9.375 6.95 9.375 7.8125C9.375 8.67344 8.675 9.375 7.8125 9.375C6.94844 9.375 6.25 10.075 6.25 10.9375V89.0625C6.25 89.925 6.94844 90.625 7.8125 90.625C8.675 90.625 9.375 91.3266 9.375 92.1875C9.375 93.05 10.0734 93.75 10.9375 93.75H51.5625V90.625H12.2313C11.7594 89.2953 10.7047 88.2406 9.375 87.7688V12.2328C10.7063 11.7609 11.7609 10.7047 12.2328 9.375H62.7672C63.2391 10.7047 64.2938 11.7609 65.625 12.2328V35.9375H68.75Z" fill="#EAEAEA"/>
<path d="M83.6844 53.8345L80.6141 49.1282L79.4563 43.6267C79.3281 43.0204 78.8547 42.547 78.25 42.4204L72.7484 41.2642L68.0422 38.1923C67.5234 37.8532 66.8516 37.8532 66.3328 38.1923L61.6266 41.2642L56.125 42.4204C55.5187 42.5485 55.0469 43.022 54.9187 43.6267L53.7609 49.1282L50.6906 53.8345C50.3531 54.3532 50.3531 55.0235 50.6906 55.5423L53.7609 60.2485L54.9187 65.7501C55.0469 66.3563 55.5203 66.8298 56.125 66.9563L57.8125 67.3095V81.2501C57.8125 81.8157 58.1187 82.3376 58.6141 82.6142C59.1062 82.8907 59.7094 82.8782 60.1953 82.5813L67.1875 78.2767L74.1812 82.5798C74.4328 82.7345 74.7156 82.8126 75 82.8126C75.2625 82.8126 75.525 82.747 75.7609 82.6142C76.2562 82.3376 76.5625 81.8157 76.5625 81.2501V67.3095L78.2484 66.9548C78.8547 66.8267 79.3266 66.3532 79.4547 65.7485L80.6125 60.247L83.6828 55.5407C84.0203 55.022 84.0203 54.3532 83.6844 53.8345ZM73.4375 78.4532L68.0062 75.111C67.5031 74.8017 66.8703 74.8017 66.3672 75.111L60.9375 78.4532V67.9673L61.6266 68.1126L66.3328 71.1845C66.5922 71.3532 66.8906 71.4376 67.1875 71.4376C67.4844 71.4376 67.7828 71.3532 68.0422 71.1829L72.7484 68.111L73.4375 67.9673V78.4532ZM77.8344 58.786C77.7297 58.9485 77.6547 59.1282 77.6141 59.3173L76.6062 64.1063L71.8156 65.1142C71.6266 65.1532 71.4469 65.2282 71.2828 65.3345L67.1875 68.0095L63.0906 65.336C62.9281 65.2298 62.7469 65.1548 62.5578 65.1157L57.7672 64.1079L56.7594 59.3188C56.7203 59.1298 56.6453 58.9501 56.5391 58.7876L53.8672 54.6876L56.5406 50.5892C56.6453 50.4267 56.7203 50.247 56.7609 50.0579L57.7687 45.2688L62.5594 44.261C62.7484 44.222 62.9281 44.147 63.0922 44.0407L67.1875 41.3657L71.2844 44.0392C71.4469 44.1454 71.6281 44.2204 71.8172 44.2595L76.6078 45.2673L77.6156 50.0563C77.6547 50.2454 77.7297 50.4251 77.8359 50.5876L80.5078 54.6876L77.8344 58.786Z" fill="#EAEAEA"/>
<path d="M67.1875 45.3125C62.0172 45.3125 57.8125 49.5172 57.8125 54.6875C57.8125 59.8578 62.0172 64.0625 67.1875 64.0625C72.3578 64.0625 76.5625 59.8578 76.5625 54.6875C76.5625 49.5172 72.3578 45.3125 67.1875 45.3125ZM67.1875 60.9375C63.7406 60.9375 60.9375 58.1344 60.9375 54.6875C60.9375 51.2406 63.7406 48.4375 67.1875 48.4375C70.6344 48.4375 73.4375 51.2406 73.4375 54.6875C73.4375 58.1344 70.6344 60.9375 67.1875 60.9375Z" fill="#EAEAEA"/>
<path d="M59.375 34.375H15.625V37.5H59.375V34.375Z" fill="#EAEAEA"/>
<path d="M25 43.75H15.625V46.875H25V43.75Z" fill="#EAEAEA"/>
<path d="M50 43.75H28.125V46.875H50V43.75Z" fill="#EAEAEA"/>
<path d="M40.625 53.125H15.625V56.25H40.625V53.125Z" fill="#EAEAEA"/>
<path d="M48.4375 53.125H43.75V56.25H48.4375V53.125Z" fill="#EAEAEA"/>
<path d="M31.25 62.5H15.625V65.625H31.25V62.5Z" fill="#EAEAEA"/>
<path d="M50 62.5H34.375V65.625H50V62.5Z" fill="#EAEAEA"/>
<path d="M40.625 71.875H15.625V75H40.625V71.875Z" fill="#EAEAEA"/>
<path d="M53.125 71.875H43.75V75H53.125V71.875Z" fill="#EAEAEA"/>
<path d="M46.875 81.25H28.125V84.375H46.875V81.25Z" fill="#EAEAEA"/>
<path d="M28.125 28.125H46.875C47.3797 28.125 47.8547 27.8797 48.1469 27.4688L49.7094 25.2734C49.9 25.0094 50 24.6922 50 24.3672V19.5312C50 19.2234 49.9078 18.9203 49.7375 18.6641L48.175 16.3203C47.8844 15.8859 47.3969 15.625 46.875 15.625H28.125C27.5875 15.625 27.0875 15.9016 26.8016 16.3578L25.2391 18.8484C25.0828 19.0969 25 19.3844 25 19.6781V24.0719C25 24.3656 25.0828 24.6547 25.2391 24.9031L26.8016 27.3922C27.0875 27.8484 27.5875 28.125 28.125 28.125ZM28.125 20.1281L28.9891 18.75H46.0391L46.875 20.0047V23.8687L46.0688 25H28.9891L28.125 23.6234V20.1281Z" fill="#EAEAEA"/>
<path d="M59.375 20.3125H53.125V23.4375H59.375V20.3125Z" fill="#EAEAEA"/>
<path d="M21.875 20.3125H15.625V23.4375H21.875V20.3125Z" fill="#EAEAEA"/>
</svg>
