<svg width="100" height="100" viewBox="0 0 100 100" fill="none" xmlns="http://www.w3.org/2000/svg">
<path d="M66.5569 34.4047C66.4532 34.1334 66.2803 33.894 66.0555 33.7101C65.8307 33.5262 65.5617 33.4043 65.2753 33.3564L56.1086 31.828L51.5003 22.588C51.3463 22.3297 51.1279 22.1159 50.8664 21.9673C50.6049 21.8188 50.3093 21.7407 50.0086 21.7407C49.7079 21.7407 49.4123 21.8188 49.1509 21.9673C48.8894 22.1159 48.671 22.3297 48.517 22.588L43.8886 31.833L34.722 33.3614C34.4354 33.4093 34.1664 33.5312 33.9415 33.7152C33.7166 33.8991 33.5438 34.1386 33.44 34.41C33.3362 34.6813 33.3052 34.9751 33.35 35.2621C33.3948 35.5492 33.5138 35.8195 33.6953 36.0464L39.912 43.8164L38.347 54.768C38.3011 55.0867 38.3486 55.4119 38.4837 55.7041C38.6187 55.9964 38.8355 56.2433 39.1078 56.415C39.3802 56.5867 39.6965 56.6759 40.0184 56.6717C40.3403 56.6675 40.6542 56.5701 40.922 56.3914L50.0003 50.333L59.0753 56.383C59.3431 56.5618 59.6569 56.6591 59.9788 56.6633C60.3008 56.6675 60.617 56.5784 60.8894 56.4067C61.1618 56.235 61.3785 55.9881 61.5136 55.6958C61.6486 55.4035 61.6961 55.0784 61.6503 54.7597L60.0853 43.808L66.302 36.038C66.4828 35.8115 66.6015 35.5417 66.6462 35.2552C66.6909 34.9688 66.6602 34.6756 66.5569 34.4047ZM57.032 42.2914C56.8896 42.4693 56.7852 42.6746 56.7253 42.8944C56.6654 43.1143 56.6512 43.3441 56.6836 43.5697L57.8236 51.5447L50.9253 46.9464C50.6514 46.7636 50.3295 46.6661 50.0003 46.6661C49.671 46.6661 49.3492 46.7636 49.0753 46.9464L42.177 51.5447L43.317 43.5697C43.3494 43.3441 43.3352 43.1143 43.2753 42.8944C43.2154 42.6746 43.111 42.4693 42.9686 42.2914L38.077 36.1764L45.2753 34.9764C45.5346 34.9332 45.7799 34.8293 45.9914 34.6732C46.2028 34.517 46.3744 34.3131 46.492 34.078L50.0003 27.0597L53.5003 34.078C53.6179 34.3131 53.7894 34.517 54.0009 34.6732C54.2123 34.8293 54.4577 34.9332 54.717 34.9764L61.9153 36.1764L57.032 42.2914Z"/>
<path d="M49.9997 13.333C44.7255 13.333 39.5698 14.897 35.1845 17.8272C30.7992 20.7573 27.3812 24.9221 25.3629 29.7948C23.3446 34.6675 22.8165 40.0293 23.8454 45.2021C24.8744 50.3749 27.4141 55.1265 31.1435 58.8559C34.8729 62.5853 39.6245 65.125 44.7973 66.1539C49.9701 67.1829 55.3319 66.6548 60.2046 64.6365C65.0773 62.6181 69.242 59.2002 72.1722 54.8149C75.1024 50.4296 76.6664 45.2738 76.6664 39.9997C76.658 32.9298 73.8458 26.1519 68.8466 21.1527C63.8475 16.1536 57.0696 13.3414 49.9997 13.333ZM49.9997 63.333C45.3848 63.333 40.8735 61.9645 37.0364 59.4006C33.1992 56.8367 30.2085 53.1926 28.4425 48.929C26.6765 44.6653 26.2144 39.9738 27.1147 35.4476C28.015 30.9213 30.2373 26.7637 33.5005 23.5005C36.7638 20.2373 40.9214 18.015 45.4476 17.1147C49.9738 16.2144 54.6654 16.6764 58.929 18.4425C63.1926 20.2085 66.8367 23.1992 69.4006 27.0364C71.9645 30.8735 73.333 35.3848 73.333 39.9997C73.3264 46.186 70.866 52.1171 66.4915 56.4915C62.1171 60.8659 56.186 63.3264 49.9997 63.333Z"/>
<path d="M98.3333 0H1.66667C1.22464 0 0.800716 0.175595 0.488155 0.488155C0.175595 0.800716 0 1.22464 0 1.66667V78.3333C0 78.7754 0.175595 79.1993 0.488155 79.5118C0.800716 79.8244 1.22464 80 1.66667 80H41.6667V90H15C14.558 90 14.134 90.1756 13.8215 90.4882C13.5089 90.8007 13.3333 91.2246 13.3333 91.6667V98.3333C13.3333 98.7754 13.5089 99.1993 13.8215 99.5118C14.134 99.8244 14.558 100 15 100H85C85.442 100 85.866 99.8244 86.1785 99.5118C86.4911 99.1993 86.6667 98.7754 86.6667 98.3333V91.6667C86.6667 91.2246 86.4911 90.8007 86.1785 90.4882C85.866 90.1756 85.442 90 85 90H58.3333V80H98.3333C98.7754 80 99.1993 79.8244 99.5118 79.5118C99.8244 79.1993 100 78.7754 100 78.3333V1.66667C100 1.22464 99.8244 0.800716 99.5118 0.488155C99.1993 0.175595 98.7754 0 98.3333 0ZM83.3333 96.6667H16.6667V93.3333H83.3333V96.6667ZM55 90H45V80H55V90ZM96.6667 76.6667H3.33333V3.33333H96.6667V76.6667Z"/>
<path d="M8.33366 73.3332H91.667C92.109 73.3332 92.533 73.1576 92.8455 72.845C93.1581 72.5325 93.3337 72.1085 93.3337 71.6665V8.33317C93.3337 7.89114 93.1581 7.46722 92.8455 7.15466C92.533 6.8421 92.109 6.6665 91.667 6.6665H8.33366C7.89163 6.6665 7.46771 6.8421 7.15515 7.15466C6.84259 7.46722 6.66699 7.89114 6.66699 8.33317V71.6665C6.66699 72.1085 6.84259 72.5325 7.15515 72.845C7.46771 73.1576 7.89163 73.3332 8.33366 73.3332ZM10.0003 9.99984H90.0003V69.9998H10.0003V9.99984Z"/>
<path d="M16.6663 16.6663H24.9997V13.333H13.333V24.9997H16.6663V16.6663Z"/>
<path d="M16.6663 55H13.333V66.6667H24.9997V63.3333H16.6663V55Z"/>
<path d="M75 16.6663H83.3333V24.9997H86.6667V13.333H75V16.6663Z"/>
<path d="M83.3333 63.3333H75V66.6667H86.6667V55H83.3333V63.3333Z"/>
</svg>
