<svg width="85" height="100" viewBox="0 0 85 100" fill="none" xmlns="http://www.w3.org/2000/svg">
<path d="M54.2164 26.4868H13.1349C12.7194 26.4868 12.321 26.651 12.0272 26.9432C11.7334 27.2353 11.5684 27.6316 11.5684 28.0449C11.5684 28.4581 11.7334 28.8544 12.0272 29.1465C12.321 29.4387 12.7194 29.6029 13.1349 29.6029H54.2164C54.6318 29.6029 55.0303 29.4387 55.3241 29.1465C55.6178 28.8544 55.7829 28.4581 55.7829 28.0449C55.7829 27.6316 55.6178 27.2353 55.3241 26.9432C55.0303 26.651 54.6318 26.4868 54.2164 26.4868Z" fill="#EAEAEA"/>
<path d="M13.1349 91.9242H54.2164C54.6318 91.9242 55.0303 91.76 55.3241 91.4678C55.6178 91.1757 55.7829 90.7794 55.7829 90.3661C55.7829 89.9529 55.6178 89.5566 55.3241 89.2644C55.0303 88.9723 54.6318 88.8081 54.2164 88.8081H13.1349C12.7194 88.8081 12.321 88.9723 12.0272 89.2644C11.7334 89.5566 11.5684 89.9529 11.5684 90.3661C11.5684 90.7794 11.7334 91.1757 12.0272 91.4678C12.321 91.76 12.7194 91.9242 13.1349 91.9242Z" fill="#EAEAEA"/>
<path d="M54.8273 35.8349C55.1244 35.6933 55.4337 35.5785 55.7515 35.4921C55.673 35.146 55.4781 34.8368 55.1989 34.6158C54.9198 34.3949 54.5732 34.2753 54.2164 34.2769H13.1349C12.7194 34.2769 12.321 34.441 12.0272 34.7332C11.7334 35.0254 11.5684 35.4217 11.5684 35.8349C11.5684 36.2481 11.7334 36.6444 12.0272 36.9366C12.321 37.2288 12.7194 37.3929 13.1349 37.3929H52.8378C53.3709 36.7275 54.0519 36.1942 54.8273 35.8349Z" fill="#EAEAEA"/>
<path d="M1.5665 51.4151C1.98196 51.4151 2.38041 51.251 2.67419 50.9588C2.96796 50.6666 3.133 50.2703 3.133 49.8571V7.01115C3.133 4.42482 4.44886 3.11607 7.04926 3.11607H37.596V13.9756C37.5898 15.0025 37.7879 16.0205 38.1787 16.9711C38.5696 17.9216 39.1455 18.7859 39.8734 19.5143C40.6014 20.2426 41.4669 20.8206 42.4203 21.215C43.3736 21.6095 44.396 21.8125 45.4286 21.8125H64.2266V33.5445C64.4067 33.5445 64.5869 33.5055 64.7748 33.5055C65.6725 33.5032 66.558 33.7114 67.3596 34.1132V18.6964L40.4392 0H7.04926C2.70222 0 0 2.68761 0 7.01115V49.8571C0 50.2703 0.165042 50.6666 0.458818 50.9588C0.752594 51.251 1.15104 51.4151 1.5665 51.4151ZM40.729 13.9756V4.01194L61.9238 18.6964H45.4286C44.8074 18.6964 44.1925 18.574 43.6192 18.3362C43.046 18.0984 42.5258 17.7499 42.0888 17.3109C41.6518 16.8719 41.3066 16.3511 41.0732 15.7786C40.8398 15.2061 40.7228 14.5933 40.729 13.9756Z" fill="#EAEAEA"/>
<path d="M64.2266 80.5814V92.7029C64.2266 95.2892 62.9107 96.598 60.3103 96.598H7.04926C4.44886 96.598 3.133 95.2892 3.133 92.7029V62.3212C3.133 61.908 2.96796 61.5117 2.67419 61.2195C2.38041 60.9273 1.98196 60.7632 1.5665 60.7632C1.15104 60.7632 0.752594 60.9273 0.458818 61.2195C0.165042 61.5117 0 61.908 0 62.3212V92.7029C0 97.0264 2.70222 99.714 7.04926 99.714H60.3103C64.6574 99.714 67.3596 97.0264 67.3596 92.7029V83.9857L65.0098 78.8753L64.2266 80.5814Z" fill="#EAEAEA"/>
<path d="M83.0244 56.7747C82.7727 56.5031 82.5373 56.217 82.3195 55.9178C82.5308 55.6105 82.761 55.3165 83.0088 55.0375C83.792 54.1105 84.7867 52.9653 84.4421 51.5553C84.0975 50.1453 82.7033 49.5766 81.5833 49.1014C81.2204 48.958 80.8672 48.7915 80.5259 48.6028C80.5823 48.2452 80.6608 47.8914 80.7608 47.5434C81.0663 46.3671 81.4423 44.9025 80.5024 43.7729C80.1456 43.4119 79.7121 43.1349 79.2337 42.9624C78.7552 42.7898 78.244 42.7261 77.7375 42.7758H76.8916C76.4769 42.8023 76.0609 42.8023 75.6462 42.7758C75.5194 42.4044 75.4199 42.0242 75.3486 41.6384C75.1058 40.4777 74.8003 39.0287 73.4923 38.4289C73.1508 38.273 72.7792 38.1932 72.4036 38.1952C71.4434 38.278 70.5183 38.5937 69.7092 39.1144C69.3655 39.3038 69.0097 39.4703 68.6439 39.613C68.3614 39.3336 68.0997 39.0342 67.8607 38.7171C67.1244 37.7823 66.208 36.6138 64.7277 36.6138C63.2473 36.6138 62.3779 37.829 61.6574 38.7872C61.433 39.1048 61.187 39.4068 60.9211 39.6909C60.5501 39.5546 60.189 39.3933 59.8402 39.2079C59.0475 38.7315 58.1549 38.4436 57.232 38.3666C56.8419 38.3637 56.4562 38.4489 56.1041 38.6158C54.7961 39.2391 54.5376 40.7036 54.3026 41.8721C54.2419 42.2489 54.1556 42.6211 54.0442 42.9861C53.8407 42.9997 53.6366 42.9997 53.4332 42.9861H52.2662C51.5534 42.9861 50.0809 42.9861 49.2115 44.069C48.3421 45.1518 48.6945 46.6865 49.0235 47.855C49.1518 48.2041 49.259 48.5605 49.3446 48.9222C49.0063 49.1183 48.6558 49.2926 48.2951 49.4442C47.1829 49.935 45.8044 50.5504 45.4911 51.9448C45.1778 53.3393 46.2116 54.5312 46.9949 55.4037C47.2494 55.675 47.4874 55.9611 47.7077 56.2606C47.4883 56.5682 47.2503 56.8622 46.9949 57.1409C46.2116 58.0679 45.2169 59.2131 45.5615 60.6231C45.9062 62.0331 47.3004 62.6018 48.4204 63.077C48.7829 63.2182 49.1361 63.3821 49.4778 63.5678C49.4209 63.9253 49.3425 64.2791 49.2428 64.6272C48.9374 65.8035 48.5614 67.2681 49.5091 68.3977C49.8659 68.7587 50.2994 69.0357 50.7778 69.2082C51.2563 69.3808 51.7675 69.4445 52.274 69.3948H53.1199H53.7935L48.3108 80.9866C48.1781 81.2687 48.1335 81.5839 48.1827 81.8915C48.2319 82.1991 48.3726 82.4849 48.5868 82.7121C48.8009 82.9394 49.0786 83.0976 49.384 83.1663C49.6895 83.235 50.0086 83.2111 50.3002 83.0977L54.3653 81.5397L55.5637 85.4348C55.667 85.7252 55.8546 85.9787 56.1028 86.1631C56.3509 86.3475 56.6485 86.4546 56.9578 86.4709H57.0597C57.3601 86.4709 57.6543 86.385 57.907 86.2234C58.1598 86.0618 58.3605 85.8313 58.4852 85.5594L63.3962 74.8713C63.8907 75.3034 64.5238 75.5464 65.182 75.5568C65.7175 75.5451 66.2367 75.3712 66.6702 75.0583L71.495 85.5516C71.6197 85.8235 71.8204 86.054 72.0731 86.2156C72.3259 86.3772 72.62 86.4631 72.9205 86.4631H73.0223C73.3393 86.4422 73.6424 86.3259 73.8913 86.1297C74.1403 85.9336 74.3235 85.6668 74.4165 85.3647L75.6149 81.4696L79.68 83.0276C79.9716 83.141 80.2907 83.1649 80.5961 83.0962C80.9016 83.0275 81.1793 82.8693 81.3934 82.642C81.6075 82.4148 81.7483 82.1289 81.7975 81.8214C81.8467 81.5138 81.8021 81.1986 81.6694 80.9165L76.0927 69.1299H77.6592C78.3641 69.1299 79.8444 69.1299 80.7138 68.0471C81.5833 66.9643 81.2308 65.4296 80.894 64.2611C80.802 63.9305 80.7288 63.5949 80.6747 63.2562C81.0155 63.0597 81.3687 62.8854 81.7321 62.7342C82.8443 62.2434 84.2228 61.628 84.5361 60.2336C84.8494 58.8391 83.8077 57.6472 83.0244 56.7747ZM57.3573 80.5348L56.8717 78.9767C56.8093 78.7736 56.7058 78.5853 56.5675 78.4234C56.4292 78.2615 56.2591 78.1294 56.0677 78.0353C55.8762 77.9412 55.6674 77.887 55.4541 77.8761C55.2409 77.8652 55.0276 77.8977 54.8274 77.9718L52.8536 78.7508L55.6107 72.9471C55.8578 73.283 56.1866 73.551 56.5662 73.7261C56.9077 73.8818 57.2793 73.9616 57.6549 73.9599C58.5996 73.8782 59.5105 73.5708 60.3102 73.064L60.9759 72.729L57.3573 80.5348ZM75.2154 77.9718C75.0144 77.8938 74.7994 77.8579 74.5838 77.8665C74.3682 77.875 74.1568 77.9277 73.9626 78.0213C73.7685 78.1149 73.5959 78.2474 73.4557 78.4105C73.3154 78.5736 73.2106 78.7637 73.1476 78.9689L72.662 80.527L68.9807 72.5265L69.0199 72.4875C69.3907 72.6241 69.7519 72.7855 70.1008 72.9705C70.8958 73.4481 71.7912 73.736 72.7168 73.8118C73.1095 73.8156 73.4979 73.7304 73.8526 73.5626C74.0972 73.4421 74.3196 73.2814 74.5105 73.0874L77.1892 78.743L75.2154 77.9718ZM80.4554 59.8908C79.4528 60.3348 78.3093 60.8412 77.8001 61.9007C77.291 62.9601 77.62 64.1131 77.9098 65.1414C77.9803 65.3985 78.0821 65.7646 78.1369 66.045C77.9176 66.045 77.5182 66.045 77.1344 66.045C75.9987 66.045 74.8395 65.9827 73.9309 66.7072C73.0223 67.4317 72.7717 68.6547 72.568 69.722C72.521 69.9713 72.4505 70.3218 72.3801 70.5945C72.0981 70.4854 71.7456 70.3063 71.495 70.1816C70.7151 69.7071 69.8362 69.4166 68.9259 69.3325C68.7202 69.3325 68.5153 69.356 68.315 69.4026C67.1714 69.6675 66.4352 70.649 65.7851 71.5137C65.6206 71.7319 65.3856 72.0435 65.1976 72.2928C65.0018 72.0824 64.759 71.7786 64.5945 71.5605C63.9288 70.7113 63.169 69.7454 62.0176 69.5039C61.8347 69.4666 61.6483 69.4483 61.4615 69.4493C60.5286 69.5291 59.6286 69.8311 58.8376 70.3296C58.587 70.4621 58.2267 70.649 57.9526 70.7581C57.8742 70.4932 57.8038 70.1427 57.7489 69.9012C57.5218 68.8339 57.2711 67.6264 56.3156 66.902C55.5946 66.4092 54.7296 66.1681 53.8562 66.2164H53.0024C52.6813 66.2164 52.3288 66.2164 52.086 66.2164C52.133 65.9438 52.227 65.5932 52.2897 65.3439C52.556 64.3078 52.8614 63.1315 52.3367 62.0876C51.8119 61.0437 50.6605 60.5296 49.6501 60.1401C49.4151 60.0388 49.0862 59.8986 48.8669 59.774C49.0313 59.548 49.2585 59.2832 49.423 59.0962C50.1279 58.3328 50.9111 57.3979 50.9111 56.2216C50.9111 55.0453 50.0809 54.1417 49.3446 53.3315C49.1802 53.1445 48.9452 52.8874 48.7729 52.6615C49.0235 52.5291 49.3446 52.3889 49.5561 52.2876C50.5587 51.8436 51.7022 51.3372 52.2113 50.2777C52.7205 49.2183 52.3915 48.0653 52.1017 47.037C52.0312 46.7799 51.9294 46.4138 51.8745 46.1334C52.0939 46.1334 52.5011 46.1334 52.8771 46.1334C54.0128 46.1334 55.172 46.1957 56.0806 45.4712C56.9892 44.7467 57.2398 43.5237 57.4435 42.4642C57.4905 42.2149 57.5609 41.8643 57.6314 41.5917C57.9056 41.7008 58.2659 41.8799 58.5165 42.0046C59.2994 42.4775 60.181 42.7653 61.0934 42.8459C61.2991 42.8459 61.5041 42.8223 61.7043 42.7758C62.8479 42.5109 63.5841 41.5294 64.2342 40.6647C64.3987 40.4465 64.6337 40.1349 64.8217 39.8856C65.0175 40.096 65.2603 40.3998 65.4248 40.6179C66.0905 41.467 66.8503 42.433 68.0017 42.6823C68.182 42.7194 68.3658 42.7377 68.55 42.7368C69.483 42.6574 70.383 42.3554 71.1738 41.8566C71.4245 41.7241 71.7769 41.5372 72.0589 41.4281C72.1372 41.693 72.2077 42.0435 72.2547 42.285C72.4819 43.3523 72.7325 44.5597 73.6881 45.2842C74.4105 45.7572 75.2689 45.9816 76.1318 45.923H76.9856C77.3067 45.923 77.667 45.923 77.902 45.923C77.855 46.2035 77.761 46.5462 77.6983 46.7955C77.432 47.8316 77.1266 49.0079 77.6513 50.0518C78.1761 51.0957 79.3275 51.6098 80.3379 51.9994C80.5729 52.1006 80.9018 52.2409 81.1211 52.3655C80.9566 52.5914 80.7295 52.8563 80.565 53.0432C79.8601 53.869 79.0533 54.8038 79.069 55.9801C79.0847 57.1565 79.8993 58.0679 80.6355 58.8703C80.8 59.0573 81.035 59.3143 81.2073 59.5402C81.0036 59.6493 80.6747 59.7895 80.4554 59.8908Z" fill="#EAEAEA"/>
<path d="M65.0094 46.7412C63.1504 46.7412 61.3332 47.2895 59.7876 48.3167C58.2419 49.3439 57.0372 50.8039 56.3258 52.512C55.6144 54.2202 55.4283 56.0998 55.791 57.9132C56.1536 59.7265 57.0488 61.3922 58.3633 62.6996C59.6777 64.007 61.3525 64.8973 63.1757 65.258C64.9989 65.6187 66.8888 65.4336 68.6062 64.726C70.3237 64.0185 71.7916 62.8203 72.8244 61.283C73.8571 59.7457 74.4084 57.9383 74.4084 56.0894C74.4084 53.6101 73.4181 51.2324 71.6555 49.4792C69.8928 47.7261 67.5021 46.7412 65.0094 46.7412ZM65.0094 62.3216C63.7701 62.3216 62.5586 61.956 61.5282 61.2712C60.4977 60.5865 59.6946 59.6131 59.2203 58.4744C58.7461 57.3356 58.622 56.0825 58.8638 54.8736C59.1055 53.6647 59.7023 52.5542 60.5786 51.6826C61.4549 50.8111 62.5714 50.2175 63.7869 49.977C65.0024 49.7366 66.2623 49.86 67.4073 50.3317C68.5522 50.8034 69.5308 51.6022 70.2194 52.627C70.9079 53.6519 71.2754 54.8568 71.2754 56.0894C71.2754 57.7423 70.6152 59.3274 69.4401 60.4962C68.265 61.665 66.6712 62.3216 65.0094 62.3216Z" fill="#EAEAEA"/>
<path d="M1.5665 57.6473C2.43166 57.6473 3.133 56.9498 3.133 56.0893C3.133 55.2288 2.43166 54.5312 1.5665 54.5312C0.701347 54.5312 0 55.2288 0 56.0893C0 56.9498 0.701347 57.6473 1.5665 57.6473Z" fill="#EAEAEA"/>
<path d="M46.8225 42.1448L46.893 42.0669H13.1349C12.7194 42.0669 12.321 42.231 12.0272 42.5232C11.7334 42.8154 11.5684 43.2117 11.5684 43.6249C11.5684 44.0381 11.7334 44.4344 12.0272 44.7266C12.321 45.0188 12.7194 45.183 13.1349 45.183H45.6163C45.7031 44.0729 46.1233 43.0144 46.8225 42.1448Z" fill="#EAEAEA"/>
<path d="M11.5684 51.415C11.5684 51.8282 11.7334 52.2245 12.0272 52.5167C12.321 52.8089 12.7194 52.973 13.1349 52.973H42.2953C42.1964 51.8959 42.4141 50.8134 42.9219 49.8569H13.1349C12.7194 49.8569 12.321 50.0211 12.0272 50.3133C11.7334 50.6055 11.5684 51.0018 11.5684 51.415Z" fill="#EAEAEA"/>
<path d="M13.1349 57.6475C12.7194 57.6475 12.321 57.8116 12.0272 58.1038C11.7334 58.396 11.5684 58.7923 11.5684 59.2055C11.5684 59.6187 11.7334 60.015 12.0272 60.3072C12.321 60.5994 12.7194 60.7635 13.1349 60.7635H42.4284C42.2863 59.7008 42.452 58.6198 42.9062 57.6475H13.1349Z" fill="#EAEAEA"/>
<path d="M13.1349 65.4375C12.7194 65.4375 12.321 65.6016 12.0272 65.8938C11.7334 66.186 11.5684 66.5823 11.5684 66.9955C11.5684 67.4088 11.7334 67.805 12.0272 68.0972C12.321 68.3894 12.7194 68.5536 13.1349 68.5536H46.0941C45.7872 67.5441 45.7175 66.478 45.8904 65.4375H13.1349Z" fill="#EAEAEA"/>
<path d="M13.1349 73.2275C12.7194 73.2275 12.321 73.3917 12.0272 73.6839C11.7334 73.9761 11.5684 74.3724 11.5684 74.7856C11.5684 75.1988 11.7334 75.5951 12.0272 75.8873C12.321 76.1795 12.7194 76.3436 13.1349 76.3436H47.034L48.5065 73.2275H13.1349Z" fill="#EAEAEA"/>
<path d="M13.1349 81.0181C12.7194 81.0181 12.321 81.1822 12.0272 81.4744C11.7334 81.7666 11.5684 82.1629 11.5684 82.5761C11.5684 82.9893 11.7334 83.3856 12.0272 83.6778C12.321 83.97 12.7194 84.1341 13.1349 84.1341H45.7886C45.193 83.21 44.9435 82.1069 45.0837 81.0181H13.1349Z" fill="#EAEAEA"/>
</svg>
