<svg width="72" height="102" viewBox="0 0 72 102" fill="none" xmlns="http://www.w3.org/2000/svg">
<path d="M49.7252 67.7877L41.4377 66.5127L37.6127 58.8627C36.9752 57.3752 34.4252 57.3752 33.7877 58.8627L29.9627 66.5127L21.6752 67.7877C20.8252 68.0002 20.1877 68.4252 19.9752 69.2752C19.7627 70.1252 19.9752 70.9752 20.6127 71.4002L26.5627 77.3502L25.0752 85.4252C24.8627 86.2752 25.2877 87.1252 25.9252 87.5502C26.5627 87.9752 27.4127 88.1877 28.2627 87.7627L35.7002 83.9377L43.1377 87.7627C43.7752 88.1877 44.6252 87.9752 45.4752 87.5502C46.1127 87.1252 46.5377 86.2752 46.3252 85.4252L44.8377 77.1377L50.7877 71.1877C51.4252 70.5502 51.6377 69.7002 51.4252 69.0627C51.2127 68.4252 50.5752 67.7877 49.7252 67.7877ZM41.0127 75.0127C40.5877 75.4377 40.3752 76.2877 40.3752 76.9252L41.2252 82.0252L36.5502 79.6877C36.3377 79.4752 35.9127 79.4752 35.4877 79.4752C35.0627 79.4752 34.8502 79.4752 34.4252 79.6877L29.7502 82.0252L30.6002 76.9252C30.8127 76.2877 30.3877 75.4377 29.9627 75.0127L26.1377 71.4002L31.2377 70.5502C31.8752 70.5502 32.5127 69.9127 32.9377 69.4877L35.2752 64.8127L37.6127 69.4877C37.8252 70.1252 38.4627 70.5502 39.3127 70.5502L44.4127 71.4002L41.0127 75.0127Z"/>
<path d="M71.4 6.375C71.4 2.7625 68.6375 0 65.025 0H6.375C2.7625 0 0 2.7625 0 6.375V15.725C0 15.9375 0.212501 16.3625 0.212501 16.7875C0.212501 16.7875 0.212501 16.7875 0.212501 17L16.575 41.225C15.9375 42.7125 15.725 44.4125 15.725 46.1125V51.85C9.9875 57.1625 6.5875 64.6 6.5875 73.1C6.5875 88.825 19.55 102 35.7 102C51.85 102 64.8125 88.825 64.8125 72.8875C64.8125 64.6 61.2 56.95 55.675 51.6375V45.9C55.675 44.2 55.25 42.5 54.825 41.0125L70.975 17C71.1875 16.7875 71.4 16.15 71.4 15.725V6.375ZM4.25 6.375C4.25 5.1 5.1 4.25 6.375 4.25H64.8125C66.0875 4.25 66.9375 5.1 66.9375 6.375V13.6H4.25V6.375ZM40.375 32.0875H31.2375L21.8875 17.85H50.15L40.375 32.0875ZM6.1625 17.85H16.575L26.35 32.5125C23.5875 33.15 21.0375 34.85 19.125 36.975L6.1625 17.85ZM60.5625 72.8875C60.5625 86.4875 49.5125 97.75 35.7 97.75C21.8875 97.75 10.8375 86.4875 10.8375 72.8875C10.8375 59.2875 21.8875 48.025 35.7 48.025C49.5125 48.025 60.5625 59.075 60.5625 72.8875ZM35.7 43.775C29.9625 43.775 24.65 45.475 19.975 48.45V46.1125C19.975 40.8 24.225 36.55 29.5375 36.55H41.65C46.9625 36.55 51.2125 40.8 51.2125 46.1125V48.45C46.75 45.475 41.4375 43.775 35.7 43.775ZM45.2625 32.5125L55.25 17.85H65.2375L52.275 36.975C50.3625 34.85 48.025 33.3625 45.2625 32.5125Z"/>
</svg>
