<svg width="942" height="2058" viewBox="0 0 942 2058" fill="none" xmlns="http://www.w3.org/2000/svg">
<path d="M363 -16.0002C454.189 -17.6094 232.342 370.698 414.485 567.151C686 860 502.016 1098 403 1282.5C262.507 1544.29 421.937 1820.28 549.154 1939.99C640.016 2029.34 617 1998 733 2082" stroke="black" stroke-opacity="0.1" fill="transparent"/>
<path d="M387.236 -16.214C478.425 -17.8232 256.578 370.484 438.72 566.937C710.236 859.786 526.251 1097.79 427.235 1282.29C286.742 1544.07 446.172 1820.06 573.39 1939.77C664.251 2029.12 641.235 1997.79 757.235 2081.79" stroke="black" stroke-opacity="0.1" fill="transparent"/>
<path d="M413.236 -16.214C504.425 -17.8232 282.578 370.484 464.72 566.937C736.236 859.786 552.251 1097.79 453.235 1282.29C312.742 1544.07 472.172 1820.06 599.39 1939.77C690.251 2029.12 667.235 1997.79 783.235 2081.79" stroke="black" stroke-opacity="0.1" fill="transparent"/>
<path d="M441.236 -16.214C532.425 -17.8232 310.578 370.484 492.72 566.937C764.236 859.786 580.251 1097.79 481.235 1282.29C340.742 1544.07 500.172 1820.06 627.39 1939.77C718.251 2029.12 695.235 1997.79 811.235 2081.79" stroke="black" stroke-opacity="0.1" fill="transparent"/>
</svg>
