<svg width="56" height="37" viewBox="0 0 56 37" fill="none" xmlns="http://www.w3.org/2000/svg">
<path d="M55.6004 18.3993C55.5659 18.0043 55.4021 17.4771 55.1404 17.1813L41.3404 1.40524C40.7384 0.580883 39.4973 0.583598 38.7334 1.25781C37.9695 1.93202 37.9113 3.12998 38.5804 3.84124L49.7067 16.5433H2.24039C1.22425 16.5433 0.400391 17.3742 0.400391 18.3993C0.400391 19.4244 1.22425 20.2553 2.24039 20.2553H49.7067L38.5804 32.9573C37.8503 33.6685 38.0556 34.8882 38.8195 35.5624C39.5834 36.2366 40.7385 36.1886 41.3404 35.3933L55.1404 19.6173C55.5093 19.2143 55.5796 18.7769 55.6004 18.3993Z" fill="#3E3E3E"/>
</svg>
